G04 #@! TF.GenerationSoftware,KiCad,Pcbnew,8.0.2*
G04 #@! TF.CreationDate,2024-05-11T15:04:56+02:00*
G04 #@! TF.ProjectId,WiFi-2-OIP-UI,57694669-2d32-42d4-9f49-502d55492e6b,V1.0*
G04 #@! TF.SameCoordinates,Original*
G04 #@! TF.FileFunction,Copper,L1,Top*
G04 #@! TF.FilePolarity,Positive*
%FSLAX46Y46*%
G04 Gerber Fmt 4.6, Leading zero omitted, Abs format (unit mm)*
G04 Created by KiCad (PCBNEW 8.0.2) date 2024-05-11 15:04:56*
%MOMM*%
%LPD*%
G01*
G04 APERTURE LIST*
G04 Aperture macros list*
%AMRoundRect*
0 Rectangle with rounded corners*
0 $1 Rounding radius*
0 $2 $3 $4 $5 $6 $7 $8 $9 X,Y pos of 4 corners*
0 Add a 4 corners polygon primitive as box body*
4,1,4,$2,$3,$4,$5,$6,$7,$8,$9,$2,$3,0*
0 Add four circle primitives for the rounded corners*
1,1,$1+$1,$2,$3*
1,1,$1+$1,$4,$5*
1,1,$1+$1,$6,$7*
1,1,$1+$1,$8,$9*
0 Add four rect primitives between the rounded corners*
20,1,$1+$1,$2,$3,$4,$5,0*
20,1,$1+$1,$4,$5,$6,$7,0*
20,1,$1+$1,$6,$7,$8,$9,0*
20,1,$1+$1,$8,$9,$2,$3,0*%
G04 Aperture macros list end*
G04 #@! TA.AperFunction,ComponentPad*
%ADD10R,2.500000X2.500000*%
G04 #@! TD*
G04 #@! TA.AperFunction,ComponentPad*
%ADD11C,0.900000*%
G04 #@! TD*
G04 #@! TA.AperFunction,ComponentPad*
%ADD12C,9.000000*%
G04 #@! TD*
G04 #@! TA.AperFunction,ComponentPad*
%ADD13R,2.100000X1.700000*%
G04 #@! TD*
G04 #@! TA.AperFunction,ComponentPad*
%ADD14O,2.100000X1.700000*%
G04 #@! TD*
G04 #@! TA.AperFunction,ComponentPad*
%ADD15O,1.905000X2.000000*%
G04 #@! TD*
G04 #@! TA.AperFunction,ComponentPad*
%ADD16R,1.905000X2.000000*%
G04 #@! TD*
G04 #@! TA.AperFunction,ComponentPad*
%ADD17C,1.600000*%
G04 #@! TD*
G04 #@! TA.AperFunction,ComponentPad*
%ADD18R,1.600000X1.600000*%
G04 #@! TD*
G04 #@! TA.AperFunction,ComponentPad*
%ADD19O,1.800000X3.600000*%
G04 #@! TD*
G04 #@! TA.AperFunction,ComponentPad*
%ADD20RoundRect,0.250000X-0.650000X-1.550000X0.650000X-1.550000X0.650000X1.550000X-0.650000X1.550000X0*%
G04 #@! TD*
G04 #@! TA.AperFunction,SMDPad,CuDef*
%ADD21RoundRect,0.250001X0.624999X-0.462499X0.624999X0.462499X-0.624999X0.462499X-0.624999X-0.462499X0*%
G04 #@! TD*
G04 #@! TA.AperFunction,SMDPad,CuDef*
%ADD22RoundRect,0.250000X-1.000000X-0.650000X1.000000X-0.650000X1.000000X0.650000X-1.000000X0.650000X0*%
G04 #@! TD*
G04 #@! TA.AperFunction,ComponentPad*
%ADD23R,1.300000X1.300000*%
G04 #@! TD*
G04 #@! TA.AperFunction,ComponentPad*
%ADD24C,1.300000*%
G04 #@! TD*
G04 #@! TA.AperFunction,Conductor*
%ADD25C,1.000000*%
G04 #@! TD*
G04 #@! TA.AperFunction,Conductor*
%ADD26C,0.440000*%
G04 #@! TD*
G04 APERTURE END LIST*
D10*
X177800000Y-96520000D03*
D11*
X163649000Y-106830000D03*
X162660485Y-109216485D03*
X162660485Y-104443515D03*
X160274000Y-110205000D03*
D12*
X160274000Y-106830000D03*
D11*
X160274000Y-103455000D03*
X157887515Y-109216485D03*
X157887515Y-104443515D03*
X156899000Y-106830000D03*
D13*
X124460000Y-86360000D03*
D14*
X124460000Y-88900000D03*
X124460000Y-91440000D03*
X124460000Y-93980000D03*
X124460000Y-96520000D03*
X124460000Y-99060000D03*
X124460000Y-101600000D03*
X124460000Y-104140000D03*
X127000000Y-86360000D03*
X127000000Y-88900000D03*
X127000000Y-91440000D03*
X127000000Y-93980000D03*
X127000000Y-96520000D03*
X127000000Y-99060000D03*
X127000000Y-101600000D03*
X127000000Y-104140000D03*
X144780000Y-86360000D03*
X144780000Y-88900000D03*
X144780000Y-91440000D03*
X144780000Y-93980000D03*
X144780000Y-96520000D03*
X144780000Y-99060000D03*
X144780000Y-101600000D03*
X144780000Y-104140000D03*
X147320000Y-86360000D03*
X147320000Y-88900000D03*
X147320000Y-91440000D03*
X147320000Y-93980000D03*
X147320000Y-96520000D03*
X147320000Y-99060000D03*
X147320000Y-101600000D03*
X147320000Y-104140000D03*
D15*
X163068000Y-89916000D03*
X160528000Y-89916000D03*
D16*
X157988000Y-89916000D03*
D17*
X164338000Y-97536000D03*
D18*
X164338000Y-95536000D03*
D17*
X156718000Y-97536000D03*
D18*
X156718000Y-95536000D03*
D19*
X176220000Y-106680000D03*
D20*
X172720000Y-106680000D03*
D21*
X172720000Y-95032500D03*
X172720000Y-98007500D03*
D22*
X176752000Y-88900000D03*
X172752000Y-88900000D03*
D23*
X114300000Y-95250000D03*
D24*
X116840000Y-96520000D03*
X114300000Y-97790000D03*
X116840000Y-99060000D03*
X114300000Y-100330000D03*
X116840000Y-101600000D03*
X114300000Y-102870000D03*
X116840000Y-104140000D03*
X114300000Y-105410000D03*
X116840000Y-106680000D03*
D25*
X159290000Y-92964000D02*
X156718000Y-95536000D01*
X166624000Y-92964000D02*
X159290000Y-92964000D01*
X170688000Y-88900000D02*
X166624000Y-92964000D01*
X172752000Y-88900000D02*
X170688000Y-88900000D01*
D26*
X121920000Y-96520000D02*
X124460000Y-96520000D01*
X116205000Y-100330000D02*
X118110000Y-100330000D01*
X114300000Y-102235000D02*
X116205000Y-100330000D01*
X118110000Y-100330000D02*
X121920000Y-96520000D01*
X114300000Y-102870000D02*
X114300000Y-102235000D01*
X128270000Y-86360000D02*
X127000000Y-86360000D01*
X129540000Y-87630000D02*
X128270000Y-86360000D01*
X129540000Y-93980000D02*
X129540000Y-87630000D01*
X128270000Y-95250000D02*
X129540000Y-93980000D01*
X117839904Y-99060000D02*
X121649904Y-95250000D01*
X121649904Y-95250000D02*
X128270000Y-95250000D01*
X116840000Y-99060000D02*
X117839904Y-99060000D01*
X125730000Y-108585000D02*
X127000000Y-107315000D01*
X115570000Y-108585000D02*
X125730000Y-108585000D01*
X127000000Y-107315000D02*
X127000000Y-104140000D01*
X114300000Y-107315000D02*
X115570000Y-108585000D01*
X114300000Y-105410000D02*
X114300000Y-107315000D01*
X114300000Y-99695000D02*
X114300000Y-100330000D01*
X116205000Y-97790000D02*
X114300000Y-99695000D01*
X117792500Y-97790000D02*
X116205000Y-97790000D01*
X122872500Y-92710000D02*
X117792500Y-97790000D01*
X125730000Y-92710000D02*
X122872500Y-92710000D01*
X127000000Y-91440000D02*
X125730000Y-92710000D01*
D25*
X162782000Y-95536000D02*
X164338000Y-95536000D01*
X154178000Y-104140000D02*
X162782000Y-95536000D01*
X147320000Y-104140000D02*
X154178000Y-104140000D01*
X172720000Y-93980000D02*
X176752000Y-89948000D01*
X172720000Y-95032500D02*
X172720000Y-93980000D01*
X176752000Y-89948000D02*
X176752000Y-88900000D01*
X172720000Y-106680000D02*
X172720000Y-98007500D01*
G04 #@! TA.AperFunction,Conductor*
G36*
X146854075Y-101407007D02*
G01*
X146820000Y-101534174D01*
X146820000Y-101665826D01*
X146854075Y-101792993D01*
X146886988Y-101850000D01*
X145213012Y-101850000D01*
X145245925Y-101792993D01*
X145280000Y-101665826D01*
X145280000Y-101534174D01*
X145245925Y-101407007D01*
X145213012Y-101350000D01*
X146886988Y-101350000D01*
X146854075Y-101407007D01*
G37*
G04 #@! TD.AperFunction*
G04 #@! TA.AperFunction,Conductor*
G36*
X149866061Y-84956097D02*
G01*
X149997973Y-84969089D01*
X150021801Y-84973828D01*
X150142793Y-85010531D01*
X150165245Y-85019832D01*
X150172999Y-85023976D01*
X150276738Y-85079426D01*
X150296949Y-85092930D01*
X150394677Y-85173132D01*
X150411867Y-85190322D01*
X150492069Y-85288050D01*
X150505573Y-85308261D01*
X150565166Y-85419751D01*
X150574469Y-85442209D01*
X150611169Y-85563192D01*
X150615911Y-85587032D01*
X150628903Y-85718937D01*
X150629500Y-85731092D01*
X150629500Y-86294108D01*
X150629500Y-86360000D01*
X150629500Y-86486629D01*
X150647724Y-86613384D01*
X150665541Y-86737303D01*
X150665543Y-86737313D01*
X150736894Y-86980312D01*
X150842093Y-87210666D01*
X150842106Y-87210689D01*
X150979016Y-87423725D01*
X150979020Y-87423731D01*
X151144868Y-87615131D01*
X151336268Y-87780979D01*
X151336274Y-87780983D01*
X151549310Y-87917893D01*
X151549333Y-87917906D01*
X151779687Y-88023105D01*
X151779691Y-88023106D01*
X151779693Y-88023107D01*
X152022692Y-88094458D01*
X152273371Y-88130500D01*
X152273374Y-88130500D01*
X169036626Y-88130500D01*
X169036629Y-88130500D01*
X169287308Y-88094458D01*
X169530307Y-88023107D01*
X169530310Y-88023105D01*
X169530312Y-88023105D01*
X169760666Y-87917906D01*
X169760670Y-87917903D01*
X169760678Y-87917900D01*
X169973732Y-87780979D01*
X170165131Y-87615131D01*
X170330979Y-87423732D01*
X170467900Y-87210678D01*
X170467903Y-87210670D01*
X170467906Y-87210666D01*
X170573105Y-86980312D01*
X170573105Y-86980310D01*
X170573107Y-86980307D01*
X170644458Y-86737308D01*
X170680500Y-86486629D01*
X170680500Y-86360000D01*
X170680500Y-86294108D01*
X170680500Y-85731092D01*
X170681097Y-85718938D01*
X170688569Y-85643072D01*
X170694089Y-85587024D01*
X170698828Y-85563200D01*
X170735532Y-85442202D01*
X170744830Y-85419757D01*
X170804427Y-85308259D01*
X170817930Y-85288050D01*
X170819122Y-85286598D01*
X170898137Y-85190316D01*
X170915316Y-85173137D01*
X171013052Y-85092928D01*
X171033261Y-85079426D01*
X171144757Y-85019830D01*
X171167202Y-85010532D01*
X171288200Y-84973828D01*
X171312024Y-84969089D01*
X171443939Y-84956097D01*
X171456093Y-84955500D01*
X171515892Y-84955500D01*
X175829108Y-84955500D01*
X175892128Y-84955500D01*
X175897855Y-84955632D01*
X176253236Y-84972062D01*
X176264626Y-84973118D01*
X176614132Y-85021872D01*
X176625376Y-85023974D01*
X176968893Y-85104768D01*
X176979883Y-85107895D01*
X177314500Y-85220047D01*
X177325154Y-85224175D01*
X177647980Y-85366716D01*
X177658206Y-85371808D01*
X177784600Y-85442209D01*
X177966499Y-85543527D01*
X177976237Y-85549556D01*
X178076308Y-85618106D01*
X178241247Y-85731092D01*
X178267367Y-85748984D01*
X178276504Y-85755885D01*
X178547981Y-85981316D01*
X178556445Y-85989032D01*
X178805967Y-86238554D01*
X178813683Y-86247018D01*
X179039112Y-86518492D01*
X179046015Y-86527632D01*
X179245443Y-86818762D01*
X179251472Y-86828500D01*
X179311788Y-86936786D01*
X179419129Y-87129500D01*
X179423184Y-87136779D01*
X179428287Y-87147028D01*
X179570819Y-87469832D01*
X179574957Y-87480512D01*
X179687100Y-87815103D01*
X179690234Y-87826119D01*
X179771023Y-88169615D01*
X179773128Y-88180874D01*
X179821880Y-88530366D01*
X179822937Y-88541770D01*
X179839368Y-88897144D01*
X179839500Y-88902871D01*
X179839500Y-99705500D01*
X179819815Y-99772539D01*
X179767011Y-99818294D01*
X179715500Y-99829500D01*
X178335654Y-99829500D01*
X178139988Y-99864001D01*
X177953286Y-99931956D01*
X177953279Y-99931959D01*
X177781219Y-100031298D01*
X177781213Y-100031302D01*
X177629014Y-100159014D01*
X177501302Y-100311213D01*
X177501298Y-100311219D01*
X177401959Y-100483279D01*
X177401956Y-100483286D01*
X177334001Y-100669988D01*
X177299500Y-100865654D01*
X177299500Y-101726627D01*
X177335541Y-101977303D01*
X177335543Y-101977313D01*
X177406894Y-102220312D01*
X177512093Y-102450666D01*
X177512106Y-102450689D01*
X177649016Y-102663725D01*
X177649020Y-102663731D01*
X177814868Y-102855131D01*
X178006268Y-103020979D01*
X178006274Y-103020983D01*
X178219310Y-103157893D01*
X178219333Y-103157906D01*
X178449687Y-103263105D01*
X178449691Y-103263106D01*
X178449693Y-103263107D01*
X178692692Y-103334458D01*
X178943371Y-103370500D01*
X179004108Y-103370500D01*
X179063907Y-103370500D01*
X179076061Y-103371097D01*
X179207973Y-103384089D01*
X179231801Y-103388828D01*
X179352793Y-103425531D01*
X179375245Y-103434832D01*
X179430993Y-103464629D01*
X179486738Y-103494426D01*
X179506949Y-103507930D01*
X179604677Y-103588132D01*
X179621867Y-103605322D01*
X179702069Y-103703050D01*
X179715573Y-103723261D01*
X179775166Y-103834751D01*
X179784469Y-103857209D01*
X179821169Y-103978192D01*
X179825911Y-104002032D01*
X179838903Y-104133937D01*
X179839500Y-104146092D01*
X179839500Y-111770500D01*
X179819815Y-111837539D01*
X179767011Y-111883294D01*
X179715500Y-111894500D01*
X161632991Y-111894500D01*
X161565952Y-111874815D01*
X161520197Y-111822011D01*
X161510253Y-111752853D01*
X161539278Y-111689297D01*
X161598056Y-111651523D01*
X161600002Y-111650969D01*
X161820631Y-111590079D01*
X161820647Y-111590073D01*
X162241107Y-111432271D01*
X162241123Y-111432265D01*
X162645714Y-111237425D01*
X162645729Y-111237417D01*
X163031265Y-111007070D01*
X163394579Y-110743106D01*
X163394596Y-110743093D01*
X163628864Y-110538417D01*
X161678669Y-108588222D01*
X161760711Y-108525269D01*
X161969269Y-108316711D01*
X162032222Y-108234669D01*
X163983232Y-110185679D01*
X164043158Y-110123003D01*
X164323165Y-109771884D01*
X164323166Y-109771883D01*
X164570566Y-109397088D01*
X164570566Y-109397087D01*
X164783386Y-109001602D01*
X164783390Y-109001594D01*
X164959890Y-108588650D01*
X164959893Y-108588642D01*
X165098674Y-108161519D01*
X165198606Y-107723686D01*
X165258890Y-107278647D01*
X165258891Y-107278638D01*
X165279040Y-106830003D01*
X165279040Y-106829996D01*
X165258891Y-106381361D01*
X165258890Y-106381352D01*
X165198606Y-105936313D01*
X165098674Y-105498480D01*
X164963395Y-105082135D01*
X171569500Y-105082135D01*
X171569500Y-108277870D01*
X171569501Y-108277876D01*
X171575908Y-108337483D01*
X171626202Y-108472328D01*
X171626206Y-108472335D01*
X171712452Y-108587544D01*
X171712455Y-108587547D01*
X171827664Y-108673793D01*
X171827671Y-108673797D01*
X171962517Y-108724091D01*
X171962516Y-108724091D01*
X171969444Y-108724835D01*
X172022127Y-108730500D01*
X173417872Y-108730499D01*
X173477483Y-108724091D01*
X173612331Y-108673796D01*
X173727546Y-108587546D01*
X173813796Y-108472331D01*
X173864091Y-108337483D01*
X173870500Y-108277873D01*
X173870499Y-105669818D01*
X174820000Y-105669818D01*
X174820000Y-106430000D01*
X175671518Y-106430000D01*
X175660889Y-106448409D01*
X175620000Y-106601009D01*
X175620000Y-106758991D01*
X175660889Y-106911591D01*
X175671518Y-106930000D01*
X174820000Y-106930000D01*
X174820000Y-107690181D01*
X174854473Y-107907835D01*
X174922567Y-108117410D01*
X175022613Y-108313760D01*
X175152142Y-108492041D01*
X175307958Y-108647857D01*
X175486239Y-108777386D01*
X175682589Y-108877432D01*
X175892163Y-108945526D01*
X175969999Y-108957854D01*
X175970000Y-108957854D01*
X175970000Y-107228482D01*
X175988409Y-107239111D01*
X176141009Y-107280000D01*
X176298991Y-107280000D01*
X176451591Y-107239111D01*
X176470000Y-107228482D01*
X176470000Y-108957854D01*
X176547834Y-108945526D01*
X176547837Y-108945526D01*
X176757410Y-108877432D01*
X176953760Y-108777386D01*
X177132041Y-108647857D01*
X177287857Y-108492041D01*
X177417386Y-108313760D01*
X177517432Y-108117410D01*
X177585526Y-107907835D01*
X177620000Y-107690181D01*
X177620000Y-106930000D01*
X176768482Y-106930000D01*
X176779111Y-106911591D01*
X176820000Y-106758991D01*
X176820000Y-106601009D01*
X176779111Y-106448409D01*
X176768482Y-106430000D01*
X177620000Y-106430000D01*
X177620000Y-105669818D01*
X177585526Y-105452164D01*
X177517432Y-105242589D01*
X177417386Y-105046239D01*
X177287857Y-104867958D01*
X177132041Y-104712142D01*
X176953760Y-104582613D01*
X176757410Y-104482567D01*
X176547836Y-104414473D01*
X176470000Y-104402144D01*
X176470000Y-106131517D01*
X176451591Y-106120889D01*
X176298991Y-106080000D01*
X176141009Y-106080000D01*
X175988409Y-106120889D01*
X175970000Y-106131517D01*
X175970000Y-104402144D01*
X175892164Y-104414473D01*
X175892161Y-104414473D01*
X175682589Y-104482567D01*
X175486239Y-104582613D01*
X175307958Y-104712142D01*
X175152142Y-104867958D01*
X175022613Y-105046239D01*
X174922567Y-105242589D01*
X174854473Y-105452164D01*
X174820000Y-105669818D01*
X173870499Y-105669818D01*
X173870499Y-105082128D01*
X173864091Y-105022517D01*
X173856119Y-105001144D01*
X173813797Y-104887671D01*
X173813793Y-104887664D01*
X173727547Y-104772455D01*
X173727544Y-104772452D01*
X173612335Y-104686206D01*
X173612328Y-104686202D01*
X173551167Y-104663391D01*
X173495233Y-104621520D01*
X173470816Y-104556056D01*
X173470500Y-104547209D01*
X173470500Y-99043465D01*
X173490185Y-98976426D01*
X173542989Y-98930671D01*
X173551146Y-98927291D01*
X173587330Y-98913796D01*
X173702546Y-98827546D01*
X173788796Y-98712330D01*
X173839091Y-98577482D01*
X173845500Y-98517872D01*
X173845500Y-97497128D01*
X173839091Y-97437518D01*
X173788797Y-97302672D01*
X173788796Y-97302671D01*
X173788796Y-97302670D01*
X173702546Y-97187454D01*
X173587330Y-97101204D01*
X173587328Y-97101203D01*
X173587327Y-97101202D01*
X173452481Y-97050908D01*
X173452482Y-97050908D01*
X173392882Y-97044501D01*
X173392880Y-97044500D01*
X173392872Y-97044500D01*
X172047128Y-97044500D01*
X172047120Y-97044500D01*
X172047117Y-97044501D01*
X171987518Y-97050908D01*
X171852672Y-97101202D01*
X171852670Y-97101204D01*
X171737454Y-97187454D01*
X171651204Y-97302670D01*
X171651202Y-97302672D01*
X171600908Y-97437518D01*
X171594501Y-97497117D01*
X171594500Y-97497136D01*
X171594500Y-98517863D01*
X171594501Y-98517882D01*
X171600908Y-98577481D01*
X171651202Y-98712327D01*
X171651203Y-98712328D01*
X171651204Y-98712330D01*
X171737454Y-98827546D01*
X171852670Y-98913796D01*
X171888833Y-98927283D01*
X171944765Y-98969152D01*
X171969184Y-99034616D01*
X171969500Y-99043465D01*
X171969500Y-104547209D01*
X171949815Y-104614248D01*
X171897011Y-104660003D01*
X171888833Y-104663391D01*
X171827671Y-104686202D01*
X171827664Y-104686206D01*
X171712455Y-104772452D01*
X171712452Y-104772455D01*
X171626206Y-104887664D01*
X171626202Y-104887671D01*
X171575908Y-105022517D01*
X171570658Y-105071357D01*
X171569501Y-105082123D01*
X171569500Y-105082135D01*
X164963395Y-105082135D01*
X164959893Y-105071357D01*
X164959890Y-105071349D01*
X164783390Y-104658405D01*
X164783386Y-104658397D01*
X164570566Y-104262912D01*
X164570566Y-104262911D01*
X164323166Y-103888116D01*
X164323165Y-103888115D01*
X164043154Y-103536991D01*
X164043151Y-103536988D01*
X163983232Y-103474318D01*
X162032221Y-105425329D01*
X161969269Y-105343289D01*
X161760711Y-105134731D01*
X161678668Y-105071776D01*
X163628864Y-103121581D01*
X163394596Y-102916906D01*
X163394579Y-102916893D01*
X163031265Y-102652929D01*
X162645729Y-102422582D01*
X162645714Y-102422574D01*
X162241123Y-102227734D01*
X162241107Y-102227728D01*
X161820647Y-102069926D01*
X161820631Y-102069920D01*
X161387733Y-101950448D01*
X160945849Y-101870258D01*
X160498546Y-101830000D01*
X160049453Y-101830000D01*
X159602150Y-101870258D01*
X159160266Y-101950448D01*
X158727368Y-102069920D01*
X158727352Y-102069926D01*
X158306892Y-102227728D01*
X158306876Y-102227734D01*
X157902285Y-102422574D01*
X157902270Y-102422582D01*
X157516734Y-102652929D01*
X157153411Y-102916899D01*
X156919134Y-103121580D01*
X156919134Y-103121581D01*
X158869330Y-105071777D01*
X158787289Y-105134731D01*
X158578731Y-105343289D01*
X158515778Y-105425330D01*
X156564766Y-103474318D01*
X156564765Y-103474318D01*
X156504857Y-103536978D01*
X156504846Y-103536991D01*
X156224834Y-103888115D01*
X156224833Y-103888116D01*
X155977433Y-104262911D01*
X155977433Y-104262912D01*
X155764613Y-104658397D01*
X155764609Y-104658405D01*
X155588109Y-105071349D01*
X155588106Y-105071357D01*
X155449325Y-105498480D01*
X155349393Y-105936313D01*
X155289109Y-106381352D01*
X155289108Y-106381361D01*
X155268960Y-106829996D01*
X155268960Y-106830003D01*
X155289108Y-107278638D01*
X155289109Y-107278647D01*
X155349393Y-107723686D01*
X155449325Y-108161519D01*
X155588106Y-108588642D01*
X155588109Y-108588650D01*
X155764609Y-109001594D01*
X155764613Y-109001602D01*
X155977433Y-109397087D01*
X155977433Y-109397088D01*
X156224833Y-109771883D01*
X156224834Y-109771884D01*
X156504845Y-110123008D01*
X156504848Y-110123011D01*
X156564766Y-110185680D01*
X158515777Y-108234668D01*
X158578731Y-108316711D01*
X158787289Y-108525269D01*
X158869330Y-108588221D01*
X156919134Y-110538417D01*
X157153403Y-110743093D01*
X157153420Y-110743106D01*
X157516734Y-111007070D01*
X157902270Y-111237417D01*
X157902285Y-111237425D01*
X158306876Y-111432265D01*
X158306892Y-111432271D01*
X158727352Y-111590073D01*
X158727368Y-111590079D01*
X158947998Y-111650969D01*
X159007384Y-111687779D01*
X159037443Y-111750852D01*
X159028629Y-111820164D01*
X158983742Y-111873708D01*
X158917033Y-111894483D01*
X158915009Y-111894500D01*
X122690126Y-111894500D01*
X122673943Y-111893439D01*
X122644853Y-111889609D01*
X122597631Y-111883392D01*
X122566366Y-111875014D01*
X122502833Y-111848698D01*
X122474799Y-111832513D01*
X122420240Y-111790649D01*
X122397352Y-111767761D01*
X122355486Y-111713200D01*
X122339301Y-111685166D01*
X122312985Y-111621633D01*
X122304607Y-111590366D01*
X122304568Y-111590073D01*
X122294561Y-111514058D01*
X122293500Y-111497873D01*
X122293500Y-111269638D01*
X122267310Y-111104289D01*
X122259286Y-111053625D01*
X122191701Y-110845617D01*
X122191701Y-110845616D01*
X122157197Y-110777900D01*
X122092407Y-110650743D01*
X122084147Y-110639374D01*
X121963857Y-110473806D01*
X121809193Y-110319142D01*
X121632260Y-110190595D01*
X121632259Y-110190594D01*
X121632257Y-110190593D01*
X121569825Y-110158782D01*
X121437383Y-110091298D01*
X121437380Y-110091297D01*
X121229376Y-110023714D01*
X121013361Y-109989500D01*
X121013356Y-109989500D01*
X120969892Y-109989500D01*
X113036093Y-109989500D01*
X113023939Y-109988903D01*
X112892033Y-109975911D01*
X112868192Y-109971169D01*
X112747209Y-109934469D01*
X112724751Y-109925166D01*
X112613261Y-109865573D01*
X112593050Y-109852069D01*
X112495343Y-109771884D01*
X112495321Y-109771866D01*
X112478132Y-109754677D01*
X112397930Y-109656949D01*
X112384426Y-109636738D01*
X112324833Y-109525248D01*
X112315530Y-109502790D01*
X112278828Y-109381801D01*
X112274089Y-109357973D01*
X112261097Y-109226061D01*
X112260500Y-109213907D01*
X112260500Y-105410000D01*
X113394540Y-105410000D01*
X113414326Y-105598256D01*
X113414327Y-105598259D01*
X113472818Y-105778277D01*
X113472821Y-105778284D01*
X113567467Y-105942216D01*
X113625899Y-106007111D01*
X113694129Y-106082888D01*
X113694133Y-106082892D01*
X113778384Y-106144102D01*
X113821051Y-106199431D01*
X113829500Y-106244421D01*
X113829500Y-107376943D01*
X113852867Y-107464148D01*
X113861564Y-107496606D01*
X113923505Y-107603892D01*
X113923507Y-107603895D01*
X114018171Y-107698559D01*
X114018176Y-107698563D01*
X115281106Y-108961494D01*
X115388394Y-109023436D01*
X115508057Y-109055500D01*
X115508060Y-109055500D01*
X125791940Y-109055500D01*
X125791943Y-109055500D01*
X125911606Y-109023436D01*
X126018894Y-108961494D01*
X126106494Y-108873894D01*
X126106494Y-108873892D01*
X126116698Y-108863689D01*
X126116701Y-108863684D01*
X127376494Y-107603894D01*
X127438436Y-107496606D01*
X127470500Y-107376943D01*
X127470500Y-107253058D01*
X127470500Y-107253057D01*
X127470500Y-105299334D01*
X127490185Y-105232295D01*
X127542989Y-105186540D01*
X127556183Y-105181403D01*
X127622440Y-105159875D01*
X127622442Y-105159873D01*
X127622445Y-105159873D01*
X127776788Y-105081232D01*
X127916928Y-104979414D01*
X128039414Y-104856928D01*
X128141232Y-104716788D01*
X128219873Y-104562445D01*
X128273402Y-104397701D01*
X128300500Y-104226611D01*
X128300500Y-104053389D01*
X128273402Y-103882299D01*
X128219873Y-103717555D01*
X128141232Y-103563212D01*
X128039414Y-103423072D01*
X127916928Y-103300586D01*
X127776788Y-103198768D01*
X127622445Y-103120127D01*
X127457701Y-103066598D01*
X127457699Y-103066597D01*
X127457698Y-103066597D01*
X127326271Y-103045781D01*
X127286611Y-103039500D01*
X126713389Y-103039500D01*
X126673728Y-103045781D01*
X126542302Y-103066597D01*
X126542299Y-103066598D01*
X126382923Y-103118383D01*
X126377552Y-103120128D01*
X126223211Y-103198768D01*
X126168823Y-103238284D01*
X126083072Y-103300586D01*
X126083070Y-103300588D01*
X126083069Y-103300588D01*
X125960588Y-103423069D01*
X125960588Y-103423070D01*
X125960586Y-103423072D01*
X125909677Y-103493142D01*
X125858766Y-103563214D01*
X125840484Y-103599095D01*
X125792510Y-103649890D01*
X125724689Y-103666685D01*
X125658554Y-103644147D01*
X125619516Y-103599095D01*
X125601233Y-103563214D01*
X125601231Y-103563211D01*
X125499414Y-103423072D01*
X125376928Y-103300586D01*
X125236788Y-103198768D01*
X125082445Y-103120127D01*
X124917701Y-103066598D01*
X124917699Y-103066597D01*
X124917698Y-103066597D01*
X124786271Y-103045781D01*
X124746611Y-103039500D01*
X124173389Y-103039500D01*
X124133728Y-103045781D01*
X124002302Y-103066597D01*
X124002299Y-103066598D01*
X123842923Y-103118383D01*
X123837552Y-103120128D01*
X123683211Y-103198768D01*
X123628823Y-103238284D01*
X123543072Y-103300586D01*
X123543070Y-103300588D01*
X123543069Y-103300588D01*
X123420588Y-103423069D01*
X123420588Y-103423070D01*
X123420586Y-103423072D01*
X123376859Y-103483256D01*
X123318768Y-103563211D01*
X123240128Y-103717552D01*
X123186597Y-103882302D01*
X123175599Y-103951744D01*
X123159500Y-104053389D01*
X123159500Y-104226611D01*
X123186598Y-104397701D01*
X123240127Y-104562445D01*
X123318768Y-104716788D01*
X123420586Y-104856928D01*
X123543072Y-104979414D01*
X123683212Y-105081232D01*
X123837555Y-105159873D01*
X124002299Y-105213402D01*
X124173389Y-105240500D01*
X124173390Y-105240500D01*
X124746610Y-105240500D01*
X124746611Y-105240500D01*
X124917701Y-105213402D01*
X125082445Y-105159873D01*
X125236788Y-105081232D01*
X125376928Y-104979414D01*
X125499414Y-104856928D01*
X125601232Y-104716788D01*
X125616814Y-104686206D01*
X125619515Y-104680906D01*
X125667489Y-104630109D01*
X125735310Y-104613314D01*
X125801445Y-104635851D01*
X125840485Y-104680906D01*
X125858766Y-104716786D01*
X125873534Y-104737112D01*
X125960586Y-104856928D01*
X126083072Y-104979414D01*
X126223212Y-105081232D01*
X126328211Y-105134731D01*
X126377559Y-105159875D01*
X126443817Y-105181403D01*
X126501493Y-105220839D01*
X126528692Y-105285198D01*
X126529500Y-105299334D01*
X126529500Y-107068750D01*
X126509815Y-107135789D01*
X126493181Y-107156431D01*
X125571432Y-108078181D01*
X125510109Y-108111666D01*
X125483751Y-108114500D01*
X115816250Y-108114500D01*
X115749211Y-108094815D01*
X115728569Y-108078181D01*
X114806819Y-107156431D01*
X114773334Y-107095108D01*
X114770500Y-107068750D01*
X114770500Y-106680000D01*
X115934540Y-106680000D01*
X115954326Y-106868256D01*
X115954327Y-106868259D01*
X116012818Y-107048277D01*
X116012821Y-107048284D01*
X116107467Y-107212216D01*
X116234129Y-107352888D01*
X116387265Y-107464148D01*
X116387270Y-107464151D01*
X116560192Y-107541142D01*
X116560197Y-107541144D01*
X116745354Y-107580500D01*
X116745355Y-107580500D01*
X116934644Y-107580500D01*
X116934646Y-107580500D01*
X117119803Y-107541144D01*
X117292730Y-107464151D01*
X117445871Y-107352888D01*
X117572533Y-107212216D01*
X117667179Y-107048284D01*
X117725674Y-106868256D01*
X117745460Y-106680000D01*
X117725674Y-106491744D01*
X117667179Y-106311716D01*
X117572533Y-106147784D01*
X117445871Y-106007112D01*
X117445870Y-106007111D01*
X117292734Y-105895851D01*
X117292729Y-105895848D01*
X117119807Y-105818857D01*
X117119802Y-105818855D01*
X116974001Y-105787865D01*
X116934646Y-105779500D01*
X116745354Y-105779500D01*
X116712897Y-105786398D01*
X116560197Y-105818855D01*
X116560192Y-105818857D01*
X116387270Y-105895848D01*
X116387265Y-105895851D01*
X116234129Y-106007111D01*
X116107466Y-106147785D01*
X116012821Y-106311715D01*
X116012818Y-106311722D01*
X115954327Y-106491740D01*
X115954326Y-106491744D01*
X115934540Y-106680000D01*
X114770500Y-106680000D01*
X114770500Y-106244421D01*
X114790185Y-106177382D01*
X114821616Y-106144102D01*
X114905866Y-106082892D01*
X114905867Y-106082890D01*
X114905871Y-106082888D01*
X115032533Y-105942216D01*
X115127179Y-105778284D01*
X115185674Y-105598256D01*
X115205460Y-105410000D01*
X115185674Y-105221744D01*
X115127179Y-105041716D01*
X115032533Y-104877784D01*
X114905871Y-104737112D01*
X114905870Y-104737111D01*
X114752734Y-104625851D01*
X114752729Y-104625848D01*
X114579807Y-104548857D01*
X114579802Y-104548855D01*
X114434001Y-104517865D01*
X114394646Y-104509500D01*
X114205354Y-104509500D01*
X114172897Y-104516398D01*
X114020197Y-104548855D01*
X114020192Y-104548857D01*
X113847270Y-104625848D01*
X113847265Y-104625851D01*
X113694129Y-104737111D01*
X113567466Y-104877785D01*
X113472821Y-105041715D01*
X113472818Y-105041722D01*
X113417036Y-105213402D01*
X113414326Y-105221744D01*
X113394540Y-105410000D01*
X112260500Y-105410000D01*
X112260500Y-104140000D01*
X115934540Y-104140000D01*
X115954326Y-104328256D01*
X115954327Y-104328259D01*
X116012818Y-104508277D01*
X116012821Y-104508284D01*
X116107467Y-104672216D01*
X116191479Y-104765520D01*
X116234129Y-104812888D01*
X116387265Y-104924148D01*
X116387270Y-104924151D01*
X116560192Y-105001142D01*
X116560197Y-105001144D01*
X116745354Y-105040500D01*
X116745355Y-105040500D01*
X116934644Y-105040500D01*
X116934646Y-105040500D01*
X117119803Y-105001144D01*
X117292730Y-104924151D01*
X117445871Y-104812888D01*
X117572533Y-104672216D01*
X117667179Y-104508284D01*
X117725674Y-104328256D01*
X117745460Y-104140000D01*
X117725674Y-103951744D01*
X117667179Y-103771716D01*
X117572533Y-103607784D01*
X117445871Y-103467112D01*
X117401443Y-103434833D01*
X117292734Y-103355851D01*
X117292729Y-103355848D01*
X117119807Y-103278857D01*
X117119802Y-103278855D01*
X116974001Y-103247865D01*
X116934646Y-103239500D01*
X116745354Y-103239500D01*
X116712897Y-103246398D01*
X116560197Y-103278855D01*
X116560192Y-103278857D01*
X116387270Y-103355848D01*
X116387265Y-103355851D01*
X116234129Y-103467111D01*
X116107466Y-103607785D01*
X116012821Y-103771715D01*
X116012818Y-103771722D01*
X115985042Y-103857209D01*
X115954326Y-103951744D01*
X115934540Y-104140000D01*
X112260500Y-104140000D01*
X112260500Y-97790000D01*
X113394540Y-97790000D01*
X113414326Y-97978256D01*
X113414327Y-97978259D01*
X113472818Y-98158277D01*
X113472821Y-98158284D01*
X113567467Y-98322216D01*
X113625900Y-98387112D01*
X113694129Y-98462888D01*
X113847265Y-98574148D01*
X113847270Y-98574151D01*
X114020192Y-98651142D01*
X114020197Y-98651144D01*
X114205354Y-98690500D01*
X114205355Y-98690500D01*
X114339750Y-98690500D01*
X114406789Y-98710185D01*
X114452544Y-98762989D01*
X114462488Y-98832147D01*
X114433463Y-98895703D01*
X114427431Y-98902181D01*
X113923507Y-99406104D01*
X113923503Y-99406109D01*
X113857500Y-99520432D01*
X113856292Y-99519734D01*
X113820194Y-99565518D01*
X113694131Y-99657109D01*
X113694129Y-99657111D01*
X113567466Y-99797785D01*
X113472821Y-99961715D01*
X113472818Y-99961722D01*
X113417036Y-100133402D01*
X113414326Y-100141744D01*
X113394540Y-100330000D01*
X113414326Y-100518256D01*
X113414327Y-100518259D01*
X113472818Y-100698277D01*
X113472821Y-100698284D01*
X113567467Y-100862216D01*
X113694129Y-101002888D01*
X113847265Y-101114148D01*
X113847270Y-101114151D01*
X114020192Y-101191142D01*
X114020197Y-101191144D01*
X114205354Y-101230500D01*
X114205355Y-101230500D01*
X114339750Y-101230500D01*
X114406789Y-101250185D01*
X114452544Y-101302989D01*
X114462488Y-101372147D01*
X114433463Y-101435703D01*
X114427431Y-101442181D01*
X113923507Y-101946104D01*
X113923503Y-101946109D01*
X113857500Y-102060432D01*
X113856292Y-102059734D01*
X113820194Y-102105518D01*
X113694131Y-102197109D01*
X113694129Y-102197111D01*
X113567466Y-102337785D01*
X113472821Y-102501715D01*
X113472818Y-102501722D01*
X113420178Y-102663732D01*
X113414326Y-102681744D01*
X113394540Y-102870000D01*
X113414326Y-103058256D01*
X113414327Y-103058259D01*
X113472818Y-103238277D01*
X113472821Y-103238284D01*
X113567467Y-103402216D01*
X113655678Y-103500184D01*
X113694129Y-103542888D01*
X113847265Y-103654148D01*
X113847270Y-103654151D01*
X114020192Y-103731142D01*
X114020197Y-103731144D01*
X114205354Y-103770500D01*
X114205355Y-103770500D01*
X114394644Y-103770500D01*
X114394646Y-103770500D01*
X114579803Y-103731144D01*
X114752730Y-103654151D01*
X114905871Y-103542888D01*
X115032533Y-103402216D01*
X115127179Y-103238284D01*
X115185674Y-103058256D01*
X115205460Y-102870000D01*
X115185674Y-102681744D01*
X115127179Y-102501716D01*
X115032533Y-102337784D01*
X115030757Y-102335812D01*
X115030090Y-102334422D01*
X115028715Y-102332529D01*
X115029061Y-102332277D01*
X115000528Y-102272824D01*
X115009151Y-102203489D01*
X115035223Y-102165162D01*
X115726184Y-101474201D01*
X115787505Y-101440718D01*
X115857197Y-101445702D01*
X115913130Y-101487574D01*
X115937547Y-101553038D01*
X115937184Y-101574843D01*
X115934540Y-101600000D01*
X115954326Y-101788256D01*
X115954327Y-101788259D01*
X116012818Y-101968277D01*
X116012821Y-101968284D01*
X116107467Y-102132216D01*
X116193467Y-102227728D01*
X116234129Y-102272888D01*
X116387265Y-102384148D01*
X116387270Y-102384151D01*
X116560192Y-102461142D01*
X116560197Y-102461144D01*
X116745354Y-102500500D01*
X116745355Y-102500500D01*
X116934644Y-102500500D01*
X116934646Y-102500500D01*
X117119803Y-102461144D01*
X117292730Y-102384151D01*
X117445871Y-102272888D01*
X117572533Y-102132216D01*
X117667179Y-101968284D01*
X117725674Y-101788256D01*
X117745460Y-101600000D01*
X117736357Y-101513389D01*
X123159500Y-101513389D01*
X123159500Y-101686610D01*
X123182210Y-101830000D01*
X123186598Y-101857701D01*
X123232866Y-102000099D01*
X123240128Y-102022447D01*
X123264320Y-102069926D01*
X123318768Y-102176788D01*
X123420586Y-102316928D01*
X123543072Y-102439414D01*
X123683212Y-102541232D01*
X123837555Y-102619873D01*
X124002299Y-102673402D01*
X124173389Y-102700500D01*
X124173390Y-102700500D01*
X124746610Y-102700500D01*
X124746611Y-102700500D01*
X124917701Y-102673402D01*
X125082445Y-102619873D01*
X125236788Y-102541232D01*
X125376928Y-102439414D01*
X125499414Y-102316928D01*
X125601232Y-102176788D01*
X125619515Y-102140906D01*
X125667489Y-102090109D01*
X125735310Y-102073314D01*
X125801445Y-102095851D01*
X125840485Y-102140906D01*
X125858766Y-102176786D01*
X125873534Y-102197112D01*
X125960586Y-102316928D01*
X126083072Y-102439414D01*
X126223212Y-102541232D01*
X126377555Y-102619873D01*
X126542299Y-102673402D01*
X126713389Y-102700500D01*
X126713390Y-102700500D01*
X127286610Y-102700500D01*
X127286611Y-102700500D01*
X127457701Y-102673402D01*
X127622445Y-102619873D01*
X127776788Y-102541232D01*
X127916928Y-102439414D01*
X128039414Y-102316928D01*
X128141232Y-102176788D01*
X128219873Y-102022445D01*
X128273402Y-101857701D01*
X128300500Y-101686611D01*
X128300500Y-101513389D01*
X128274622Y-101350000D01*
X143252769Y-101350000D01*
X144346988Y-101350000D01*
X144314075Y-101407007D01*
X144280000Y-101534174D01*
X144280000Y-101665826D01*
X144314075Y-101792993D01*
X144346988Y-101850000D01*
X143252769Y-101850000D01*
X143263242Y-101916126D01*
X143263242Y-101916129D01*
X143328904Y-102118217D01*
X143425379Y-102307557D01*
X143550272Y-102479459D01*
X143550276Y-102479464D01*
X143700535Y-102629723D01*
X143700540Y-102629727D01*
X143872442Y-102754620D01*
X144061784Y-102851096D01*
X144160711Y-102883239D01*
X144218387Y-102922676D01*
X144245586Y-102987034D01*
X144233672Y-103055881D01*
X144186428Y-103107357D01*
X144160722Y-103119097D01*
X144159522Y-103119487D01*
X144157550Y-103120128D01*
X144003211Y-103198768D01*
X143948823Y-103238284D01*
X143863072Y-103300586D01*
X143863070Y-103300588D01*
X143863069Y-103300588D01*
X143740588Y-103423069D01*
X143740588Y-103423070D01*
X143740586Y-103423072D01*
X143696859Y-103483256D01*
X143638768Y-103563211D01*
X143560128Y-103717552D01*
X143506597Y-103882302D01*
X143495599Y-103951744D01*
X143479500Y-104053389D01*
X143479500Y-104226611D01*
X143506598Y-104397701D01*
X143560127Y-104562445D01*
X143638768Y-104716788D01*
X143740586Y-104856928D01*
X143863072Y-104979414D01*
X144003212Y-105081232D01*
X144157555Y-105159873D01*
X144322299Y-105213402D01*
X144493389Y-105240500D01*
X144493390Y-105240500D01*
X145066610Y-105240500D01*
X145066611Y-105240500D01*
X145237701Y-105213402D01*
X145402445Y-105159873D01*
X145556788Y-105081232D01*
X145696928Y-104979414D01*
X145819414Y-104856928D01*
X145921232Y-104716788D01*
X145936814Y-104686206D01*
X145939515Y-104680906D01*
X145987489Y-104630109D01*
X146055310Y-104613314D01*
X146121445Y-104635851D01*
X146160485Y-104680906D01*
X146178766Y-104716786D01*
X146193534Y-104737112D01*
X146280586Y-104856928D01*
X146403072Y-104979414D01*
X146543212Y-105081232D01*
X146697555Y-105159873D01*
X146862299Y-105213402D01*
X147033389Y-105240500D01*
X147033390Y-105240500D01*
X147606610Y-105240500D01*
X147606611Y-105240500D01*
X147777701Y-105213402D01*
X147942445Y-105159873D01*
X148096788Y-105081232D01*
X148236928Y-104979414D01*
X148289523Y-104926819D01*
X148350846Y-104893334D01*
X148377204Y-104890500D01*
X154251920Y-104890500D01*
X154349462Y-104871096D01*
X154396913Y-104861658D01*
X154502547Y-104817902D01*
X154533488Y-104805087D01*
X154533488Y-104805086D01*
X154533495Y-104805084D01*
X154592735Y-104765501D01*
X154656416Y-104722952D01*
X163056548Y-96322818D01*
X163117871Y-96289334D01*
X163144229Y-96286500D01*
X163170981Y-96286500D01*
X163238020Y-96306185D01*
X163283775Y-96358989D01*
X163292598Y-96386308D01*
X163302032Y-96433736D01*
X163302033Y-96433739D01*
X163302034Y-96433740D01*
X163357399Y-96516601D01*
X163357400Y-96516601D01*
X163364185Y-96526756D01*
X163360973Y-96528901D01*
X163383963Y-96571003D01*
X163378979Y-96640695D01*
X163350481Y-96685039D01*
X163338341Y-96697178D01*
X163207866Y-96883517D01*
X163111734Y-97089673D01*
X163111730Y-97089682D01*
X163052860Y-97309389D01*
X163052858Y-97309400D01*
X163033034Y-97535997D01*
X163033034Y-97536002D01*
X163052858Y-97762599D01*
X163052860Y-97762610D01*
X163111730Y-97982317D01*
X163111735Y-97982331D01*
X163207863Y-98188478D01*
X163258974Y-98261472D01*
X163938000Y-97582446D01*
X163938000Y-97588661D01*
X163965259Y-97690394D01*
X164017920Y-97781606D01*
X164092394Y-97856080D01*
X164183606Y-97908741D01*
X164285339Y-97936000D01*
X164291553Y-97936000D01*
X163612526Y-98615025D01*
X163685513Y-98666132D01*
X163685521Y-98666136D01*
X163891668Y-98762264D01*
X163891682Y-98762269D01*
X164111389Y-98821139D01*
X164111400Y-98821141D01*
X164337998Y-98840966D01*
X164338002Y-98840966D01*
X164564599Y-98821141D01*
X164564610Y-98821139D01*
X164784317Y-98762269D01*
X164784331Y-98762264D01*
X164990478Y-98666136D01*
X165063471Y-98615024D01*
X164384447Y-97936000D01*
X164390661Y-97936000D01*
X164492394Y-97908741D01*
X164583606Y-97856080D01*
X164658080Y-97781606D01*
X164710741Y-97690394D01*
X164738000Y-97588661D01*
X164738000Y-97582447D01*
X165417024Y-98261471D01*
X165468136Y-98188478D01*
X165564264Y-97982331D01*
X165564269Y-97982317D01*
X165623139Y-97762610D01*
X165623141Y-97762599D01*
X165642966Y-97536002D01*
X165642966Y-97535997D01*
X165623141Y-97309400D01*
X165623139Y-97309389D01*
X165564269Y-97089682D01*
X165564265Y-97089673D01*
X165468134Y-96883517D01*
X165337657Y-96697179D01*
X165325521Y-96685043D01*
X165292036Y-96623720D01*
X165297020Y-96554028D01*
X165313726Y-96528033D01*
X165311815Y-96526756D01*
X165318599Y-96516601D01*
X165318601Y-96516601D01*
X165373966Y-96433740D01*
X165388500Y-96360674D01*
X165388500Y-94711326D01*
X165388500Y-94711323D01*
X165388499Y-94711321D01*
X165373967Y-94638264D01*
X165373966Y-94638260D01*
X165366533Y-94627136D01*
X165318601Y-94555399D01*
X165268819Y-94522136D01*
X171594500Y-94522136D01*
X171594500Y-95542863D01*
X171594501Y-95542882D01*
X171600908Y-95602481D01*
X171651202Y-95737327D01*
X171651203Y-95737328D01*
X171651204Y-95737330D01*
X171737454Y-95852546D01*
X171852670Y-95938796D01*
X171852671Y-95938796D01*
X171852672Y-95938797D01*
X171987518Y-95989091D01*
X171987517Y-95989091D01*
X171994445Y-95989835D01*
X172047128Y-95995500D01*
X172047137Y-95995500D01*
X173392863Y-95995500D01*
X173392872Y-95995500D01*
X173452482Y-95989091D01*
X173587330Y-95938796D01*
X173702546Y-95852546D01*
X173788796Y-95737330D01*
X173839091Y-95602482D01*
X173845500Y-95542872D01*
X173845500Y-95245321D01*
X176299500Y-95245321D01*
X176299500Y-97794678D01*
X176314032Y-97867735D01*
X176314033Y-97867739D01*
X176314034Y-97867740D01*
X176369399Y-97950601D01*
X176452260Y-98005966D01*
X176452264Y-98005967D01*
X176525321Y-98020499D01*
X176525324Y-98020500D01*
X176525326Y-98020500D01*
X179074676Y-98020500D01*
X179074677Y-98020499D01*
X179147740Y-98005966D01*
X179230601Y-97950601D01*
X179285966Y-97867740D01*
X179300500Y-97794674D01*
X179300500Y-95245326D01*
X179300500Y-95245323D01*
X179300499Y-95245321D01*
X179285967Y-95172264D01*
X179285966Y-95172260D01*
X179230601Y-95089399D01*
X179147740Y-95034034D01*
X179147739Y-95034033D01*
X179147735Y-95034032D01*
X179074677Y-95019500D01*
X179074674Y-95019500D01*
X176525326Y-95019500D01*
X176525323Y-95019500D01*
X176452264Y-95034032D01*
X176452260Y-95034033D01*
X176369399Y-95089399D01*
X176314033Y-95172260D01*
X176314032Y-95172264D01*
X176299500Y-95245321D01*
X173845500Y-95245321D01*
X173845500Y-94522128D01*
X173839091Y-94462518D01*
X173834117Y-94449181D01*
X173788797Y-94327672D01*
X173788795Y-94327669D01*
X173744796Y-94268894D01*
X173702546Y-94212454D01*
X173702545Y-94212453D01*
X173701164Y-94210608D01*
X173676747Y-94145143D01*
X173691599Y-94076870D01*
X173712747Y-94048619D01*
X177334951Y-90426416D01*
X177374920Y-90366598D01*
X177417084Y-90303495D01*
X177473658Y-90166913D01*
X177476960Y-90150308D01*
X177509344Y-90088398D01*
X177570059Y-90053823D01*
X177598578Y-90050499D01*
X177799871Y-90050499D01*
X177799872Y-90050499D01*
X177859483Y-90044091D01*
X177994331Y-89993796D01*
X178109546Y-89907546D01*
X178195796Y-89792331D01*
X178246091Y-89657483D01*
X178252500Y-89597873D01*
X178252499Y-88202128D01*
X178246091Y-88142517D01*
X178228166Y-88094458D01*
X178195797Y-88007671D01*
X178195793Y-88007664D01*
X178109547Y-87892455D01*
X178109544Y-87892452D01*
X177994335Y-87806206D01*
X177994328Y-87806202D01*
X177859482Y-87755908D01*
X177859483Y-87755908D01*
X177799883Y-87749501D01*
X177799881Y-87749500D01*
X177799873Y-87749500D01*
X177799864Y-87749500D01*
X175704129Y-87749500D01*
X175704123Y-87749501D01*
X175644516Y-87755908D01*
X175509671Y-87806202D01*
X175509664Y-87806206D01*
X175394455Y-87892452D01*
X175394452Y-87892455D01*
X175308206Y-88007664D01*
X175308202Y-88007671D01*
X175257908Y-88142517D01*
X175251501Y-88202116D01*
X175251501Y-88202123D01*
X175251500Y-88202135D01*
X175251500Y-89597870D01*
X175251501Y-89597876D01*
X175257908Y-89657483D01*
X175308202Y-89792328D01*
X175308206Y-89792335D01*
X175344811Y-89841232D01*
X175394454Y-89907546D01*
X175472411Y-89965905D01*
X175514281Y-90021837D01*
X175519265Y-90091529D01*
X175485780Y-90152851D01*
X172137045Y-93501586D01*
X172115379Y-93534013D01*
X172106735Y-93546952D01*
X172080736Y-93585861D01*
X172054914Y-93624507D01*
X171998343Y-93761082D01*
X171998340Y-93761092D01*
X171969500Y-93906079D01*
X171969500Y-93996533D01*
X171949815Y-94063572D01*
X171897011Y-94109327D01*
X171888835Y-94112714D01*
X171852674Y-94126201D01*
X171852670Y-94126204D01*
X171737454Y-94212454D01*
X171651204Y-94327670D01*
X171651202Y-94327672D01*
X171600908Y-94462518D01*
X171594501Y-94522117D01*
X171594500Y-94522136D01*
X165268819Y-94522136D01*
X165235740Y-94500034D01*
X165235739Y-94500033D01*
X165235735Y-94500032D01*
X165162677Y-94485500D01*
X165162674Y-94485500D01*
X163513326Y-94485500D01*
X163513323Y-94485500D01*
X163440264Y-94500032D01*
X163440260Y-94500033D01*
X163357399Y-94555399D01*
X163302033Y-94638260D01*
X163302032Y-94638263D01*
X163292598Y-94685692D01*
X163260212Y-94747603D01*
X163199496Y-94782177D01*
X163170981Y-94785500D01*
X162708080Y-94785500D01*
X162563092Y-94814340D01*
X162563082Y-94814343D01*
X162426511Y-94870912D01*
X162426498Y-94870919D01*
X162303584Y-94953048D01*
X162303580Y-94953051D01*
X153903451Y-103353181D01*
X153842128Y-103386666D01*
X153815770Y-103389500D01*
X148377204Y-103389500D01*
X148310165Y-103369815D01*
X148289523Y-103353181D01*
X148236930Y-103300588D01*
X148236928Y-103300586D01*
X148096788Y-103198768D01*
X147942446Y-103120127D01*
X147939284Y-103119100D01*
X147938236Y-103118383D01*
X147937952Y-103118266D01*
X147937976Y-103118206D01*
X147881609Y-103079661D01*
X147854413Y-103015302D01*
X147866329Y-102946456D01*
X147913574Y-102894981D01*
X147939288Y-102883239D01*
X148038215Y-102851096D01*
X148227557Y-102754620D01*
X148399459Y-102629727D01*
X148399464Y-102629723D01*
X148549723Y-102479464D01*
X148549727Y-102479459D01*
X148674620Y-102307557D01*
X148771095Y-102118217D01*
X148836757Y-101916129D01*
X148836757Y-101916126D01*
X148847231Y-101850000D01*
X147753012Y-101850000D01*
X147785925Y-101792993D01*
X147820000Y-101665826D01*
X147820000Y-101534174D01*
X147785925Y-101407007D01*
X147753012Y-101350000D01*
X148847231Y-101350000D01*
X148836757Y-101283873D01*
X148836757Y-101283870D01*
X148771095Y-101081782D01*
X148674620Y-100892442D01*
X148549727Y-100720540D01*
X148549723Y-100720535D01*
X148399464Y-100570276D01*
X148399459Y-100570272D01*
X148227557Y-100445379D01*
X148038217Y-100348904D01*
X147939287Y-100316760D01*
X147881611Y-100277323D01*
X147854413Y-100212964D01*
X147866328Y-100144118D01*
X147913572Y-100092642D01*
X147939290Y-100080897D01*
X147942445Y-100079873D01*
X148096788Y-100001232D01*
X148236928Y-99899414D01*
X148359414Y-99776928D01*
X148461232Y-99636788D01*
X148539873Y-99482445D01*
X148593402Y-99317701D01*
X148620500Y-99146611D01*
X148620500Y-98973389D01*
X148593402Y-98802299D01*
X148539873Y-98637555D01*
X148461232Y-98483212D01*
X148359414Y-98343072D01*
X148236928Y-98220586D01*
X148096788Y-98118768D01*
X147942445Y-98040127D01*
X147777701Y-97986598D01*
X147777699Y-97986597D01*
X147777698Y-97986597D01*
X147646271Y-97965781D01*
X147606611Y-97959500D01*
X147033389Y-97959500D01*
X146993728Y-97965781D01*
X146862302Y-97986597D01*
X146697552Y-98040128D01*
X146543211Y-98118768D01*
X146488823Y-98158284D01*
X146403072Y-98220586D01*
X146403070Y-98220588D01*
X146403069Y-98220588D01*
X146280588Y-98343069D01*
X146280588Y-98343070D01*
X146280586Y-98343072D01*
X146248589Y-98387112D01*
X146178766Y-98483214D01*
X146160484Y-98519095D01*
X146112510Y-98569890D01*
X146044689Y-98586685D01*
X145978554Y-98564147D01*
X145939516Y-98519095D01*
X145921233Y-98483214D01*
X145921231Y-98483211D01*
X145819414Y-98343072D01*
X145696928Y-98220586D01*
X145556788Y-98118768D01*
X145402445Y-98040127D01*
X145237701Y-97986598D01*
X145237699Y-97986597D01*
X145237698Y-97986597D01*
X145106271Y-97965781D01*
X145066611Y-97959500D01*
X144493389Y-97959500D01*
X144453728Y-97965781D01*
X144322302Y-97986597D01*
X144157552Y-98040128D01*
X144003211Y-98118768D01*
X143948823Y-98158284D01*
X143863072Y-98220586D01*
X143863070Y-98220588D01*
X143863069Y-98220588D01*
X143740588Y-98343069D01*
X143740588Y-98343070D01*
X143740586Y-98343072D01*
X143708589Y-98387112D01*
X143638768Y-98483211D01*
X143560128Y-98637552D01*
X143506597Y-98802302D01*
X143486266Y-98930671D01*
X143479500Y-98973389D01*
X143479500Y-99146611D01*
X143506598Y-99317701D01*
X143560127Y-99482445D01*
X143638768Y-99636788D01*
X143740586Y-99776928D01*
X143863072Y-99899414D01*
X144003212Y-100001232D01*
X144157555Y-100079873D01*
X144160708Y-100080897D01*
X144161752Y-100081611D01*
X144162048Y-100081734D01*
X144162022Y-100081795D01*
X144218383Y-100120330D01*
X144245585Y-100184688D01*
X144233674Y-100253535D01*
X144186433Y-100305013D01*
X144160712Y-100316760D01*
X144061783Y-100348904D01*
X143872442Y-100445379D01*
X143700540Y-100570272D01*
X143700535Y-100570276D01*
X143550276Y-100720535D01*
X143550272Y-100720540D01*
X143425379Y-100892442D01*
X143328904Y-101081782D01*
X143263242Y-101283870D01*
X143263242Y-101283873D01*
X143252769Y-101350000D01*
X128274622Y-101350000D01*
X128273402Y-101342299D01*
X128219873Y-101177555D01*
X128141232Y-101023212D01*
X128039414Y-100883072D01*
X127916928Y-100760586D01*
X127776788Y-100658768D01*
X127622445Y-100580127D01*
X127457701Y-100526598D01*
X127457699Y-100526597D01*
X127457698Y-100526597D01*
X127326271Y-100505781D01*
X127286611Y-100499500D01*
X126713389Y-100499500D01*
X126673728Y-100505781D01*
X126542302Y-100526597D01*
X126377552Y-100580128D01*
X126223211Y-100658768D01*
X126157355Y-100706616D01*
X126083072Y-100760586D01*
X126083070Y-100760588D01*
X126083069Y-100760588D01*
X125960588Y-100883069D01*
X125960588Y-100883070D01*
X125960586Y-100883072D01*
X125938458Y-100913529D01*
X125858766Y-101023214D01*
X125840484Y-101059095D01*
X125792510Y-101109890D01*
X125724689Y-101126685D01*
X125658554Y-101104147D01*
X125619516Y-101059095D01*
X125601233Y-101023214D01*
X125589796Y-101007472D01*
X125499414Y-100883072D01*
X125376928Y-100760586D01*
X125236788Y-100658768D01*
X125082445Y-100580127D01*
X124917701Y-100526598D01*
X124917699Y-100526597D01*
X124917698Y-100526597D01*
X124786271Y-100505781D01*
X124746611Y-100499500D01*
X124173389Y-100499500D01*
X124133728Y-100505781D01*
X124002302Y-100526597D01*
X123837552Y-100580128D01*
X123683211Y-100658768D01*
X123617355Y-100706616D01*
X123543072Y-100760586D01*
X123543070Y-100760588D01*
X123543069Y-100760588D01*
X123420588Y-100883069D01*
X123420588Y-100883070D01*
X123420586Y-100883072D01*
X123398458Y-100913529D01*
X123318768Y-101023211D01*
X123240128Y-101177552D01*
X123186597Y-101342302D01*
X123159500Y-101513389D01*
X117736357Y-101513389D01*
X117725674Y-101411744D01*
X117667179Y-101231716D01*
X117572533Y-101067784D01*
X117518228Y-101007472D01*
X117487998Y-100944480D01*
X117496623Y-100875145D01*
X117541365Y-100821480D01*
X117608017Y-100800522D01*
X117610378Y-100800500D01*
X118171940Y-100800500D01*
X118171943Y-100800500D01*
X118291606Y-100768436D01*
X118332772Y-100744669D01*
X118398894Y-100706494D01*
X118486494Y-100618894D01*
X118486494Y-100618892D01*
X118496698Y-100608689D01*
X118496701Y-100608684D01*
X120131997Y-98973389D01*
X123159500Y-98973389D01*
X123159500Y-99146611D01*
X123186598Y-99317701D01*
X123240127Y-99482445D01*
X123318768Y-99636788D01*
X123420586Y-99776928D01*
X123543072Y-99899414D01*
X123683212Y-100001232D01*
X123837555Y-100079873D01*
X124002299Y-100133402D01*
X124173389Y-100160500D01*
X124173390Y-100160500D01*
X124746610Y-100160500D01*
X124746611Y-100160500D01*
X124917701Y-100133402D01*
X125082445Y-100079873D01*
X125236788Y-100001232D01*
X125376928Y-99899414D01*
X125499414Y-99776928D01*
X125601232Y-99636788D01*
X125619515Y-99600906D01*
X125667489Y-99550109D01*
X125735310Y-99533314D01*
X125801445Y-99555851D01*
X125840485Y-99600906D01*
X125858766Y-99636786D01*
X125873534Y-99657112D01*
X125960586Y-99776928D01*
X126083072Y-99899414D01*
X126223212Y-100001232D01*
X126377555Y-100079873D01*
X126542299Y-100133402D01*
X126713389Y-100160500D01*
X126713390Y-100160500D01*
X127286610Y-100160500D01*
X127286611Y-100160500D01*
X127457701Y-100133402D01*
X127622445Y-100079873D01*
X127776788Y-100001232D01*
X127916928Y-99899414D01*
X128039414Y-99776928D01*
X128141232Y-99636788D01*
X128219873Y-99482445D01*
X128273402Y-99317701D01*
X128300500Y-99146611D01*
X128300500Y-98973389D01*
X128273402Y-98802299D01*
X128219873Y-98637555D01*
X128141232Y-98483212D01*
X128039414Y-98343072D01*
X127916928Y-98220586D01*
X127776788Y-98118768D01*
X127622445Y-98040127D01*
X127457701Y-97986598D01*
X127457699Y-97986597D01*
X127457698Y-97986597D01*
X127326271Y-97965781D01*
X127286611Y-97959500D01*
X126713389Y-97959500D01*
X126673728Y-97965781D01*
X126542302Y-97986597D01*
X126377552Y-98040128D01*
X126223211Y-98118768D01*
X126168823Y-98158284D01*
X126083072Y-98220586D01*
X126083070Y-98220588D01*
X126083069Y-98220588D01*
X125960588Y-98343069D01*
X125960588Y-98343070D01*
X125960586Y-98343072D01*
X125928589Y-98387112D01*
X125858766Y-98483214D01*
X125840484Y-98519095D01*
X125792510Y-98569890D01*
X125724689Y-98586685D01*
X125658554Y-98564147D01*
X125619516Y-98519095D01*
X125601233Y-98483214D01*
X125601231Y-98483211D01*
X125499414Y-98343072D01*
X125376928Y-98220586D01*
X125236788Y-98118768D01*
X125082445Y-98040127D01*
X124917701Y-97986598D01*
X124917699Y-97986597D01*
X124917698Y-97986597D01*
X124786271Y-97965781D01*
X124746611Y-97959500D01*
X124173389Y-97959500D01*
X124133728Y-97965781D01*
X124002302Y-97986597D01*
X123837552Y-98040128D01*
X123683211Y-98118768D01*
X123628823Y-98158284D01*
X123543072Y-98220586D01*
X123543070Y-98220588D01*
X123543069Y-98220588D01*
X123420588Y-98343069D01*
X123420588Y-98343070D01*
X123420586Y-98343072D01*
X123388589Y-98387112D01*
X123318768Y-98483211D01*
X123240128Y-98637552D01*
X123186597Y-98802302D01*
X123166266Y-98930671D01*
X123159500Y-98973389D01*
X120131997Y-98973389D01*
X122078568Y-97026819D01*
X122139891Y-96993334D01*
X122166249Y-96990500D01*
X123188624Y-96990500D01*
X123255663Y-97010185D01*
X123299109Y-97058205D01*
X123318768Y-97096788D01*
X123420586Y-97236928D01*
X123543072Y-97359414D01*
X123683212Y-97461232D01*
X123837555Y-97539873D01*
X124002299Y-97593402D01*
X124173389Y-97620500D01*
X124173390Y-97620500D01*
X124746610Y-97620500D01*
X124746611Y-97620500D01*
X124917701Y-97593402D01*
X125082445Y-97539873D01*
X125236788Y-97461232D01*
X125376928Y-97359414D01*
X125499414Y-97236928D01*
X125601232Y-97096788D01*
X125619515Y-97060906D01*
X125667489Y-97010109D01*
X125735310Y-96993314D01*
X125801445Y-97015851D01*
X125840485Y-97060906D01*
X125858766Y-97096786D01*
X125873534Y-97117112D01*
X125960586Y-97236928D01*
X126083072Y-97359414D01*
X126223212Y-97461232D01*
X126377555Y-97539873D01*
X126542299Y-97593402D01*
X126713389Y-97620500D01*
X126713390Y-97620500D01*
X127286610Y-97620500D01*
X127286611Y-97620500D01*
X127457701Y-97593402D01*
X127622445Y-97539873D01*
X127776788Y-97461232D01*
X127916928Y-97359414D01*
X128039414Y-97236928D01*
X128141232Y-97096788D01*
X128219873Y-96942445D01*
X128273402Y-96777701D01*
X128300500Y-96606611D01*
X128300500Y-96433389D01*
X143479500Y-96433389D01*
X143479500Y-96606610D01*
X143493844Y-96697179D01*
X143506598Y-96777701D01*
X143560127Y-96942445D01*
X143638768Y-97096788D01*
X143740586Y-97236928D01*
X143863072Y-97359414D01*
X144003212Y-97461232D01*
X144157555Y-97539873D01*
X144322299Y-97593402D01*
X144493389Y-97620500D01*
X144493390Y-97620500D01*
X145066610Y-97620500D01*
X145066611Y-97620500D01*
X145237701Y-97593402D01*
X145402445Y-97539873D01*
X145556788Y-97461232D01*
X145696928Y-97359414D01*
X145819414Y-97236928D01*
X145921232Y-97096788D01*
X145939515Y-97060906D01*
X145987489Y-97010109D01*
X146055310Y-96993314D01*
X146121445Y-97015851D01*
X146160485Y-97060906D01*
X146178766Y-97096786D01*
X146193534Y-97117112D01*
X146280586Y-97236928D01*
X146403072Y-97359414D01*
X146543212Y-97461232D01*
X146697555Y-97539873D01*
X146862299Y-97593402D01*
X147033389Y-97620500D01*
X147033390Y-97620500D01*
X147606610Y-97620500D01*
X147606611Y-97620500D01*
X147777701Y-97593402D01*
X147942445Y-97539873D01*
X147950052Y-97535997D01*
X155413034Y-97535997D01*
X155413034Y-97536002D01*
X155432858Y-97762599D01*
X155432860Y-97762610D01*
X155491730Y-97982317D01*
X155491735Y-97982331D01*
X155587863Y-98188478D01*
X155638974Y-98261472D01*
X156318000Y-97582446D01*
X156318000Y-97588661D01*
X156345259Y-97690394D01*
X156397920Y-97781606D01*
X156472394Y-97856080D01*
X156563606Y-97908741D01*
X156665339Y-97936000D01*
X156671553Y-97936000D01*
X155992526Y-98615025D01*
X156065513Y-98666132D01*
X156065521Y-98666136D01*
X156271668Y-98762264D01*
X156271682Y-98762269D01*
X156491389Y-98821139D01*
X156491400Y-98821141D01*
X156717998Y-98840966D01*
X156718002Y-98840966D01*
X156944599Y-98821141D01*
X156944610Y-98821139D01*
X157164317Y-98762269D01*
X157164331Y-98762264D01*
X157370478Y-98666136D01*
X157443471Y-98615024D01*
X156764447Y-97936000D01*
X156770661Y-97936000D01*
X156872394Y-97908741D01*
X156963606Y-97856080D01*
X157038080Y-97781606D01*
X157090741Y-97690394D01*
X157118000Y-97588661D01*
X157118000Y-97582447D01*
X157797024Y-98261471D01*
X157848136Y-98188478D01*
X157944264Y-97982331D01*
X157944269Y-97982317D01*
X158003139Y-97762610D01*
X158003141Y-97762599D01*
X158022966Y-97536002D01*
X158022966Y-97535997D01*
X158003141Y-97309400D01*
X158003139Y-97309389D01*
X157944269Y-97089682D01*
X157944265Y-97089673D01*
X157848134Y-96883517D01*
X157717657Y-96697179D01*
X157705521Y-96685043D01*
X157672036Y-96623720D01*
X157677020Y-96554028D01*
X157693726Y-96528033D01*
X157691815Y-96526756D01*
X157698599Y-96516601D01*
X157698601Y-96516601D01*
X157753966Y-96433740D01*
X157768500Y-96360674D01*
X157768500Y-95598229D01*
X157788185Y-95531190D01*
X157804819Y-95510548D01*
X159564548Y-93750819D01*
X159625871Y-93717334D01*
X159652229Y-93714500D01*
X166697920Y-93714500D01*
X166795462Y-93695096D01*
X166842913Y-93685658D01*
X166979495Y-93629084D01*
X167028729Y-93596186D01*
X167085627Y-93558170D01*
X167102415Y-93546953D01*
X167102416Y-93546952D01*
X170962549Y-89686819D01*
X171023872Y-89653334D01*
X171050230Y-89650500D01*
X171169209Y-89650500D01*
X171236248Y-89670185D01*
X171282003Y-89722989D01*
X171285391Y-89731167D01*
X171308202Y-89792328D01*
X171308206Y-89792335D01*
X171394452Y-89907544D01*
X171394455Y-89907547D01*
X171509664Y-89993793D01*
X171509671Y-89993797D01*
X171644517Y-90044091D01*
X171644516Y-90044091D01*
X171651444Y-90044835D01*
X171704127Y-90050500D01*
X173799872Y-90050499D01*
X173859483Y-90044091D01*
X173994331Y-89993796D01*
X174109546Y-89907546D01*
X174195796Y-89792331D01*
X174246091Y-89657483D01*
X174252500Y-89597873D01*
X174252499Y-88202128D01*
X174246091Y-88142517D01*
X174228166Y-88094458D01*
X174195797Y-88007671D01*
X174195793Y-88007664D01*
X174109547Y-87892455D01*
X174109544Y-87892452D01*
X173994335Y-87806206D01*
X173994328Y-87806202D01*
X173859482Y-87755908D01*
X173859483Y-87755908D01*
X173799883Y-87749501D01*
X173799881Y-87749500D01*
X173799873Y-87749500D01*
X173799864Y-87749500D01*
X171704129Y-87749500D01*
X171704123Y-87749501D01*
X171644516Y-87755908D01*
X171509671Y-87806202D01*
X171509664Y-87806206D01*
X171394455Y-87892452D01*
X171394452Y-87892455D01*
X171308206Y-88007664D01*
X171308202Y-88007671D01*
X171285391Y-88068833D01*
X171243520Y-88124767D01*
X171178056Y-88149184D01*
X171169209Y-88149500D01*
X170614080Y-88149500D01*
X170469092Y-88178340D01*
X170469086Y-88178342D01*
X170332508Y-88234914D01*
X170332496Y-88234921D01*
X170283269Y-88267813D01*
X170209588Y-88317044D01*
X170209580Y-88317050D01*
X166349451Y-92177181D01*
X166288128Y-92210666D01*
X166261770Y-92213500D01*
X159216080Y-92213500D01*
X159071092Y-92242340D01*
X159071082Y-92242343D01*
X158934511Y-92298912D01*
X158934498Y-92298919D01*
X158811584Y-92381048D01*
X158811580Y-92381051D01*
X156743451Y-94449181D01*
X156682128Y-94482666D01*
X156655770Y-94485500D01*
X155893323Y-94485500D01*
X155820264Y-94500032D01*
X155820260Y-94500033D01*
X155737399Y-94555399D01*
X155682033Y-94638260D01*
X155682032Y-94638264D01*
X155667500Y-94711321D01*
X155667500Y-96360678D01*
X155682032Y-96433735D01*
X155682033Y-96433739D01*
X155682034Y-96433740D01*
X155737399Y-96516601D01*
X155737400Y-96516601D01*
X155744185Y-96526756D01*
X155740973Y-96528901D01*
X155763963Y-96571003D01*
X155758979Y-96640695D01*
X155730481Y-96685039D01*
X155718341Y-96697178D01*
X155587866Y-96883517D01*
X155491734Y-97089673D01*
X155491730Y-97089682D01*
X155432860Y-97309389D01*
X155432858Y-97309400D01*
X155413034Y-97535997D01*
X147950052Y-97535997D01*
X148096788Y-97461232D01*
X148236928Y-97359414D01*
X148359414Y-97236928D01*
X148461232Y-97096788D01*
X148539873Y-96942445D01*
X148593402Y-96777701D01*
X148620500Y-96606611D01*
X148620500Y-96433389D01*
X148593402Y-96262299D01*
X148539873Y-96097555D01*
X148461232Y-95943212D01*
X148359414Y-95803072D01*
X148236928Y-95680586D01*
X148096788Y-95578768D01*
X147942445Y-95500127D01*
X147777701Y-95446598D01*
X147777699Y-95446597D01*
X147777698Y-95446597D01*
X147646271Y-95425781D01*
X147606611Y-95419500D01*
X147033389Y-95419500D01*
X146993728Y-95425781D01*
X146862302Y-95446597D01*
X146697552Y-95500128D01*
X146543211Y-95578768D01*
X146403069Y-95680588D01*
X146280588Y-95803069D01*
X146280588Y-95803070D01*
X146280586Y-95803072D01*
X146248590Y-95847111D01*
X146178766Y-95943214D01*
X146160484Y-95979095D01*
X146112510Y-96029890D01*
X146044689Y-96046685D01*
X145978554Y-96024147D01*
X145939516Y-95979095D01*
X145921233Y-95943214D01*
X145918024Y-95938797D01*
X145819414Y-95803072D01*
X145696928Y-95680586D01*
X145556788Y-95578768D01*
X145402445Y-95500127D01*
X145237701Y-95446598D01*
X145237699Y-95446597D01*
X145237698Y-95446597D01*
X145106271Y-95425781D01*
X145066611Y-95419500D01*
X144493389Y-95419500D01*
X144453728Y-95425781D01*
X144322302Y-95446597D01*
X144157552Y-95500128D01*
X144003211Y-95578768D01*
X143863069Y-95680588D01*
X143740588Y-95803069D01*
X143740588Y-95803070D01*
X143740586Y-95803072D01*
X143708590Y-95847111D01*
X143638768Y-95943211D01*
X143560128Y-96097552D01*
X143560127Y-96097554D01*
X143560127Y-96097555D01*
X143542529Y-96151715D01*
X143506597Y-96262302D01*
X143479500Y-96433389D01*
X128300500Y-96433389D01*
X128273402Y-96262299D01*
X128219873Y-96097555D01*
X128141232Y-95943212D01*
X128122467Y-95917385D01*
X128098988Y-95851580D01*
X128114813Y-95783526D01*
X128164919Y-95734831D01*
X128222786Y-95720500D01*
X128331940Y-95720500D01*
X128331943Y-95720500D01*
X128451606Y-95688436D01*
X128465200Y-95680588D01*
X128465207Y-95680584D01*
X128518180Y-95650000D01*
X128558894Y-95626494D01*
X128646494Y-95538894D01*
X128646494Y-95538892D01*
X128656698Y-95528689D01*
X128656701Y-95528684D01*
X129916494Y-94268894D01*
X129978436Y-94161606D01*
X130010500Y-94041943D01*
X130010500Y-93918058D01*
X130010500Y-93893389D01*
X143479500Y-93893389D01*
X143479500Y-94066611D01*
X143506598Y-94237701D01*
X143560127Y-94402445D01*
X143638768Y-94556788D01*
X143740586Y-94696928D01*
X143863072Y-94819414D01*
X144003212Y-94921232D01*
X144157555Y-94999873D01*
X144322299Y-95053402D01*
X144493389Y-95080500D01*
X144493390Y-95080500D01*
X145066610Y-95080500D01*
X145066611Y-95080500D01*
X145237701Y-95053402D01*
X145402445Y-94999873D01*
X145556788Y-94921232D01*
X145696928Y-94819414D01*
X145819414Y-94696928D01*
X145921232Y-94556788D01*
X145939515Y-94520906D01*
X145987489Y-94470109D01*
X146055310Y-94453314D01*
X146121445Y-94475851D01*
X146160485Y-94520906D01*
X146178766Y-94556786D01*
X146191489Y-94574297D01*
X146280586Y-94696928D01*
X146403072Y-94819414D01*
X146543212Y-94921232D01*
X146697555Y-94999873D01*
X146862299Y-95053402D01*
X147033389Y-95080500D01*
X147033390Y-95080500D01*
X147606610Y-95080500D01*
X147606611Y-95080500D01*
X147777701Y-95053402D01*
X147942445Y-94999873D01*
X148096788Y-94921232D01*
X148236928Y-94819414D01*
X148359414Y-94696928D01*
X148461232Y-94556788D01*
X148539873Y-94402445D01*
X148593402Y-94237701D01*
X148620500Y-94066611D01*
X148620500Y-93893389D01*
X148593402Y-93722299D01*
X148539873Y-93557555D01*
X148461232Y-93403212D01*
X148359414Y-93263072D01*
X148236928Y-93140586D01*
X148096788Y-93038768D01*
X147942445Y-92960127D01*
X147777701Y-92906598D01*
X147777699Y-92906597D01*
X147777698Y-92906597D01*
X147646271Y-92885781D01*
X147606611Y-92879500D01*
X147033389Y-92879500D01*
X146993728Y-92885781D01*
X146862302Y-92906597D01*
X146697552Y-92960128D01*
X146543211Y-93038768D01*
X146496287Y-93072861D01*
X146403072Y-93140586D01*
X146403070Y-93140588D01*
X146403069Y-93140588D01*
X146280588Y-93263069D01*
X146280588Y-93263070D01*
X146280586Y-93263072D01*
X146237665Y-93322147D01*
X146178766Y-93403214D01*
X146160484Y-93439095D01*
X146112510Y-93489890D01*
X146044689Y-93506685D01*
X145978554Y-93484147D01*
X145939516Y-93439095D01*
X145921233Y-93403214D01*
X145902468Y-93377386D01*
X145819414Y-93263072D01*
X145696928Y-93140586D01*
X145556788Y-93038768D01*
X145402445Y-92960127D01*
X145237701Y-92906598D01*
X145237699Y-92906597D01*
X145237698Y-92906597D01*
X145106271Y-92885781D01*
X145066611Y-92879500D01*
X144493389Y-92879500D01*
X144453728Y-92885781D01*
X144322302Y-92906597D01*
X144157552Y-92960128D01*
X144003211Y-93038768D01*
X143956287Y-93072861D01*
X143863072Y-93140586D01*
X143863070Y-93140588D01*
X143863069Y-93140588D01*
X143740588Y-93263069D01*
X143740588Y-93263070D01*
X143740586Y-93263072D01*
X143697665Y-93322147D01*
X143638768Y-93403211D01*
X143560128Y-93557552D01*
X143506597Y-93722302D01*
X143496649Y-93785112D01*
X143479500Y-93893389D01*
X130010500Y-93893389D01*
X130010500Y-91353389D01*
X143479500Y-91353389D01*
X143479500Y-91526610D01*
X143489695Y-91590983D01*
X143506598Y-91697701D01*
X143559112Y-91859322D01*
X143560128Y-91862447D01*
X143586046Y-91913314D01*
X143638768Y-92016788D01*
X143740586Y-92156928D01*
X143863072Y-92279414D01*
X144003212Y-92381232D01*
X144157555Y-92459873D01*
X144322299Y-92513402D01*
X144493389Y-92540500D01*
X144493390Y-92540500D01*
X145066610Y-92540500D01*
X145066611Y-92540500D01*
X145237701Y-92513402D01*
X145402445Y-92459873D01*
X145556788Y-92381232D01*
X145696928Y-92279414D01*
X145819414Y-92156928D01*
X145921232Y-92016788D01*
X145930257Y-91999075D01*
X145939515Y-91980906D01*
X145987489Y-91930109D01*
X146055310Y-91913314D01*
X146121445Y-91935851D01*
X146160485Y-91980906D01*
X146178766Y-92016786D01*
X146197532Y-92042614D01*
X146280586Y-92156928D01*
X146403072Y-92279414D01*
X146543212Y-92381232D01*
X146697555Y-92459873D01*
X146862299Y-92513402D01*
X147033389Y-92540500D01*
X147033390Y-92540500D01*
X147606610Y-92540500D01*
X147606611Y-92540500D01*
X147777701Y-92513402D01*
X147942445Y-92459873D01*
X148096788Y-92381232D01*
X148236928Y-92279414D01*
X148359414Y-92156928D01*
X148461232Y-92016788D01*
X148539873Y-91862445D01*
X148593402Y-91697701D01*
X148620500Y-91526611D01*
X148620500Y-91353389D01*
X148593402Y-91182299D01*
X148539873Y-91017555D01*
X148461232Y-90863212D01*
X148359414Y-90723072D01*
X148236928Y-90600586D01*
X148096788Y-90498768D01*
X147942445Y-90420127D01*
X147777701Y-90366598D01*
X147777699Y-90366597D01*
X147777698Y-90366597D01*
X147646271Y-90345781D01*
X147606611Y-90339500D01*
X147033389Y-90339500D01*
X146993728Y-90345781D01*
X146862302Y-90366597D01*
X146697552Y-90420128D01*
X146543211Y-90498768D01*
X146476396Y-90547313D01*
X146403072Y-90600586D01*
X146403070Y-90600588D01*
X146403069Y-90600588D01*
X146280588Y-90723069D01*
X146280588Y-90723070D01*
X146280586Y-90723072D01*
X146263053Y-90747204D01*
X146178766Y-90863214D01*
X146160484Y-90899095D01*
X146112510Y-90949890D01*
X146044689Y-90966685D01*
X145978554Y-90944147D01*
X145939516Y-90899095D01*
X145921233Y-90863214D01*
X145914636Y-90854134D01*
X145819414Y-90723072D01*
X145696928Y-90600586D01*
X145556788Y-90498768D01*
X145402445Y-90420127D01*
X145237701Y-90366598D01*
X145237699Y-90366597D01*
X145237698Y-90366597D01*
X145106271Y-90345781D01*
X145066611Y-90339500D01*
X144493389Y-90339500D01*
X144453728Y-90345781D01*
X144322302Y-90366597D01*
X144157552Y-90420128D01*
X144003211Y-90498768D01*
X143936396Y-90547313D01*
X143863072Y-90600586D01*
X143863070Y-90600588D01*
X143863069Y-90600588D01*
X143740588Y-90723069D01*
X143740588Y-90723070D01*
X143740586Y-90723072D01*
X143723053Y-90747204D01*
X143638768Y-90863211D01*
X143560128Y-91017552D01*
X143506597Y-91182302D01*
X143479500Y-91353389D01*
X130010500Y-91353389D01*
X130010500Y-88813389D01*
X143479500Y-88813389D01*
X143479500Y-88986611D01*
X143506598Y-89157701D01*
X143560127Y-89322445D01*
X143638768Y-89476788D01*
X143740586Y-89616928D01*
X143863072Y-89739414D01*
X144003212Y-89841232D01*
X144157555Y-89919873D01*
X144322299Y-89973402D01*
X144493389Y-90000500D01*
X144493390Y-90000500D01*
X145066610Y-90000500D01*
X145066611Y-90000500D01*
X145237701Y-89973402D01*
X145402445Y-89919873D01*
X145556788Y-89841232D01*
X145696928Y-89739414D01*
X145819414Y-89616928D01*
X145921232Y-89476788D01*
X145939515Y-89440906D01*
X145987489Y-89390109D01*
X146055310Y-89373314D01*
X146121445Y-89395851D01*
X146160485Y-89440906D01*
X146178766Y-89476786D01*
X146209357Y-89518890D01*
X146280586Y-89616928D01*
X146403072Y-89739414D01*
X146543212Y-89841232D01*
X146697555Y-89919873D01*
X146862299Y-89973402D01*
X147033389Y-90000500D01*
X147033390Y-90000500D01*
X147606610Y-90000500D01*
X147606611Y-90000500D01*
X147777701Y-89973402D01*
X147942445Y-89919873D01*
X148096788Y-89841232D01*
X148236928Y-89739414D01*
X148359414Y-89616928D01*
X148461232Y-89476788D01*
X148539873Y-89322445D01*
X148593402Y-89157701D01*
X148620500Y-88986611D01*
X148620500Y-88891321D01*
X156785000Y-88891321D01*
X156785000Y-90940678D01*
X156799532Y-91013735D01*
X156799533Y-91013739D01*
X156804177Y-91020689D01*
X156854899Y-91096601D01*
X156915179Y-91136878D01*
X156937760Y-91151966D01*
X156937764Y-91151967D01*
X157010821Y-91166499D01*
X157010824Y-91166500D01*
X157010826Y-91166500D01*
X158965176Y-91166500D01*
X158965177Y-91166499D01*
X159038240Y-91151966D01*
X159121101Y-91096601D01*
X159176466Y-91013740D01*
X159180711Y-90992398D01*
X159189766Y-90946880D01*
X159222151Y-90884969D01*
X159282866Y-90850395D01*
X159352636Y-90854134D01*
X159409308Y-90895001D01*
X159411703Y-90898188D01*
X159420096Y-90909741D01*
X159581757Y-91071402D01*
X159766723Y-91205788D01*
X159970429Y-91309582D01*
X160187871Y-91380234D01*
X160278000Y-91394509D01*
X160278000Y-90406747D01*
X160315708Y-90428518D01*
X160455591Y-90466000D01*
X160600409Y-90466000D01*
X160740292Y-90428518D01*
X160778000Y-90406747D01*
X160778000Y-91394508D01*
X160868128Y-91380234D01*
X161085570Y-91309582D01*
X161289276Y-91205788D01*
X161474242Y-91071402D01*
X161635902Y-90909742D01*
X161770290Y-90724774D01*
X161828396Y-90610734D01*
X161876370Y-90559937D01*
X161944191Y-90543142D01*
X162010326Y-90565679D01*
X162039199Y-90594143D01*
X162134108Y-90724774D01*
X162150403Y-90747202D01*
X162284298Y-90881097D01*
X162437491Y-90992398D01*
X162493015Y-91020689D01*
X162606207Y-91078364D01*
X162606210Y-91078365D01*
X162662333Y-91096600D01*
X162786297Y-91136878D01*
X162973322Y-91166500D01*
X162973323Y-91166500D01*
X163162677Y-91166500D01*
X163162678Y-91166500D01*
X163349703Y-91136878D01*
X163529792Y-91078364D01*
X163698509Y-90992398D01*
X163851702Y-90881097D01*
X163985597Y-90747202D01*
X164096898Y-90594009D01*
X164182864Y-90425292D01*
X164241378Y-90245203D01*
X164271000Y-90058178D01*
X164271000Y-89773822D01*
X164241378Y-89586797D01*
X164182864Y-89406708D01*
X164182864Y-89406707D01*
X164121615Y-89286501D01*
X164096898Y-89237991D01*
X163985597Y-89084798D01*
X163851702Y-88950903D01*
X163698509Y-88839602D01*
X163529792Y-88753635D01*
X163529789Y-88753634D01*
X163349704Y-88695122D01*
X163254429Y-88680032D01*
X163162678Y-88665500D01*
X162973322Y-88665500D01*
X162910980Y-88675374D01*
X162786295Y-88695122D01*
X162606210Y-88753634D01*
X162606207Y-88753635D01*
X162437490Y-88839602D01*
X162284295Y-88950905D01*
X162150405Y-89084795D01*
X162150405Y-89084796D01*
X162150403Y-89084798D01*
X162097439Y-89157697D01*
X162039199Y-89237857D01*
X161983869Y-89280522D01*
X161914255Y-89286501D01*
X161852460Y-89253895D01*
X161828396Y-89221266D01*
X161770288Y-89107223D01*
X161635902Y-88922257D01*
X161474242Y-88760597D01*
X161289276Y-88626211D01*
X161085568Y-88522417D01*
X160868124Y-88451765D01*
X160778000Y-88437490D01*
X160778000Y-89425252D01*
X160740292Y-89403482D01*
X160600409Y-89366000D01*
X160455591Y-89366000D01*
X160315708Y-89403482D01*
X160278000Y-89425252D01*
X160278000Y-88437490D01*
X160277999Y-88437490D01*
X160187875Y-88451765D01*
X159970431Y-88522417D01*
X159766723Y-88626211D01*
X159581757Y-88760597D01*
X159420097Y-88922257D01*
X159420090Y-88922266D01*
X159411700Y-88933814D01*
X159356370Y-88976480D01*
X159286757Y-88982458D01*
X159224962Y-88949852D01*
X159190605Y-88889012D01*
X159189766Y-88885119D01*
X159176467Y-88818264D01*
X159176466Y-88818260D01*
X159133286Y-88753636D01*
X159121101Y-88735399D01*
X159038240Y-88680034D01*
X159038239Y-88680033D01*
X159038235Y-88680032D01*
X158965177Y-88665500D01*
X158965174Y-88665500D01*
X157010826Y-88665500D01*
X157010823Y-88665500D01*
X156937764Y-88680032D01*
X156937760Y-88680033D01*
X156854899Y-88735399D01*
X156799533Y-88818260D01*
X156799532Y-88818264D01*
X156785000Y-88891321D01*
X148620500Y-88891321D01*
X148620500Y-88813389D01*
X148593402Y-88642299D01*
X148539873Y-88477555D01*
X148461232Y-88323212D01*
X148359414Y-88183072D01*
X148236928Y-88060586D01*
X148096788Y-87958768D01*
X147942445Y-87880127D01*
X147777701Y-87826598D01*
X147777699Y-87826597D01*
X147777698Y-87826597D01*
X147646271Y-87805781D01*
X147606611Y-87799500D01*
X147033389Y-87799500D01*
X146993728Y-87805781D01*
X146862302Y-87826597D01*
X146697552Y-87880128D01*
X146543211Y-87958768D01*
X146475906Y-88007669D01*
X146403072Y-88060586D01*
X146403070Y-88060588D01*
X146403069Y-88060588D01*
X146280588Y-88183069D01*
X146280588Y-88183070D01*
X146280586Y-88183072D01*
X146229677Y-88253142D01*
X146178766Y-88323214D01*
X146160484Y-88359095D01*
X146112510Y-88409890D01*
X146044689Y-88426685D01*
X145978554Y-88404147D01*
X145939516Y-88359095D01*
X145921233Y-88323214D01*
X145916755Y-88317050D01*
X145819414Y-88183072D01*
X145696928Y-88060586D01*
X145556788Y-87958768D01*
X145402445Y-87880127D01*
X145237701Y-87826598D01*
X145237699Y-87826597D01*
X145237698Y-87826597D01*
X145106271Y-87805781D01*
X145066611Y-87799500D01*
X144493389Y-87799500D01*
X144453728Y-87805781D01*
X144322302Y-87826597D01*
X144157552Y-87880128D01*
X144003211Y-87958768D01*
X143935906Y-88007669D01*
X143863072Y-88060586D01*
X143863070Y-88060588D01*
X143863069Y-88060588D01*
X143740588Y-88183069D01*
X143740588Y-88183070D01*
X143740586Y-88183072D01*
X143702919Y-88234916D01*
X143638768Y-88323211D01*
X143560128Y-88477552D01*
X143506597Y-88642302D01*
X143491852Y-88735399D01*
X143479500Y-88813389D01*
X130010500Y-88813389D01*
X130010500Y-87568057D01*
X129978436Y-87448394D01*
X129916494Y-87341106D01*
X129828894Y-87253506D01*
X129828893Y-87253505D01*
X128848776Y-86273389D01*
X143479500Y-86273389D01*
X143479500Y-86446610D01*
X143506050Y-86614246D01*
X143506598Y-86617701D01*
X143560127Y-86782445D01*
X143638768Y-86936788D01*
X143740586Y-87076928D01*
X143863072Y-87199414D01*
X144003212Y-87301232D01*
X144157555Y-87379873D01*
X144322299Y-87433402D01*
X144493389Y-87460500D01*
X144493390Y-87460500D01*
X145066610Y-87460500D01*
X145066611Y-87460500D01*
X145237701Y-87433402D01*
X145402445Y-87379873D01*
X145556788Y-87301232D01*
X145696928Y-87199414D01*
X145819414Y-87076928D01*
X145921232Y-86936788D01*
X145939515Y-86900906D01*
X145987489Y-86850109D01*
X146055310Y-86833314D01*
X146121445Y-86855851D01*
X146160485Y-86900906D01*
X146178766Y-86936786D01*
X146209357Y-86978890D01*
X146280586Y-87076928D01*
X146403072Y-87199414D01*
X146543212Y-87301232D01*
X146697555Y-87379873D01*
X146862299Y-87433402D01*
X147033389Y-87460500D01*
X147033390Y-87460500D01*
X147606610Y-87460500D01*
X147606611Y-87460500D01*
X147777701Y-87433402D01*
X147942445Y-87379873D01*
X148096788Y-87301232D01*
X148236928Y-87199414D01*
X148359414Y-87076928D01*
X148461232Y-86936788D01*
X148539873Y-86782445D01*
X148593402Y-86617701D01*
X148620500Y-86446611D01*
X148620500Y-86273389D01*
X148593402Y-86102299D01*
X148539873Y-85937555D01*
X148461232Y-85783212D01*
X148359414Y-85643072D01*
X148236928Y-85520586D01*
X148096788Y-85418768D01*
X147942445Y-85340127D01*
X147777701Y-85286598D01*
X147777699Y-85286597D01*
X147777698Y-85286597D01*
X147646271Y-85265781D01*
X147606611Y-85259500D01*
X147033389Y-85259500D01*
X146993728Y-85265781D01*
X146862302Y-85286597D01*
X146697552Y-85340128D01*
X146543211Y-85418768D01*
X146510948Y-85442209D01*
X146403072Y-85520586D01*
X146403070Y-85520588D01*
X146403069Y-85520588D01*
X146280588Y-85643069D01*
X146280588Y-85643070D01*
X146280586Y-85643072D01*
X146268303Y-85659978D01*
X146178766Y-85783214D01*
X146160484Y-85819095D01*
X146112510Y-85869890D01*
X146044689Y-85886685D01*
X145978554Y-85864147D01*
X145939516Y-85819095D01*
X145921233Y-85783214D01*
X145921231Y-85783211D01*
X145819414Y-85643072D01*
X145696928Y-85520586D01*
X145556788Y-85418768D01*
X145402445Y-85340127D01*
X145237701Y-85286598D01*
X145237699Y-85286597D01*
X145237698Y-85286597D01*
X145106271Y-85265781D01*
X145066611Y-85259500D01*
X144493389Y-85259500D01*
X144453728Y-85265781D01*
X144322302Y-85286597D01*
X144157552Y-85340128D01*
X144003211Y-85418768D01*
X143970948Y-85442209D01*
X143863072Y-85520586D01*
X143863070Y-85520588D01*
X143863069Y-85520588D01*
X143740588Y-85643069D01*
X143740588Y-85643070D01*
X143740586Y-85643072D01*
X143728303Y-85659978D01*
X143638768Y-85783211D01*
X143560128Y-85937552D01*
X143560127Y-85937554D01*
X143560127Y-85937555D01*
X143545196Y-85983507D01*
X143506597Y-86102302D01*
X143479500Y-86273389D01*
X128848776Y-86273389D01*
X128653563Y-86078176D01*
X128653562Y-86078174D01*
X128558895Y-85983507D01*
X128558894Y-85983506D01*
X128451606Y-85921564D01*
X128451607Y-85921564D01*
X128421690Y-85913548D01*
X128331943Y-85889500D01*
X128331940Y-85889500D01*
X128271376Y-85889500D01*
X128204337Y-85869815D01*
X128160891Y-85821795D01*
X128141231Y-85783211D01*
X128121379Y-85755887D01*
X128039414Y-85643072D01*
X127916928Y-85520586D01*
X127776788Y-85418768D01*
X127622445Y-85340127D01*
X127457701Y-85286598D01*
X127457699Y-85286597D01*
X127457698Y-85286597D01*
X127326271Y-85265781D01*
X127286611Y-85259500D01*
X126713389Y-85259500D01*
X126673728Y-85265781D01*
X126542302Y-85286597D01*
X126377552Y-85340128D01*
X126223211Y-85418768D01*
X126190948Y-85442209D01*
X126083072Y-85520586D01*
X126083070Y-85520588D01*
X126083069Y-85520588D01*
X125972181Y-85631477D01*
X125910858Y-85664962D01*
X125841166Y-85659978D01*
X125785233Y-85618106D01*
X125760816Y-85552642D01*
X125760500Y-85543796D01*
X125760500Y-85485323D01*
X125760499Y-85485321D01*
X125745967Y-85412264D01*
X125745966Y-85412260D01*
X125690601Y-85329399D01*
X125607740Y-85274034D01*
X125607739Y-85274033D01*
X125607735Y-85274032D01*
X125534677Y-85259500D01*
X125534674Y-85259500D01*
X123385326Y-85259500D01*
X123385323Y-85259500D01*
X123312264Y-85274032D01*
X123312260Y-85274033D01*
X123229399Y-85329399D01*
X123174033Y-85412260D01*
X123174032Y-85412264D01*
X123159500Y-85485321D01*
X123159500Y-87234678D01*
X123174032Y-87307735D01*
X123174033Y-87307739D01*
X123174034Y-87307740D01*
X123229399Y-87390601D01*
X123312260Y-87445966D01*
X123312264Y-87445967D01*
X123385321Y-87460499D01*
X123385324Y-87460500D01*
X123385326Y-87460500D01*
X125534676Y-87460500D01*
X125534677Y-87460499D01*
X125607740Y-87445966D01*
X125690601Y-87390601D01*
X125745966Y-87307740D01*
X125760500Y-87234674D01*
X125760500Y-87176204D01*
X125780185Y-87109165D01*
X125832989Y-87063410D01*
X125902147Y-87053466D01*
X125965703Y-87082491D01*
X125972181Y-87088523D01*
X126083072Y-87199414D01*
X126223212Y-87301232D01*
X126377555Y-87379873D01*
X126542299Y-87433402D01*
X126713389Y-87460500D01*
X126713390Y-87460500D01*
X127286610Y-87460500D01*
X127286611Y-87460500D01*
X127457701Y-87433402D01*
X127622445Y-87379873D01*
X127776788Y-87301232D01*
X127916928Y-87199414D01*
X128039414Y-87076928D01*
X128072798Y-87030977D01*
X128128125Y-86988313D01*
X128197739Y-86982333D01*
X128259534Y-87014939D01*
X128260796Y-87016183D01*
X129033181Y-87788568D01*
X129066666Y-87849891D01*
X129069500Y-87876249D01*
X129069500Y-93733750D01*
X129049815Y-93800789D01*
X129033181Y-93821431D01*
X128473286Y-94381326D01*
X128411963Y-94414811D01*
X128342271Y-94409827D01*
X128286338Y-94367955D01*
X128261921Y-94302491D01*
X128267674Y-94255328D01*
X128273402Y-94237701D01*
X128300500Y-94066611D01*
X128300500Y-93893389D01*
X128273402Y-93722299D01*
X128219873Y-93557555D01*
X128141232Y-93403212D01*
X128039414Y-93263072D01*
X127916928Y-93140586D01*
X127776788Y-93038768D01*
X127622445Y-92960127D01*
X127457701Y-92906598D01*
X127457699Y-92906597D01*
X127457698Y-92906597D01*
X127326271Y-92885781D01*
X127286611Y-92879500D01*
X126713389Y-92879500D01*
X126661760Y-92887677D01*
X126542303Y-92906597D01*
X126542300Y-92906597D01*
X126542299Y-92906598D01*
X126524667Y-92912327D01*
X126454827Y-92914321D01*
X126394995Y-92878239D01*
X126364168Y-92815538D01*
X126372133Y-92746124D01*
X126398668Y-92706717D01*
X126540517Y-92564868D01*
X126601838Y-92531385D01*
X126647589Y-92530078D01*
X126713389Y-92540500D01*
X126713391Y-92540500D01*
X127286610Y-92540500D01*
X127286611Y-92540500D01*
X127457701Y-92513402D01*
X127622445Y-92459873D01*
X127776788Y-92381232D01*
X127916928Y-92279414D01*
X128039414Y-92156928D01*
X128141232Y-92016788D01*
X128219873Y-91862445D01*
X128273402Y-91697701D01*
X128300500Y-91526611D01*
X128300500Y-91353389D01*
X128273402Y-91182299D01*
X128219873Y-91017555D01*
X128141232Y-90863212D01*
X128039414Y-90723072D01*
X127916928Y-90600586D01*
X127776788Y-90498768D01*
X127622445Y-90420127D01*
X127457701Y-90366598D01*
X127457699Y-90366597D01*
X127457698Y-90366597D01*
X127326271Y-90345781D01*
X127286611Y-90339500D01*
X126713389Y-90339500D01*
X126673728Y-90345781D01*
X126542302Y-90366597D01*
X126377552Y-90420128D01*
X126223211Y-90498768D01*
X126156396Y-90547313D01*
X126083072Y-90600586D01*
X126083070Y-90600588D01*
X126083069Y-90600588D01*
X125960588Y-90723069D01*
X125960588Y-90723070D01*
X125960586Y-90723072D01*
X125943053Y-90747204D01*
X125858766Y-90863214D01*
X125840484Y-90899095D01*
X125792510Y-90949890D01*
X125724689Y-90966685D01*
X125658554Y-90944147D01*
X125619516Y-90899095D01*
X125601233Y-90863214D01*
X125594636Y-90854134D01*
X125499414Y-90723072D01*
X125376928Y-90600586D01*
X125236788Y-90498768D01*
X125082445Y-90420127D01*
X124917701Y-90366598D01*
X124917699Y-90366597D01*
X124917698Y-90366597D01*
X124786271Y-90345781D01*
X124746611Y-90339500D01*
X124173389Y-90339500D01*
X124133728Y-90345781D01*
X124002302Y-90366597D01*
X123837552Y-90420128D01*
X123683211Y-90498768D01*
X123616396Y-90547313D01*
X123543072Y-90600586D01*
X123543070Y-90600588D01*
X123543069Y-90600588D01*
X123420588Y-90723069D01*
X123420588Y-90723070D01*
X123420586Y-90723072D01*
X123403053Y-90747204D01*
X123318768Y-90863211D01*
X123240128Y-91017552D01*
X123186597Y-91182302D01*
X123159500Y-91353389D01*
X123159500Y-91526610D01*
X123169695Y-91590983D01*
X123186598Y-91697701D01*
X123239112Y-91859322D01*
X123240128Y-91862447D01*
X123318768Y-92016788D01*
X123337532Y-92042614D01*
X123361012Y-92108420D01*
X123345187Y-92176474D01*
X123295081Y-92225169D01*
X123237214Y-92239500D01*
X122810557Y-92239500D01*
X122720809Y-92263548D01*
X122690893Y-92271564D01*
X122583607Y-92333505D01*
X122583604Y-92333507D01*
X117839159Y-97077953D01*
X117777836Y-97111438D01*
X117708144Y-97106454D01*
X117652211Y-97064582D01*
X117627794Y-96999118D01*
X117642646Y-96930845D01*
X117644036Y-96928367D01*
X117667179Y-96888284D01*
X117725674Y-96708256D01*
X117745460Y-96520000D01*
X117725674Y-96331744D01*
X117667179Y-96151716D01*
X117572533Y-95987784D01*
X117445871Y-95847112D01*
X117445870Y-95847111D01*
X117292734Y-95735851D01*
X117292729Y-95735848D01*
X117119807Y-95658857D01*
X117119802Y-95658855D01*
X116967541Y-95626492D01*
X116934646Y-95619500D01*
X116745354Y-95619500D01*
X116712897Y-95626398D01*
X116560197Y-95658855D01*
X116560192Y-95658857D01*
X116387270Y-95735848D01*
X116387265Y-95735851D01*
X116234129Y-95847111D01*
X116107466Y-95987785D01*
X116012821Y-96151715D01*
X116012818Y-96151722D01*
X115957226Y-96322819D01*
X115954326Y-96331744D01*
X115934540Y-96520000D01*
X115954326Y-96708256D01*
X115954327Y-96708259D01*
X116012818Y-96888277D01*
X116012821Y-96888284D01*
X116107464Y-97052212D01*
X116107465Y-97052214D01*
X116107467Y-97052216D01*
X116172874Y-97124858D01*
X116203103Y-97187847D01*
X116194478Y-97257182D01*
X116149737Y-97310848D01*
X116112817Y-97327603D01*
X116023393Y-97351564D01*
X115916107Y-97413505D01*
X115916104Y-97413507D01*
X115828504Y-97501108D01*
X115413818Y-97915793D01*
X115352495Y-97949278D01*
X115282803Y-97944294D01*
X115226870Y-97902422D01*
X115202453Y-97836958D01*
X115202815Y-97815157D01*
X115205460Y-97790000D01*
X115185674Y-97601744D01*
X115127179Y-97421716D01*
X115032533Y-97257784D01*
X114905871Y-97117112D01*
X114905870Y-97117111D01*
X114752734Y-97005851D01*
X114752729Y-97005848D01*
X114579807Y-96928857D01*
X114579802Y-96928855D01*
X114434001Y-96897865D01*
X114394646Y-96889500D01*
X114205354Y-96889500D01*
X114172897Y-96896398D01*
X114020197Y-96928855D01*
X114020192Y-96928857D01*
X113847270Y-97005848D01*
X113847265Y-97005851D01*
X113694129Y-97117111D01*
X113567466Y-97257785D01*
X113472821Y-97421715D01*
X113472818Y-97421722D01*
X113434429Y-97539873D01*
X113414326Y-97601744D01*
X113394540Y-97790000D01*
X112260500Y-97790000D01*
X112260500Y-94552155D01*
X113150000Y-94552155D01*
X113150000Y-95000000D01*
X113984314Y-95000000D01*
X113979920Y-95004394D01*
X113927259Y-95095606D01*
X113900000Y-95197339D01*
X113900000Y-95302661D01*
X113927259Y-95404394D01*
X113979920Y-95495606D01*
X113984314Y-95500000D01*
X113150000Y-95500000D01*
X113150000Y-95947844D01*
X113156401Y-96007372D01*
X113156403Y-96007379D01*
X113206645Y-96142086D01*
X113206649Y-96142093D01*
X113292809Y-96257187D01*
X113292812Y-96257190D01*
X113407906Y-96343350D01*
X113407913Y-96343354D01*
X113542620Y-96393596D01*
X113542627Y-96393598D01*
X113602155Y-96399999D01*
X113602172Y-96400000D01*
X114050000Y-96400000D01*
X114050000Y-95565686D01*
X114054394Y-95570080D01*
X114145606Y-95622741D01*
X114247339Y-95650000D01*
X114352661Y-95650000D01*
X114454394Y-95622741D01*
X114545606Y-95570080D01*
X114550000Y-95565686D01*
X114550000Y-96400000D01*
X114997828Y-96400000D01*
X114997844Y-96399999D01*
X115057372Y-96393598D01*
X115057379Y-96393596D01*
X115192086Y-96343354D01*
X115192093Y-96343350D01*
X115307187Y-96257190D01*
X115307190Y-96257187D01*
X115393350Y-96142093D01*
X115393354Y-96142086D01*
X115443596Y-96007379D01*
X115443598Y-96007372D01*
X115449999Y-95947844D01*
X115450000Y-95947827D01*
X115450000Y-95500000D01*
X114615686Y-95500000D01*
X114620080Y-95495606D01*
X114672741Y-95404394D01*
X114700000Y-95302661D01*
X114700000Y-95197339D01*
X114672741Y-95095606D01*
X114620080Y-95004394D01*
X114615686Y-95000000D01*
X115450000Y-95000000D01*
X115450000Y-94849274D01*
X115469685Y-94782235D01*
X115522489Y-94736480D01*
X115591647Y-94726536D01*
X115621452Y-94734713D01*
X115806989Y-94811564D01*
X115808165Y-94812051D01*
X115808169Y-94812051D01*
X115808170Y-94812052D01*
X116001456Y-94850500D01*
X116001459Y-94850500D01*
X116198543Y-94850500D01*
X116380317Y-94814342D01*
X116391835Y-94812051D01*
X116532655Y-94753721D01*
X116573907Y-94736635D01*
X116573907Y-94736634D01*
X116573914Y-94736632D01*
X116737782Y-94627139D01*
X116877139Y-94487782D01*
X116986632Y-94323914D01*
X117062051Y-94141835D01*
X117090954Y-93996533D01*
X117100500Y-93948543D01*
X117100500Y-93751456D01*
X117062052Y-93558170D01*
X117062051Y-93558169D01*
X117062051Y-93558165D01*
X117057407Y-93546953D01*
X116986635Y-93376092D01*
X116986628Y-93376079D01*
X116877139Y-93212218D01*
X116877136Y-93212214D01*
X116737785Y-93072863D01*
X116737781Y-93072860D01*
X116573920Y-92963371D01*
X116573907Y-92963364D01*
X116391839Y-92887950D01*
X116391829Y-92887947D01*
X116198543Y-92849500D01*
X116198541Y-92849500D01*
X116001459Y-92849500D01*
X116001457Y-92849500D01*
X115808170Y-92887947D01*
X115808160Y-92887950D01*
X115626092Y-92963364D01*
X115626079Y-92963371D01*
X115462218Y-93072860D01*
X115462214Y-93072863D01*
X115322863Y-93212214D01*
X115322860Y-93212218D01*
X115213371Y-93376079D01*
X115213364Y-93376092D01*
X115137950Y-93558160D01*
X115137947Y-93558170D01*
X115099500Y-93751456D01*
X115099500Y-93948541D01*
X115100149Y-93951803D01*
X115099992Y-93953547D01*
X115100097Y-93954604D01*
X115099896Y-93954623D01*
X115093925Y-94021395D01*
X115051065Y-94076574D01*
X114985176Y-94099822D01*
X114978533Y-94100000D01*
X114550000Y-94100000D01*
X114550000Y-94934314D01*
X114545606Y-94929920D01*
X114454394Y-94877259D01*
X114352661Y-94850000D01*
X114247339Y-94850000D01*
X114145606Y-94877259D01*
X114054394Y-94929920D01*
X114050000Y-94934314D01*
X114050000Y-94100000D01*
X113602155Y-94100000D01*
X113542627Y-94106401D01*
X113542620Y-94106403D01*
X113407913Y-94156645D01*
X113407906Y-94156649D01*
X113292812Y-94242809D01*
X113292809Y-94242812D01*
X113206649Y-94357906D01*
X113206645Y-94357913D01*
X113156403Y-94492620D01*
X113156401Y-94492627D01*
X113150000Y-94552155D01*
X112260500Y-94552155D01*
X112260500Y-92716092D01*
X112261097Y-92703938D01*
X112266990Y-92644108D01*
X112274089Y-92572024D01*
X112278828Y-92548200D01*
X112315532Y-92427202D01*
X112324830Y-92404757D01*
X112384427Y-92293259D01*
X112397930Y-92273050D01*
X112399150Y-92271564D01*
X112478137Y-92175316D01*
X112495316Y-92158137D01*
X112593052Y-92077928D01*
X112613261Y-92064426D01*
X112724757Y-92004830D01*
X112747202Y-91995532D01*
X112868200Y-91958828D01*
X112892024Y-91954089D01*
X113023939Y-91941097D01*
X113036093Y-91940500D01*
X120776626Y-91940500D01*
X120776629Y-91940500D01*
X121027308Y-91904458D01*
X121270307Y-91833107D01*
X121270310Y-91833105D01*
X121270312Y-91833105D01*
X121500666Y-91727906D01*
X121500670Y-91727903D01*
X121500678Y-91727900D01*
X121713732Y-91590979D01*
X121905131Y-91425131D01*
X122070979Y-91233732D01*
X122207900Y-91020678D01*
X122207903Y-91020670D01*
X122207906Y-91020666D01*
X122313105Y-90790312D01*
X122313105Y-90790310D01*
X122313107Y-90790307D01*
X122384458Y-90547308D01*
X122420500Y-90296629D01*
X122420500Y-90170000D01*
X122420500Y-90104108D01*
X122420500Y-88813389D01*
X123159500Y-88813389D01*
X123159500Y-88986611D01*
X123186598Y-89157701D01*
X123240127Y-89322445D01*
X123318768Y-89476788D01*
X123420586Y-89616928D01*
X123543072Y-89739414D01*
X123683212Y-89841232D01*
X123837555Y-89919873D01*
X124002299Y-89973402D01*
X124173389Y-90000500D01*
X124173390Y-90000500D01*
X124746610Y-90000500D01*
X124746611Y-90000500D01*
X124917701Y-89973402D01*
X125082445Y-89919873D01*
X125236788Y-89841232D01*
X125376928Y-89739414D01*
X125499414Y-89616928D01*
X125601232Y-89476788D01*
X125619515Y-89440906D01*
X125667489Y-89390109D01*
X125735310Y-89373314D01*
X125801445Y-89395851D01*
X125840485Y-89440906D01*
X125858766Y-89476786D01*
X125889357Y-89518890D01*
X125960586Y-89616928D01*
X126083072Y-89739414D01*
X126223212Y-89841232D01*
X126377555Y-89919873D01*
X126542299Y-89973402D01*
X126713389Y-90000500D01*
X126713390Y-90000500D01*
X127286610Y-90000500D01*
X127286611Y-90000500D01*
X127457701Y-89973402D01*
X127622445Y-89919873D01*
X127776788Y-89841232D01*
X127916928Y-89739414D01*
X128039414Y-89616928D01*
X128141232Y-89476788D01*
X128219873Y-89322445D01*
X128273402Y-89157701D01*
X128300500Y-88986611D01*
X128300500Y-88813389D01*
X128273402Y-88642299D01*
X128219873Y-88477555D01*
X128141232Y-88323212D01*
X128039414Y-88183072D01*
X127916928Y-88060586D01*
X127776788Y-87958768D01*
X127622445Y-87880127D01*
X127457701Y-87826598D01*
X127457699Y-87826597D01*
X127457698Y-87826597D01*
X127326271Y-87805781D01*
X127286611Y-87799500D01*
X126713389Y-87799500D01*
X126673728Y-87805781D01*
X126542302Y-87826597D01*
X126377552Y-87880128D01*
X126223211Y-87958768D01*
X126155906Y-88007669D01*
X126083072Y-88060586D01*
X126083070Y-88060588D01*
X126083069Y-88060588D01*
X125960588Y-88183069D01*
X125960588Y-88183070D01*
X125960586Y-88183072D01*
X125909677Y-88253142D01*
X125858766Y-88323214D01*
X125840484Y-88359095D01*
X125792510Y-88409890D01*
X125724689Y-88426685D01*
X125658554Y-88404147D01*
X125619516Y-88359095D01*
X125601233Y-88323214D01*
X125596755Y-88317050D01*
X125499414Y-88183072D01*
X125376928Y-88060586D01*
X125236788Y-87958768D01*
X125082445Y-87880127D01*
X124917701Y-87826598D01*
X124917699Y-87826597D01*
X124917698Y-87826597D01*
X124786271Y-87805781D01*
X124746611Y-87799500D01*
X124173389Y-87799500D01*
X124133728Y-87805781D01*
X124002302Y-87826597D01*
X123837552Y-87880128D01*
X123683211Y-87958768D01*
X123615906Y-88007669D01*
X123543072Y-88060586D01*
X123543070Y-88060588D01*
X123543069Y-88060588D01*
X123420588Y-88183069D01*
X123420588Y-88183070D01*
X123420586Y-88183072D01*
X123382919Y-88234916D01*
X123318768Y-88323211D01*
X123240128Y-88477552D01*
X123186597Y-88642302D01*
X123171852Y-88735399D01*
X123159500Y-88813389D01*
X122420500Y-88813389D01*
X122420500Y-85731092D01*
X122421097Y-85718938D01*
X122428569Y-85643072D01*
X122434089Y-85587024D01*
X122438828Y-85563200D01*
X122475532Y-85442202D01*
X122484830Y-85419757D01*
X122544427Y-85308259D01*
X122557930Y-85288050D01*
X122559122Y-85286598D01*
X122638137Y-85190316D01*
X122655316Y-85173137D01*
X122753052Y-85092928D01*
X122773261Y-85079426D01*
X122884757Y-85019830D01*
X122907202Y-85010532D01*
X123028200Y-84973828D01*
X123052024Y-84969089D01*
X123183939Y-84956097D01*
X123196093Y-84955500D01*
X123255892Y-84955500D01*
X149794108Y-84955500D01*
X149853907Y-84955500D01*
X149866061Y-84956097D01*
G37*
G04 #@! TD.AperFunction*
M02*
