G04 #@! TF.GenerationSoftware,KiCad,Pcbnew,8.0.2*
G04 #@! TF.CreationDate,2024-05-11T15:04:56+02:00*
G04 #@! TF.ProjectId,WiFi-2-OIP-UI,57694669-2d32-42d4-9f49-502d55492e6b,V1.0*
G04 #@! TF.SameCoordinates,Original*
G04 #@! TF.FileFunction,Legend,Bot*
G04 #@! TF.FilePolarity,Positive*
%FSLAX46Y46*%
G04 Gerber Fmt 4.6, Leading zero omitted, Abs format (unit mm)*
G04 Created by KiCad (PCBNEW 8.0.2) date 2024-05-11 15:04:56*
%MOMM*%
%LPD*%
G01*
G04 APERTURE LIST*
G04 Aperture macros list*
%AMRoundRect*
0 Rectangle with rounded corners*
0 $1 Rounding radius*
0 $2 $3 $4 $5 $6 $7 $8 $9 X,Y pos of 4 corners*
0 Add a 4 corners polygon primitive as box body*
4,1,4,$2,$3,$4,$5,$6,$7,$8,$9,$2,$3,0*
0 Add four circle primitives for the rounded corners*
1,1,$1+$1,$2,$3*
1,1,$1+$1,$4,$5*
1,1,$1+$1,$6,$7*
1,1,$1+$1,$8,$9*
0 Add four rect primitives between the rounded corners*
20,1,$1+$1,$2,$3,$4,$5,0*
20,1,$1+$1,$4,$5,$6,$7,0*
20,1,$1+$1,$6,$7,$8,$9,0*
20,1,$1+$1,$8,$9,$2,$3,0*%
G04 Aperture macros list end*
%ADD10C,0.150000*%
%ADD11C,0.100000*%
%ADD12R,2.500000X2.500000*%
%ADD13C,0.900000*%
%ADD14C,9.000000*%
%ADD15R,2.100000X1.700000*%
%ADD16O,2.100000X1.700000*%
%ADD17O,1.905000X2.000000*%
%ADD18R,1.905000X2.000000*%
%ADD19C,1.600000*%
%ADD20R,1.600000X1.600000*%
%ADD21O,1.800000X3.600000*%
%ADD22RoundRect,0.250000X-0.650000X-1.550000X0.650000X-1.550000X0.650000X1.550000X-0.650000X1.550000X0*%
%ADD23C,1.500000*%
%ADD24R,1.300000X1.300000*%
%ADD25C,1.300000*%
G04 APERTURE END LIST*
D10*
X153948458Y-106834819D02*
X153710363Y-107834819D01*
X153710363Y-107834819D02*
X153519887Y-107120533D01*
X153519887Y-107120533D02*
X153329411Y-107834819D01*
X153329411Y-107834819D02*
X153091316Y-106834819D01*
X152710363Y-107834819D02*
X152710363Y-107168152D01*
X152710363Y-106834819D02*
X152757982Y-106882438D01*
X152757982Y-106882438D02*
X152710363Y-106930057D01*
X152710363Y-106930057D02*
X152662744Y-106882438D01*
X152662744Y-106882438D02*
X152710363Y-106834819D01*
X152710363Y-106834819D02*
X152710363Y-106930057D01*
X151900840Y-107311009D02*
X152234173Y-107311009D01*
X152234173Y-107834819D02*
X152234173Y-106834819D01*
X152234173Y-106834819D02*
X151757983Y-106834819D01*
X151377030Y-107834819D02*
X151377030Y-107168152D01*
X151377030Y-106834819D02*
X151424649Y-106882438D01*
X151424649Y-106882438D02*
X151377030Y-106930057D01*
X151377030Y-106930057D02*
X151329411Y-106882438D01*
X151329411Y-106882438D02*
X151377030Y-106834819D01*
X151377030Y-106834819D02*
X151377030Y-106930057D01*
X150900840Y-107453866D02*
X150138936Y-107453866D01*
X149710364Y-106930057D02*
X149662745Y-106882438D01*
X149662745Y-106882438D02*
X149567507Y-106834819D01*
X149567507Y-106834819D02*
X149329412Y-106834819D01*
X149329412Y-106834819D02*
X149234174Y-106882438D01*
X149234174Y-106882438D02*
X149186555Y-106930057D01*
X149186555Y-106930057D02*
X149138936Y-107025295D01*
X149138936Y-107025295D02*
X149138936Y-107120533D01*
X149138936Y-107120533D02*
X149186555Y-107263390D01*
X149186555Y-107263390D02*
X149757983Y-107834819D01*
X149757983Y-107834819D02*
X149138936Y-107834819D01*
X148710364Y-107453866D02*
X147948460Y-107453866D01*
X147281793Y-106834819D02*
X147091317Y-106834819D01*
X147091317Y-106834819D02*
X146996079Y-106882438D01*
X146996079Y-106882438D02*
X146900841Y-106977676D01*
X146900841Y-106977676D02*
X146853222Y-107168152D01*
X146853222Y-107168152D02*
X146853222Y-107501485D01*
X146853222Y-107501485D02*
X146900841Y-107691961D01*
X146900841Y-107691961D02*
X146996079Y-107787200D01*
X146996079Y-107787200D02*
X147091317Y-107834819D01*
X147091317Y-107834819D02*
X147281793Y-107834819D01*
X147281793Y-107834819D02*
X147377031Y-107787200D01*
X147377031Y-107787200D02*
X147472269Y-107691961D01*
X147472269Y-107691961D02*
X147519888Y-107501485D01*
X147519888Y-107501485D02*
X147519888Y-107168152D01*
X147519888Y-107168152D02*
X147472269Y-106977676D01*
X147472269Y-106977676D02*
X147377031Y-106882438D01*
X147377031Y-106882438D02*
X147281793Y-106834819D01*
X146424650Y-107834819D02*
X146424650Y-106834819D01*
X145948460Y-107834819D02*
X145948460Y-106834819D01*
X145948460Y-106834819D02*
X145567508Y-106834819D01*
X145567508Y-106834819D02*
X145472270Y-106882438D01*
X145472270Y-106882438D02*
X145424651Y-106930057D01*
X145424651Y-106930057D02*
X145377032Y-107025295D01*
X145377032Y-107025295D02*
X145377032Y-107168152D01*
X145377032Y-107168152D02*
X145424651Y-107263390D01*
X145424651Y-107263390D02*
X145472270Y-107311009D01*
X145472270Y-107311009D02*
X145567508Y-107358628D01*
X145567508Y-107358628D02*
X145948460Y-107358628D01*
X144948460Y-107453866D02*
X144186556Y-107453866D01*
X143710365Y-106834819D02*
X143710365Y-107644342D01*
X143710365Y-107644342D02*
X143662746Y-107739580D01*
X143662746Y-107739580D02*
X143615127Y-107787200D01*
X143615127Y-107787200D02*
X143519889Y-107834819D01*
X143519889Y-107834819D02*
X143329413Y-107834819D01*
X143329413Y-107834819D02*
X143234175Y-107787200D01*
X143234175Y-107787200D02*
X143186556Y-107739580D01*
X143186556Y-107739580D02*
X143138937Y-107644342D01*
X143138937Y-107644342D02*
X143138937Y-106834819D01*
X142662746Y-107834819D02*
X142662746Y-106834819D01*
X141472270Y-106930057D02*
X141424651Y-106882438D01*
X141424651Y-106882438D02*
X141329413Y-106834819D01*
X141329413Y-106834819D02*
X141091318Y-106834819D01*
X141091318Y-106834819D02*
X140996080Y-106882438D01*
X140996080Y-106882438D02*
X140948461Y-106930057D01*
X140948461Y-106930057D02*
X140900842Y-107025295D01*
X140900842Y-107025295D02*
X140900842Y-107120533D01*
X140900842Y-107120533D02*
X140948461Y-107263390D01*
X140948461Y-107263390D02*
X141519889Y-107834819D01*
X141519889Y-107834819D02*
X140900842Y-107834819D01*
X140281794Y-106834819D02*
X140186556Y-106834819D01*
X140186556Y-106834819D02*
X140091318Y-106882438D01*
X140091318Y-106882438D02*
X140043699Y-106930057D01*
X140043699Y-106930057D02*
X139996080Y-107025295D01*
X139996080Y-107025295D02*
X139948461Y-107215771D01*
X139948461Y-107215771D02*
X139948461Y-107453866D01*
X139948461Y-107453866D02*
X139996080Y-107644342D01*
X139996080Y-107644342D02*
X140043699Y-107739580D01*
X140043699Y-107739580D02*
X140091318Y-107787200D01*
X140091318Y-107787200D02*
X140186556Y-107834819D01*
X140186556Y-107834819D02*
X140281794Y-107834819D01*
X140281794Y-107834819D02*
X140377032Y-107787200D01*
X140377032Y-107787200D02*
X140424651Y-107739580D01*
X140424651Y-107739580D02*
X140472270Y-107644342D01*
X140472270Y-107644342D02*
X140519889Y-107453866D01*
X140519889Y-107453866D02*
X140519889Y-107215771D01*
X140519889Y-107215771D02*
X140472270Y-107025295D01*
X140472270Y-107025295D02*
X140424651Y-106930057D01*
X140424651Y-106930057D02*
X140377032Y-106882438D01*
X140377032Y-106882438D02*
X140281794Y-106834819D01*
X139567508Y-106930057D02*
X139519889Y-106882438D01*
X139519889Y-106882438D02*
X139424651Y-106834819D01*
X139424651Y-106834819D02*
X139186556Y-106834819D01*
X139186556Y-106834819D02*
X139091318Y-106882438D01*
X139091318Y-106882438D02*
X139043699Y-106930057D01*
X139043699Y-106930057D02*
X138996080Y-107025295D01*
X138996080Y-107025295D02*
X138996080Y-107120533D01*
X138996080Y-107120533D02*
X139043699Y-107263390D01*
X139043699Y-107263390D02*
X139615127Y-107834819D01*
X139615127Y-107834819D02*
X138996080Y-107834819D01*
X138138937Y-107168152D02*
X138138937Y-107834819D01*
X138377032Y-106787200D02*
X138615127Y-107501485D01*
X138615127Y-107501485D02*
X137996080Y-107501485D01*
X137615127Y-107453866D02*
X136853223Y-107453866D01*
X136186556Y-106834819D02*
X136091318Y-106834819D01*
X136091318Y-106834819D02*
X135996080Y-106882438D01*
X135996080Y-106882438D02*
X135948461Y-106930057D01*
X135948461Y-106930057D02*
X135900842Y-107025295D01*
X135900842Y-107025295D02*
X135853223Y-107215771D01*
X135853223Y-107215771D02*
X135853223Y-107453866D01*
X135853223Y-107453866D02*
X135900842Y-107644342D01*
X135900842Y-107644342D02*
X135948461Y-107739580D01*
X135948461Y-107739580D02*
X135996080Y-107787200D01*
X135996080Y-107787200D02*
X136091318Y-107834819D01*
X136091318Y-107834819D02*
X136186556Y-107834819D01*
X136186556Y-107834819D02*
X136281794Y-107787200D01*
X136281794Y-107787200D02*
X136329413Y-107739580D01*
X136329413Y-107739580D02*
X136377032Y-107644342D01*
X136377032Y-107644342D02*
X136424651Y-107453866D01*
X136424651Y-107453866D02*
X136424651Y-107215771D01*
X136424651Y-107215771D02*
X136377032Y-107025295D01*
X136377032Y-107025295D02*
X136329413Y-106930057D01*
X136329413Y-106930057D02*
X136281794Y-106882438D01*
X136281794Y-106882438D02*
X136186556Y-106834819D01*
X134948461Y-106834819D02*
X135424651Y-106834819D01*
X135424651Y-106834819D02*
X135472270Y-107311009D01*
X135472270Y-107311009D02*
X135424651Y-107263390D01*
X135424651Y-107263390D02*
X135329413Y-107215771D01*
X135329413Y-107215771D02*
X135091318Y-107215771D01*
X135091318Y-107215771D02*
X134996080Y-107263390D01*
X134996080Y-107263390D02*
X134948461Y-107311009D01*
X134948461Y-107311009D02*
X134900842Y-107406247D01*
X134900842Y-107406247D02*
X134900842Y-107644342D01*
X134900842Y-107644342D02*
X134948461Y-107739580D01*
X134948461Y-107739580D02*
X134996080Y-107787200D01*
X134996080Y-107787200D02*
X135091318Y-107834819D01*
X135091318Y-107834819D02*
X135329413Y-107834819D01*
X135329413Y-107834819D02*
X135424651Y-107787200D01*
X135424651Y-107787200D02*
X135472270Y-107739580D01*
X134472270Y-107453866D02*
X133710366Y-107453866D01*
X132710366Y-107834819D02*
X133281794Y-107834819D01*
X132996080Y-107834819D02*
X132996080Y-106834819D01*
X132996080Y-106834819D02*
X133091318Y-106977676D01*
X133091318Y-106977676D02*
X133186556Y-107072914D01*
X133186556Y-107072914D02*
X133281794Y-107120533D01*
X131757985Y-107834819D02*
X132329413Y-107834819D01*
X132043699Y-107834819D02*
X132043699Y-106834819D01*
X132043699Y-106834819D02*
X132138937Y-106977676D01*
X132138937Y-106977676D02*
X132234175Y-107072914D01*
X132234175Y-107072914D02*
X132329413Y-107120533D01*
X130710365Y-106834819D02*
X130377032Y-107834819D01*
X130377032Y-107834819D02*
X130043699Y-106834819D01*
X129186556Y-107834819D02*
X129757984Y-107834819D01*
X129472270Y-107834819D02*
X129472270Y-106834819D01*
X129472270Y-106834819D02*
X129567508Y-106977676D01*
X129567508Y-106977676D02*
X129662746Y-107072914D01*
X129662746Y-107072914D02*
X129757984Y-107120533D01*
X128757984Y-107739580D02*
X128710365Y-107787200D01*
X128710365Y-107787200D02*
X128757984Y-107834819D01*
X128757984Y-107834819D02*
X128805603Y-107787200D01*
X128805603Y-107787200D02*
X128757984Y-107739580D01*
X128757984Y-107739580D02*
X128757984Y-107834819D01*
X128091318Y-106834819D02*
X127996080Y-106834819D01*
X127996080Y-106834819D02*
X127900842Y-106882438D01*
X127900842Y-106882438D02*
X127853223Y-106930057D01*
X127853223Y-106930057D02*
X127805604Y-107025295D01*
X127805604Y-107025295D02*
X127757985Y-107215771D01*
X127757985Y-107215771D02*
X127757985Y-107453866D01*
X127757985Y-107453866D02*
X127805604Y-107644342D01*
X127805604Y-107644342D02*
X127853223Y-107739580D01*
X127853223Y-107739580D02*
X127900842Y-107787200D01*
X127900842Y-107787200D02*
X127996080Y-107834819D01*
X127996080Y-107834819D02*
X128091318Y-107834819D01*
X128091318Y-107834819D02*
X128186556Y-107787200D01*
X128186556Y-107787200D02*
X128234175Y-107739580D01*
X128234175Y-107739580D02*
X128281794Y-107644342D01*
X128281794Y-107644342D02*
X128329413Y-107453866D01*
X128329413Y-107453866D02*
X128329413Y-107215771D01*
X128329413Y-107215771D02*
X128281794Y-107025295D01*
X128281794Y-107025295D02*
X128234175Y-106930057D01*
X128234175Y-106930057D02*
X128186556Y-106882438D01*
X128186556Y-106882438D02*
X128091318Y-106834819D01*
X153853220Y-109444763D02*
X153853220Y-108444763D01*
X153424649Y-109444763D02*
X153424649Y-108920953D01*
X153424649Y-108920953D02*
X153472268Y-108825715D01*
X153472268Y-108825715D02*
X153567506Y-108778096D01*
X153567506Y-108778096D02*
X153710363Y-108778096D01*
X153710363Y-108778096D02*
X153805601Y-108825715D01*
X153805601Y-108825715D02*
X153853220Y-108873334D01*
X153091315Y-108778096D02*
X152710363Y-108778096D01*
X152948458Y-108444763D02*
X152948458Y-109301905D01*
X152948458Y-109301905D02*
X152900839Y-109397144D01*
X152900839Y-109397144D02*
X152805601Y-109444763D01*
X152805601Y-109444763D02*
X152710363Y-109444763D01*
X152519886Y-108778096D02*
X152138934Y-108778096D01*
X152377029Y-108444763D02*
X152377029Y-109301905D01*
X152377029Y-109301905D02*
X152329410Y-109397144D01*
X152329410Y-109397144D02*
X152234172Y-109444763D01*
X152234172Y-109444763D02*
X152138934Y-109444763D01*
X151805600Y-108778096D02*
X151805600Y-109778096D01*
X151805600Y-108825715D02*
X151710362Y-108778096D01*
X151710362Y-108778096D02*
X151519886Y-108778096D01*
X151519886Y-108778096D02*
X151424648Y-108825715D01*
X151424648Y-108825715D02*
X151377029Y-108873334D01*
X151377029Y-108873334D02*
X151329410Y-108968572D01*
X151329410Y-108968572D02*
X151329410Y-109254286D01*
X151329410Y-109254286D02*
X151377029Y-109349524D01*
X151377029Y-109349524D02*
X151424648Y-109397144D01*
X151424648Y-109397144D02*
X151519886Y-109444763D01*
X151519886Y-109444763D02*
X151710362Y-109444763D01*
X151710362Y-109444763D02*
X151805600Y-109397144D01*
X150948457Y-109397144D02*
X150853219Y-109444763D01*
X150853219Y-109444763D02*
X150662743Y-109444763D01*
X150662743Y-109444763D02*
X150567505Y-109397144D01*
X150567505Y-109397144D02*
X150519886Y-109301905D01*
X150519886Y-109301905D02*
X150519886Y-109254286D01*
X150519886Y-109254286D02*
X150567505Y-109159048D01*
X150567505Y-109159048D02*
X150662743Y-109111429D01*
X150662743Y-109111429D02*
X150805600Y-109111429D01*
X150805600Y-109111429D02*
X150900838Y-109063810D01*
X150900838Y-109063810D02*
X150948457Y-108968572D01*
X150948457Y-108968572D02*
X150948457Y-108920953D01*
X150948457Y-108920953D02*
X150900838Y-108825715D01*
X150900838Y-108825715D02*
X150805600Y-108778096D01*
X150805600Y-108778096D02*
X150662743Y-108778096D01*
X150662743Y-108778096D02*
X150567505Y-108825715D01*
X150091314Y-109349524D02*
X150043695Y-109397144D01*
X150043695Y-109397144D02*
X150091314Y-109444763D01*
X150091314Y-109444763D02*
X150138933Y-109397144D01*
X150138933Y-109397144D02*
X150091314Y-109349524D01*
X150091314Y-109349524D02*
X150091314Y-109444763D01*
X150091314Y-108825715D02*
X150043695Y-108873334D01*
X150043695Y-108873334D02*
X150091314Y-108920953D01*
X150091314Y-108920953D02*
X150138933Y-108873334D01*
X150138933Y-108873334D02*
X150091314Y-108825715D01*
X150091314Y-108825715D02*
X150091314Y-108920953D01*
X148900839Y-108397144D02*
X149757981Y-109682858D01*
X147853220Y-108397144D02*
X148710362Y-109682858D01*
X147091315Y-108778096D02*
X147091315Y-109587620D01*
X147091315Y-109587620D02*
X147138934Y-109682858D01*
X147138934Y-109682858D02*
X147186553Y-109730477D01*
X147186553Y-109730477D02*
X147281791Y-109778096D01*
X147281791Y-109778096D02*
X147424648Y-109778096D01*
X147424648Y-109778096D02*
X147519886Y-109730477D01*
X147091315Y-109397144D02*
X147186553Y-109444763D01*
X147186553Y-109444763D02*
X147377029Y-109444763D01*
X147377029Y-109444763D02*
X147472267Y-109397144D01*
X147472267Y-109397144D02*
X147519886Y-109349524D01*
X147519886Y-109349524D02*
X147567505Y-109254286D01*
X147567505Y-109254286D02*
X147567505Y-108968572D01*
X147567505Y-108968572D02*
X147519886Y-108873334D01*
X147519886Y-108873334D02*
X147472267Y-108825715D01*
X147472267Y-108825715D02*
X147377029Y-108778096D01*
X147377029Y-108778096D02*
X147186553Y-108778096D01*
X147186553Y-108778096D02*
X147091315Y-108825715D01*
X146615124Y-109444763D02*
X146615124Y-108778096D01*
X146615124Y-108444763D02*
X146662743Y-108492382D01*
X146662743Y-108492382D02*
X146615124Y-108540001D01*
X146615124Y-108540001D02*
X146567505Y-108492382D01*
X146567505Y-108492382D02*
X146615124Y-108444763D01*
X146615124Y-108444763D02*
X146615124Y-108540001D01*
X146281791Y-108778096D02*
X145900839Y-108778096D01*
X146138934Y-108444763D02*
X146138934Y-109301905D01*
X146138934Y-109301905D02*
X146091315Y-109397144D01*
X146091315Y-109397144D02*
X145996077Y-109444763D01*
X145996077Y-109444763D02*
X145900839Y-109444763D01*
X145567505Y-109444763D02*
X145567505Y-108444763D01*
X145138934Y-109444763D02*
X145138934Y-108920953D01*
X145138934Y-108920953D02*
X145186553Y-108825715D01*
X145186553Y-108825715D02*
X145281791Y-108778096D01*
X145281791Y-108778096D02*
X145424648Y-108778096D01*
X145424648Y-108778096D02*
X145519886Y-108825715D01*
X145519886Y-108825715D02*
X145567505Y-108873334D01*
X144234172Y-108778096D02*
X144234172Y-109444763D01*
X144662743Y-108778096D02*
X144662743Y-109301905D01*
X144662743Y-109301905D02*
X144615124Y-109397144D01*
X144615124Y-109397144D02*
X144519886Y-109444763D01*
X144519886Y-109444763D02*
X144377029Y-109444763D01*
X144377029Y-109444763D02*
X144281791Y-109397144D01*
X144281791Y-109397144D02*
X144234172Y-109349524D01*
X143757981Y-109444763D02*
X143757981Y-108444763D01*
X143757981Y-108825715D02*
X143662743Y-108778096D01*
X143662743Y-108778096D02*
X143472267Y-108778096D01*
X143472267Y-108778096D02*
X143377029Y-108825715D01*
X143377029Y-108825715D02*
X143329410Y-108873334D01*
X143329410Y-108873334D02*
X143281791Y-108968572D01*
X143281791Y-108968572D02*
X143281791Y-109254286D01*
X143281791Y-109254286D02*
X143329410Y-109349524D01*
X143329410Y-109349524D02*
X143377029Y-109397144D01*
X143377029Y-109397144D02*
X143472267Y-109444763D01*
X143472267Y-109444763D02*
X143662743Y-109444763D01*
X143662743Y-109444763D02*
X143757981Y-109397144D01*
X142853219Y-109349524D02*
X142805600Y-109397144D01*
X142805600Y-109397144D02*
X142853219Y-109444763D01*
X142853219Y-109444763D02*
X142900838Y-109397144D01*
X142900838Y-109397144D02*
X142853219Y-109349524D01*
X142853219Y-109349524D02*
X142853219Y-109444763D01*
X141948458Y-109397144D02*
X142043696Y-109444763D01*
X142043696Y-109444763D02*
X142234172Y-109444763D01*
X142234172Y-109444763D02*
X142329410Y-109397144D01*
X142329410Y-109397144D02*
X142377029Y-109349524D01*
X142377029Y-109349524D02*
X142424648Y-109254286D01*
X142424648Y-109254286D02*
X142424648Y-108968572D01*
X142424648Y-108968572D02*
X142377029Y-108873334D01*
X142377029Y-108873334D02*
X142329410Y-108825715D01*
X142329410Y-108825715D02*
X142234172Y-108778096D01*
X142234172Y-108778096D02*
X142043696Y-108778096D01*
X142043696Y-108778096D02*
X141948458Y-108825715D01*
X141377029Y-109444763D02*
X141472267Y-109397144D01*
X141472267Y-109397144D02*
X141519886Y-109349524D01*
X141519886Y-109349524D02*
X141567505Y-109254286D01*
X141567505Y-109254286D02*
X141567505Y-108968572D01*
X141567505Y-108968572D02*
X141519886Y-108873334D01*
X141519886Y-108873334D02*
X141472267Y-108825715D01*
X141472267Y-108825715D02*
X141377029Y-108778096D01*
X141377029Y-108778096D02*
X141234172Y-108778096D01*
X141234172Y-108778096D02*
X141138934Y-108825715D01*
X141138934Y-108825715D02*
X141091315Y-108873334D01*
X141091315Y-108873334D02*
X141043696Y-108968572D01*
X141043696Y-108968572D02*
X141043696Y-109254286D01*
X141043696Y-109254286D02*
X141091315Y-109349524D01*
X141091315Y-109349524D02*
X141138934Y-109397144D01*
X141138934Y-109397144D02*
X141234172Y-109444763D01*
X141234172Y-109444763D02*
X141377029Y-109444763D01*
X140615124Y-109444763D02*
X140615124Y-108778096D01*
X140615124Y-108873334D02*
X140567505Y-108825715D01*
X140567505Y-108825715D02*
X140472267Y-108778096D01*
X140472267Y-108778096D02*
X140329410Y-108778096D01*
X140329410Y-108778096D02*
X140234172Y-108825715D01*
X140234172Y-108825715D02*
X140186553Y-108920953D01*
X140186553Y-108920953D02*
X140186553Y-109444763D01*
X140186553Y-108920953D02*
X140138934Y-108825715D01*
X140138934Y-108825715D02*
X140043696Y-108778096D01*
X140043696Y-108778096D02*
X139900839Y-108778096D01*
X139900839Y-108778096D02*
X139805600Y-108825715D01*
X139805600Y-108825715D02*
X139757981Y-108920953D01*
X139757981Y-108920953D02*
X139757981Y-109444763D01*
X138567506Y-108397144D02*
X139424648Y-109682858D01*
X137805601Y-109444763D02*
X137805601Y-108920953D01*
X137805601Y-108920953D02*
X137853220Y-108825715D01*
X137853220Y-108825715D02*
X137948458Y-108778096D01*
X137948458Y-108778096D02*
X138138934Y-108778096D01*
X138138934Y-108778096D02*
X138234172Y-108825715D01*
X137805601Y-109397144D02*
X137900839Y-109444763D01*
X137900839Y-109444763D02*
X138138934Y-109444763D01*
X138138934Y-109444763D02*
X138234172Y-109397144D01*
X138234172Y-109397144D02*
X138281791Y-109301905D01*
X138281791Y-109301905D02*
X138281791Y-109206667D01*
X138281791Y-109206667D02*
X138234172Y-109111429D01*
X138234172Y-109111429D02*
X138138934Y-109063810D01*
X138138934Y-109063810D02*
X137900839Y-109063810D01*
X137900839Y-109063810D02*
X137805601Y-109016191D01*
X137472267Y-108778096D02*
X137091315Y-108778096D01*
X137329410Y-108444763D02*
X137329410Y-109301905D01*
X137329410Y-109301905D02*
X137281791Y-109397144D01*
X137281791Y-109397144D02*
X137186553Y-109444763D01*
X137186553Y-109444763D02*
X137091315Y-109444763D01*
X136615124Y-109444763D02*
X136710362Y-109397144D01*
X136710362Y-109397144D02*
X136757981Y-109349524D01*
X136757981Y-109349524D02*
X136805600Y-109254286D01*
X136805600Y-109254286D02*
X136805600Y-108968572D01*
X136805600Y-108968572D02*
X136757981Y-108873334D01*
X136757981Y-108873334D02*
X136710362Y-108825715D01*
X136710362Y-108825715D02*
X136615124Y-108778096D01*
X136615124Y-108778096D02*
X136472267Y-108778096D01*
X136472267Y-108778096D02*
X136377029Y-108825715D01*
X136377029Y-108825715D02*
X136329410Y-108873334D01*
X136329410Y-108873334D02*
X136281791Y-108968572D01*
X136281791Y-108968572D02*
X136281791Y-109254286D01*
X136281791Y-109254286D02*
X136329410Y-109349524D01*
X136329410Y-109349524D02*
X136377029Y-109397144D01*
X136377029Y-109397144D02*
X136472267Y-109444763D01*
X136472267Y-109444763D02*
X136615124Y-109444763D01*
X135710362Y-109444763D02*
X135805600Y-109397144D01*
X135805600Y-109397144D02*
X135853219Y-109349524D01*
X135853219Y-109349524D02*
X135900838Y-109254286D01*
X135900838Y-109254286D02*
X135900838Y-108968572D01*
X135900838Y-108968572D02*
X135853219Y-108873334D01*
X135853219Y-108873334D02*
X135805600Y-108825715D01*
X135805600Y-108825715D02*
X135710362Y-108778096D01*
X135710362Y-108778096D02*
X135567505Y-108778096D01*
X135567505Y-108778096D02*
X135472267Y-108825715D01*
X135472267Y-108825715D02*
X135424648Y-108873334D01*
X135424648Y-108873334D02*
X135377029Y-108968572D01*
X135377029Y-108968572D02*
X135377029Y-109254286D01*
X135377029Y-109254286D02*
X135424648Y-109349524D01*
X135424648Y-109349524D02*
X135472267Y-109397144D01*
X135472267Y-109397144D02*
X135567505Y-109444763D01*
X135567505Y-109444763D02*
X135710362Y-109444763D01*
X134948457Y-109444763D02*
X134948457Y-108778096D01*
X134948457Y-108873334D02*
X134900838Y-108825715D01*
X134900838Y-108825715D02*
X134805600Y-108778096D01*
X134805600Y-108778096D02*
X134662743Y-108778096D01*
X134662743Y-108778096D02*
X134567505Y-108825715D01*
X134567505Y-108825715D02*
X134519886Y-108920953D01*
X134519886Y-108920953D02*
X134519886Y-109444763D01*
X134519886Y-108920953D02*
X134472267Y-108825715D01*
X134472267Y-108825715D02*
X134377029Y-108778096D01*
X134377029Y-108778096D02*
X134234172Y-108778096D01*
X134234172Y-108778096D02*
X134138933Y-108825715D01*
X134138933Y-108825715D02*
X134091314Y-108920953D01*
X134091314Y-108920953D02*
X134091314Y-109444763D01*
X133615124Y-108778096D02*
X133615124Y-109444763D01*
X133615124Y-108873334D02*
X133567505Y-108825715D01*
X133567505Y-108825715D02*
X133472267Y-108778096D01*
X133472267Y-108778096D02*
X133329410Y-108778096D01*
X133329410Y-108778096D02*
X133234172Y-108825715D01*
X133234172Y-108825715D02*
X133186553Y-108920953D01*
X133186553Y-108920953D02*
X133186553Y-109444763D01*
X132329410Y-109397144D02*
X132424648Y-109444763D01*
X132424648Y-109444763D02*
X132615124Y-109444763D01*
X132615124Y-109444763D02*
X132710362Y-109397144D01*
X132710362Y-109397144D02*
X132757981Y-109301905D01*
X132757981Y-109301905D02*
X132757981Y-108920953D01*
X132757981Y-108920953D02*
X132710362Y-108825715D01*
X132710362Y-108825715D02*
X132615124Y-108778096D01*
X132615124Y-108778096D02*
X132424648Y-108778096D01*
X132424648Y-108778096D02*
X132329410Y-108825715D01*
X132329410Y-108825715D02*
X132281791Y-108920953D01*
X132281791Y-108920953D02*
X132281791Y-109016191D01*
X132281791Y-109016191D02*
X132757981Y-109111429D01*
X131996076Y-108778096D02*
X131615124Y-108778096D01*
X131853219Y-108444763D02*
X131853219Y-109301905D01*
X131853219Y-109301905D02*
X131805600Y-109397144D01*
X131805600Y-109397144D02*
X131710362Y-109444763D01*
X131710362Y-109444763D02*
X131615124Y-109444763D01*
X131281790Y-109444763D02*
X131281790Y-108778096D01*
X131281790Y-108873334D02*
X131234171Y-108825715D01*
X131234171Y-108825715D02*
X131138933Y-108778096D01*
X131138933Y-108778096D02*
X130996076Y-108778096D01*
X130996076Y-108778096D02*
X130900838Y-108825715D01*
X130900838Y-108825715D02*
X130853219Y-108920953D01*
X130853219Y-108920953D02*
X130853219Y-109444763D01*
X130853219Y-108920953D02*
X130805600Y-108825715D01*
X130805600Y-108825715D02*
X130710362Y-108778096D01*
X130710362Y-108778096D02*
X130567505Y-108778096D01*
X130567505Y-108778096D02*
X130472266Y-108825715D01*
X130472266Y-108825715D02*
X130424647Y-108920953D01*
X130424647Y-108920953D02*
X130424647Y-109444763D01*
X129519886Y-109444763D02*
X129519886Y-108920953D01*
X129519886Y-108920953D02*
X129567505Y-108825715D01*
X129567505Y-108825715D02*
X129662743Y-108778096D01*
X129662743Y-108778096D02*
X129853219Y-108778096D01*
X129853219Y-108778096D02*
X129948457Y-108825715D01*
X129519886Y-109397144D02*
X129615124Y-109444763D01*
X129615124Y-109444763D02*
X129853219Y-109444763D01*
X129853219Y-109444763D02*
X129948457Y-109397144D01*
X129948457Y-109397144D02*
X129996076Y-109301905D01*
X129996076Y-109301905D02*
X129996076Y-109206667D01*
X129996076Y-109206667D02*
X129948457Y-109111429D01*
X129948457Y-109111429D02*
X129853219Y-109063810D01*
X129853219Y-109063810D02*
X129615124Y-109063810D01*
X129615124Y-109063810D02*
X129519886Y-109016191D01*
X129043695Y-109444763D02*
X129043695Y-108778096D01*
X129043695Y-108968572D02*
X128996076Y-108873334D01*
X128996076Y-108873334D02*
X128948457Y-108825715D01*
X128948457Y-108825715D02*
X128853219Y-108778096D01*
X128853219Y-108778096D02*
X128757981Y-108778096D01*
X127996076Y-109397144D02*
X128091314Y-109444763D01*
X128091314Y-109444763D02*
X128281790Y-109444763D01*
X128281790Y-109444763D02*
X128377028Y-109397144D01*
X128377028Y-109397144D02*
X128424647Y-109349524D01*
X128424647Y-109349524D02*
X128472266Y-109254286D01*
X128472266Y-109254286D02*
X128472266Y-108968572D01*
X128472266Y-108968572D02*
X128424647Y-108873334D01*
X128424647Y-108873334D02*
X128377028Y-108825715D01*
X128377028Y-108825715D02*
X128281790Y-108778096D01*
X128281790Y-108778096D02*
X128091314Y-108778096D01*
X128091314Y-108778096D02*
X127996076Y-108825715D01*
X126853219Y-108397144D02*
X127710361Y-109682858D01*
X126615123Y-108444763D02*
X126377028Y-109444763D01*
X126377028Y-109444763D02*
X126186552Y-108730477D01*
X126186552Y-108730477D02*
X125996076Y-109444763D01*
X125996076Y-109444763D02*
X125757981Y-108444763D01*
X125377028Y-109444763D02*
X125377028Y-108778096D01*
X125377028Y-108444763D02*
X125424647Y-108492382D01*
X125424647Y-108492382D02*
X125377028Y-108540001D01*
X125377028Y-108540001D02*
X125329409Y-108492382D01*
X125329409Y-108492382D02*
X125377028Y-108444763D01*
X125377028Y-108444763D02*
X125377028Y-108540001D01*
X124567505Y-108920953D02*
X124900838Y-108920953D01*
X124900838Y-109444763D02*
X124900838Y-108444763D01*
X124900838Y-108444763D02*
X124424648Y-108444763D01*
X124043695Y-109444763D02*
X124043695Y-108778096D01*
X124043695Y-108444763D02*
X124091314Y-108492382D01*
X124091314Y-108492382D02*
X124043695Y-108540001D01*
X124043695Y-108540001D02*
X123996076Y-108492382D01*
X123996076Y-108492382D02*
X124043695Y-108444763D01*
X124043695Y-108444763D02*
X124043695Y-108540001D01*
X123567505Y-109063810D02*
X122805601Y-109063810D01*
X122377029Y-108540001D02*
X122329410Y-108492382D01*
X122329410Y-108492382D02*
X122234172Y-108444763D01*
X122234172Y-108444763D02*
X121996077Y-108444763D01*
X121996077Y-108444763D02*
X121900839Y-108492382D01*
X121900839Y-108492382D02*
X121853220Y-108540001D01*
X121853220Y-108540001D02*
X121805601Y-108635239D01*
X121805601Y-108635239D02*
X121805601Y-108730477D01*
X121805601Y-108730477D02*
X121853220Y-108873334D01*
X121853220Y-108873334D02*
X122424648Y-109444763D01*
X122424648Y-109444763D02*
X121805601Y-109444763D01*
X121377029Y-109063810D02*
X120615125Y-109063810D01*
X119948458Y-108444763D02*
X119757982Y-108444763D01*
X119757982Y-108444763D02*
X119662744Y-108492382D01*
X119662744Y-108492382D02*
X119567506Y-108587620D01*
X119567506Y-108587620D02*
X119519887Y-108778096D01*
X119519887Y-108778096D02*
X119519887Y-109111429D01*
X119519887Y-109111429D02*
X119567506Y-109301905D01*
X119567506Y-109301905D02*
X119662744Y-109397144D01*
X119662744Y-109397144D02*
X119757982Y-109444763D01*
X119757982Y-109444763D02*
X119948458Y-109444763D01*
X119948458Y-109444763D02*
X120043696Y-109397144D01*
X120043696Y-109397144D02*
X120138934Y-109301905D01*
X120138934Y-109301905D02*
X120186553Y-109111429D01*
X120186553Y-109111429D02*
X120186553Y-108778096D01*
X120186553Y-108778096D02*
X120138934Y-108587620D01*
X120138934Y-108587620D02*
X120043696Y-108492382D01*
X120043696Y-108492382D02*
X119948458Y-108444763D01*
X119091315Y-109444763D02*
X119091315Y-108444763D01*
X118615125Y-109444763D02*
X118615125Y-108444763D01*
X118615125Y-108444763D02*
X118234173Y-108444763D01*
X118234173Y-108444763D02*
X118138935Y-108492382D01*
X118138935Y-108492382D02*
X118091316Y-108540001D01*
X118091316Y-108540001D02*
X118043697Y-108635239D01*
X118043697Y-108635239D02*
X118043697Y-108778096D01*
X118043697Y-108778096D02*
X118091316Y-108873334D01*
X118091316Y-108873334D02*
X118138935Y-108920953D01*
X118138935Y-108920953D02*
X118234173Y-108968572D01*
X118234173Y-108968572D02*
X118615125Y-108968572D01*
X117615125Y-109063810D02*
X116853221Y-109063810D01*
X116377030Y-108444763D02*
X116377030Y-109254286D01*
X116377030Y-109254286D02*
X116329411Y-109349524D01*
X116329411Y-109349524D02*
X116281792Y-109397144D01*
X116281792Y-109397144D02*
X116186554Y-109444763D01*
X116186554Y-109444763D02*
X115996078Y-109444763D01*
X115996078Y-109444763D02*
X115900840Y-109397144D01*
X115900840Y-109397144D02*
X115853221Y-109349524D01*
X115853221Y-109349524D02*
X115805602Y-109254286D01*
X115805602Y-109254286D02*
X115805602Y-108444763D01*
X115329411Y-109444763D02*
X115329411Y-108444763D01*
X153900839Y-110768992D02*
X153424649Y-110768992D01*
X153996077Y-111054707D02*
X153662744Y-110054707D01*
X153662744Y-110054707D02*
X153329411Y-111054707D01*
X152996077Y-110388040D02*
X152996077Y-111388040D01*
X152996077Y-110435659D02*
X152900839Y-110388040D01*
X152900839Y-110388040D02*
X152710363Y-110388040D01*
X152710363Y-110388040D02*
X152615125Y-110435659D01*
X152615125Y-110435659D02*
X152567506Y-110483278D01*
X152567506Y-110483278D02*
X152519887Y-110578516D01*
X152519887Y-110578516D02*
X152519887Y-110864230D01*
X152519887Y-110864230D02*
X152567506Y-110959468D01*
X152567506Y-110959468D02*
X152615125Y-111007088D01*
X152615125Y-111007088D02*
X152710363Y-111054707D01*
X152710363Y-111054707D02*
X152900839Y-111054707D01*
X152900839Y-111054707D02*
X152996077Y-111007088D01*
X151662744Y-111054707D02*
X151662744Y-110530897D01*
X151662744Y-110530897D02*
X151710363Y-110435659D01*
X151710363Y-110435659D02*
X151805601Y-110388040D01*
X151805601Y-110388040D02*
X151996077Y-110388040D01*
X151996077Y-110388040D02*
X152091315Y-110435659D01*
X151662744Y-111007088D02*
X151757982Y-111054707D01*
X151757982Y-111054707D02*
X151996077Y-111054707D01*
X151996077Y-111054707D02*
X152091315Y-111007088D01*
X152091315Y-111007088D02*
X152138934Y-110911849D01*
X152138934Y-110911849D02*
X152138934Y-110816611D01*
X152138934Y-110816611D02*
X152091315Y-110721373D01*
X152091315Y-110721373D02*
X151996077Y-110673754D01*
X151996077Y-110673754D02*
X151757982Y-110673754D01*
X151757982Y-110673754D02*
X151662744Y-110626135D01*
X150757982Y-111007088D02*
X150853220Y-111054707D01*
X150853220Y-111054707D02*
X151043696Y-111054707D01*
X151043696Y-111054707D02*
X151138934Y-111007088D01*
X151138934Y-111007088D02*
X151186553Y-110959468D01*
X151186553Y-110959468D02*
X151234172Y-110864230D01*
X151234172Y-110864230D02*
X151234172Y-110578516D01*
X151234172Y-110578516D02*
X151186553Y-110483278D01*
X151186553Y-110483278D02*
X151138934Y-110435659D01*
X151138934Y-110435659D02*
X151043696Y-110388040D01*
X151043696Y-110388040D02*
X150853220Y-110388040D01*
X150853220Y-110388040D02*
X150757982Y-110435659D01*
X150329410Y-111054707D02*
X150329410Y-110054707D01*
X149900839Y-111054707D02*
X149900839Y-110530897D01*
X149900839Y-110530897D02*
X149948458Y-110435659D01*
X149948458Y-110435659D02*
X150043696Y-110388040D01*
X150043696Y-110388040D02*
X150186553Y-110388040D01*
X150186553Y-110388040D02*
X150281791Y-110435659D01*
X150281791Y-110435659D02*
X150329410Y-110483278D01*
X149043696Y-111007088D02*
X149138934Y-111054707D01*
X149138934Y-111054707D02*
X149329410Y-111054707D01*
X149329410Y-111054707D02*
X149424648Y-111007088D01*
X149424648Y-111007088D02*
X149472267Y-110911849D01*
X149472267Y-110911849D02*
X149472267Y-110530897D01*
X149472267Y-110530897D02*
X149424648Y-110435659D01*
X149424648Y-110435659D02*
X149329410Y-110388040D01*
X149329410Y-110388040D02*
X149138934Y-110388040D01*
X149138934Y-110388040D02*
X149043696Y-110435659D01*
X149043696Y-110435659D02*
X148996077Y-110530897D01*
X148996077Y-110530897D02*
X148996077Y-110626135D01*
X148996077Y-110626135D02*
X149472267Y-110721373D01*
X147329410Y-111054707D02*
X147805600Y-111054707D01*
X147805600Y-111054707D02*
X147805600Y-110054707D01*
X146996076Y-111054707D02*
X146996076Y-110388040D01*
X146996076Y-110054707D02*
X147043695Y-110102326D01*
X147043695Y-110102326D02*
X146996076Y-110149945D01*
X146996076Y-110149945D02*
X146948457Y-110102326D01*
X146948457Y-110102326D02*
X146996076Y-110054707D01*
X146996076Y-110054707D02*
X146996076Y-110149945D01*
X146091315Y-111007088D02*
X146186553Y-111054707D01*
X146186553Y-111054707D02*
X146377029Y-111054707D01*
X146377029Y-111054707D02*
X146472267Y-111007088D01*
X146472267Y-111007088D02*
X146519886Y-110959468D01*
X146519886Y-110959468D02*
X146567505Y-110864230D01*
X146567505Y-110864230D02*
X146567505Y-110578516D01*
X146567505Y-110578516D02*
X146519886Y-110483278D01*
X146519886Y-110483278D02*
X146472267Y-110435659D01*
X146472267Y-110435659D02*
X146377029Y-110388040D01*
X146377029Y-110388040D02*
X146186553Y-110388040D01*
X146186553Y-110388040D02*
X146091315Y-110435659D01*
X145281791Y-111007088D02*
X145377029Y-111054707D01*
X145377029Y-111054707D02*
X145567505Y-111054707D01*
X145567505Y-111054707D02*
X145662743Y-111007088D01*
X145662743Y-111007088D02*
X145710362Y-110911849D01*
X145710362Y-110911849D02*
X145710362Y-110530897D01*
X145710362Y-110530897D02*
X145662743Y-110435659D01*
X145662743Y-110435659D02*
X145567505Y-110388040D01*
X145567505Y-110388040D02*
X145377029Y-110388040D01*
X145377029Y-110388040D02*
X145281791Y-110435659D01*
X145281791Y-110435659D02*
X145234172Y-110530897D01*
X145234172Y-110530897D02*
X145234172Y-110626135D01*
X145234172Y-110626135D02*
X145710362Y-110721373D01*
X144805600Y-110388040D02*
X144805600Y-111054707D01*
X144805600Y-110483278D02*
X144757981Y-110435659D01*
X144757981Y-110435659D02*
X144662743Y-110388040D01*
X144662743Y-110388040D02*
X144519886Y-110388040D01*
X144519886Y-110388040D02*
X144424648Y-110435659D01*
X144424648Y-110435659D02*
X144377029Y-110530897D01*
X144377029Y-110530897D02*
X144377029Y-111054707D01*
X143948457Y-111007088D02*
X143853219Y-111054707D01*
X143853219Y-111054707D02*
X143662743Y-111054707D01*
X143662743Y-111054707D02*
X143567505Y-111007088D01*
X143567505Y-111007088D02*
X143519886Y-110911849D01*
X143519886Y-110911849D02*
X143519886Y-110864230D01*
X143519886Y-110864230D02*
X143567505Y-110768992D01*
X143567505Y-110768992D02*
X143662743Y-110721373D01*
X143662743Y-110721373D02*
X143805600Y-110721373D01*
X143805600Y-110721373D02*
X143900838Y-110673754D01*
X143900838Y-110673754D02*
X143948457Y-110578516D01*
X143948457Y-110578516D02*
X143948457Y-110530897D01*
X143948457Y-110530897D02*
X143900838Y-110435659D01*
X143900838Y-110435659D02*
X143805600Y-110388040D01*
X143805600Y-110388040D02*
X143662743Y-110388040D01*
X143662743Y-110388040D02*
X143567505Y-110435659D01*
X142710362Y-111007088D02*
X142805600Y-111054707D01*
X142805600Y-111054707D02*
X142996076Y-111054707D01*
X142996076Y-111054707D02*
X143091314Y-111007088D01*
X143091314Y-111007088D02*
X143138933Y-110911849D01*
X143138933Y-110911849D02*
X143138933Y-110530897D01*
X143138933Y-110530897D02*
X143091314Y-110435659D01*
X143091314Y-110435659D02*
X142996076Y-110388040D01*
X142996076Y-110388040D02*
X142805600Y-110388040D01*
X142805600Y-110388040D02*
X142710362Y-110435659D01*
X142710362Y-110435659D02*
X142662743Y-110530897D01*
X142662743Y-110530897D02*
X142662743Y-110626135D01*
X142662743Y-110626135D02*
X143138933Y-110721373D01*
X142186552Y-111007088D02*
X142186552Y-111054707D01*
X142186552Y-111054707D02*
X142234171Y-111149945D01*
X142234171Y-111149945D02*
X142281790Y-111197564D01*
X141138933Y-110054707D02*
X140805600Y-111054707D01*
X140805600Y-111054707D02*
X140472267Y-110054707D01*
X139757981Y-111007088D02*
X139853219Y-111054707D01*
X139853219Y-111054707D02*
X140043695Y-111054707D01*
X140043695Y-111054707D02*
X140138933Y-111007088D01*
X140138933Y-111007088D02*
X140186552Y-110911849D01*
X140186552Y-110911849D02*
X140186552Y-110530897D01*
X140186552Y-110530897D02*
X140138933Y-110435659D01*
X140138933Y-110435659D02*
X140043695Y-110388040D01*
X140043695Y-110388040D02*
X139853219Y-110388040D01*
X139853219Y-110388040D02*
X139757981Y-110435659D01*
X139757981Y-110435659D02*
X139710362Y-110530897D01*
X139710362Y-110530897D02*
X139710362Y-110626135D01*
X139710362Y-110626135D02*
X140186552Y-110721373D01*
X139281790Y-111054707D02*
X139281790Y-110388040D01*
X139281790Y-110578516D02*
X139234171Y-110483278D01*
X139234171Y-110483278D02*
X139186552Y-110435659D01*
X139186552Y-110435659D02*
X139091314Y-110388040D01*
X139091314Y-110388040D02*
X138996076Y-110388040D01*
X138710361Y-111007088D02*
X138615123Y-111054707D01*
X138615123Y-111054707D02*
X138424647Y-111054707D01*
X138424647Y-111054707D02*
X138329409Y-111007088D01*
X138329409Y-111007088D02*
X138281790Y-110911849D01*
X138281790Y-110911849D02*
X138281790Y-110864230D01*
X138281790Y-110864230D02*
X138329409Y-110768992D01*
X138329409Y-110768992D02*
X138424647Y-110721373D01*
X138424647Y-110721373D02*
X138567504Y-110721373D01*
X138567504Y-110721373D02*
X138662742Y-110673754D01*
X138662742Y-110673754D02*
X138710361Y-110578516D01*
X138710361Y-110578516D02*
X138710361Y-110530897D01*
X138710361Y-110530897D02*
X138662742Y-110435659D01*
X138662742Y-110435659D02*
X138567504Y-110388040D01*
X138567504Y-110388040D02*
X138424647Y-110388040D01*
X138424647Y-110388040D02*
X138329409Y-110435659D01*
X137853218Y-111054707D02*
X137853218Y-110388040D01*
X137853218Y-110054707D02*
X137900837Y-110102326D01*
X137900837Y-110102326D02*
X137853218Y-110149945D01*
X137853218Y-110149945D02*
X137805599Y-110102326D01*
X137805599Y-110102326D02*
X137853218Y-110054707D01*
X137853218Y-110054707D02*
X137853218Y-110149945D01*
X137234171Y-111054707D02*
X137329409Y-111007088D01*
X137329409Y-111007088D02*
X137377028Y-110959468D01*
X137377028Y-110959468D02*
X137424647Y-110864230D01*
X137424647Y-110864230D02*
X137424647Y-110578516D01*
X137424647Y-110578516D02*
X137377028Y-110483278D01*
X137377028Y-110483278D02*
X137329409Y-110435659D01*
X137329409Y-110435659D02*
X137234171Y-110388040D01*
X137234171Y-110388040D02*
X137091314Y-110388040D01*
X137091314Y-110388040D02*
X136996076Y-110435659D01*
X136996076Y-110435659D02*
X136948457Y-110483278D01*
X136948457Y-110483278D02*
X136900838Y-110578516D01*
X136900838Y-110578516D02*
X136900838Y-110864230D01*
X136900838Y-110864230D02*
X136948457Y-110959468D01*
X136948457Y-110959468D02*
X136996076Y-111007088D01*
X136996076Y-111007088D02*
X137091314Y-111054707D01*
X137091314Y-111054707D02*
X137234171Y-111054707D01*
X136472266Y-110388040D02*
X136472266Y-111054707D01*
X136472266Y-110483278D02*
X136424647Y-110435659D01*
X136424647Y-110435659D02*
X136329409Y-110388040D01*
X136329409Y-110388040D02*
X136186552Y-110388040D01*
X136186552Y-110388040D02*
X136091314Y-110435659D01*
X136091314Y-110435659D02*
X136043695Y-110530897D01*
X136043695Y-110530897D02*
X136043695Y-111054707D01*
X134853218Y-110149945D02*
X134805599Y-110102326D01*
X134805599Y-110102326D02*
X134710361Y-110054707D01*
X134710361Y-110054707D02*
X134472266Y-110054707D01*
X134472266Y-110054707D02*
X134377028Y-110102326D01*
X134377028Y-110102326D02*
X134329409Y-110149945D01*
X134329409Y-110149945D02*
X134281790Y-110245183D01*
X134281790Y-110245183D02*
X134281790Y-110340421D01*
X134281790Y-110340421D02*
X134329409Y-110483278D01*
X134329409Y-110483278D02*
X134900837Y-111054707D01*
X134900837Y-111054707D02*
X134281790Y-111054707D01*
X133853218Y-110959468D02*
X133805599Y-111007088D01*
X133805599Y-111007088D02*
X133853218Y-111054707D01*
X133853218Y-111054707D02*
X133900837Y-111007088D01*
X133900837Y-111007088D02*
X133853218Y-110959468D01*
X133853218Y-110959468D02*
X133853218Y-111054707D01*
X133186552Y-110054707D02*
X133091314Y-110054707D01*
X133091314Y-110054707D02*
X132996076Y-110102326D01*
X132996076Y-110102326D02*
X132948457Y-110149945D01*
X132948457Y-110149945D02*
X132900838Y-110245183D01*
X132900838Y-110245183D02*
X132853219Y-110435659D01*
X132853219Y-110435659D02*
X132853219Y-110673754D01*
X132853219Y-110673754D02*
X132900838Y-110864230D01*
X132900838Y-110864230D02*
X132948457Y-110959468D01*
X132948457Y-110959468D02*
X132996076Y-111007088D01*
X132996076Y-111007088D02*
X133091314Y-111054707D01*
X133091314Y-111054707D02*
X133186552Y-111054707D01*
X133186552Y-111054707D02*
X133281790Y-111007088D01*
X133281790Y-111007088D02*
X133329409Y-110959468D01*
X133329409Y-110959468D02*
X133377028Y-110864230D01*
X133377028Y-110864230D02*
X133424647Y-110673754D01*
X133424647Y-110673754D02*
X133424647Y-110435659D01*
X133424647Y-110435659D02*
X133377028Y-110245183D01*
X133377028Y-110245183D02*
X133329409Y-110149945D01*
X133329409Y-110149945D02*
X133281790Y-110102326D01*
X133281790Y-110102326D02*
X133186552Y-110054707D01*
%LPC*%
D11*
G36*
X177210125Y-90288502D02*
G01*
X177191807Y-90538326D01*
X177142958Y-90778371D01*
X177053962Y-91031125D01*
X176945413Y-91246698D01*
X176800939Y-91463442D01*
X176630201Y-91658829D01*
X176453459Y-91815130D01*
X176238656Y-91961992D01*
X176002497Y-92082591D01*
X175980009Y-92092208D01*
X175726350Y-92177845D01*
X175485733Y-92223641D01*
X175235574Y-92238906D01*
X175210054Y-92238753D01*
X174960230Y-92220435D01*
X174720185Y-92171587D01*
X174467431Y-92082591D01*
X174251977Y-91974041D01*
X174035640Y-91829567D01*
X174031728Y-91826136D01*
X174504067Y-91826136D01*
X174623341Y-91877626D01*
X174860662Y-91949478D01*
X174988711Y-91973118D01*
X175235574Y-91991000D01*
X175364582Y-91986093D01*
X175609266Y-91949478D01*
X175735296Y-91916170D01*
X175967082Y-91826136D01*
X175854310Y-91716055D01*
X175637354Y-91580672D01*
X175479728Y-91526114D01*
X175235574Y-91496408D01*
X175078896Y-91508257D01*
X174833795Y-91580672D01*
X174688060Y-91661833D01*
X174504067Y-91826136D01*
X174031728Y-91826136D01*
X173840948Y-91658829D01*
X173684003Y-91482087D01*
X173536708Y-91267285D01*
X173415965Y-91031125D01*
X173406348Y-91008636D01*
X173320710Y-90754806D01*
X173274915Y-90513783D01*
X173274739Y-90510888D01*
X173524653Y-90510888D01*
X173579608Y-90760626D01*
X173676084Y-91001816D01*
X176797507Y-91001816D01*
X176804306Y-90987584D01*
X176893951Y-90750134D01*
X176945274Y-90510888D01*
X173524653Y-90510888D01*
X173274739Y-90510888D01*
X173259650Y-90262981D01*
X177210278Y-90262981D01*
X177210125Y-90288502D01*
G37*
G36*
X174021687Y-87822995D02*
G01*
X174140145Y-87903595D01*
X174220745Y-88022053D01*
X174248833Y-88164935D01*
X174248833Y-89150455D01*
X174220745Y-89293337D01*
X174140145Y-89411795D01*
X174021687Y-89492395D01*
X173878805Y-89521704D01*
X173734702Y-89492395D01*
X173616244Y-89413016D01*
X173536865Y-89297001D01*
X173507556Y-89150455D01*
X173507556Y-88164935D01*
X173536865Y-88020832D01*
X173616244Y-87902374D01*
X173734702Y-87822995D01*
X173878805Y-87793686D01*
X174021687Y-87822995D01*
G37*
G36*
X176737668Y-87822995D02*
G01*
X176854904Y-87902374D01*
X176933062Y-88020832D01*
X176962371Y-88164935D01*
X176962371Y-89150455D01*
X176933062Y-89297001D01*
X176854904Y-89413016D01*
X176737668Y-89492395D01*
X176592343Y-89521704D01*
X176448240Y-89492395D01*
X176331004Y-89411795D01*
X176254067Y-89293337D01*
X176224758Y-89150455D01*
X176224758Y-88164935D01*
X176254067Y-88022053D01*
X176331004Y-87903595D01*
X176448240Y-87822995D01*
X176592343Y-87793686D01*
X176737668Y-87822995D01*
G37*
G36*
X175505997Y-85579930D02*
G01*
X175771382Y-85606491D01*
X176031730Y-85650760D01*
X176287040Y-85712737D01*
X176535099Y-85790284D01*
X176774915Y-85882486D01*
X177006488Y-85989342D01*
X177229817Y-86110853D01*
X177443606Y-86246179D01*
X177647778Y-86394480D01*
X177842333Y-86555757D01*
X178027270Y-86730009D01*
X178200988Y-86915023D01*
X178361883Y-87109806D01*
X178509955Y-87314360D01*
X178645205Y-87528683D01*
X178766792Y-87751554D01*
X178873877Y-87982974D01*
X178966460Y-88222943D01*
X179044542Y-88471460D01*
X179105984Y-88726236D01*
X179149871Y-88986202D01*
X179176204Y-89251358D01*
X179184981Y-89521704D01*
X179176204Y-89792127D01*
X179149871Y-90057512D01*
X179105984Y-90317860D01*
X179044542Y-90573170D01*
X178966460Y-90821229D01*
X178873877Y-91061045D01*
X178766792Y-91292618D01*
X178645205Y-91515947D01*
X178509955Y-91729736D01*
X178361883Y-91933908D01*
X178200988Y-92128462D01*
X178027270Y-92313400D01*
X177842333Y-92487652D01*
X177647778Y-92648929D01*
X177443606Y-92797230D01*
X177229817Y-92932556D01*
X177006488Y-93054066D01*
X176774915Y-93160923D01*
X176535099Y-93253124D01*
X176287040Y-93330672D01*
X176031730Y-93392114D01*
X175771382Y-93436001D01*
X175505997Y-93462334D01*
X175235574Y-93471111D01*
X174964694Y-93462334D01*
X174699156Y-93436001D01*
X174438961Y-93392114D01*
X174184109Y-93330672D01*
X173936050Y-93253124D01*
X173696234Y-93160923D01*
X173464661Y-93054066D01*
X173241332Y-92932556D01*
X173027008Y-92797230D01*
X172822455Y-92648929D01*
X172627671Y-92487652D01*
X172442657Y-92313400D01*
X172268940Y-92128462D01*
X172108045Y-91933908D01*
X171959973Y-91729736D01*
X171824723Y-91515947D01*
X171703212Y-91292618D01*
X171596356Y-91061045D01*
X171504154Y-90821229D01*
X171426607Y-90573170D01*
X171364631Y-90317860D01*
X171320362Y-90057512D01*
X171293800Y-89792127D01*
X171284946Y-89521704D01*
X171779538Y-89521704D01*
X171782579Y-89670057D01*
X171803380Y-89932734D01*
X171843888Y-90189807D01*
X171904102Y-90441279D01*
X171945121Y-90577675D01*
X172031428Y-90816277D01*
X172133770Y-91045992D01*
X172252148Y-91266819D01*
X172324574Y-91385303D01*
X172466061Y-91589859D01*
X172621844Y-91783209D01*
X172791925Y-91965354D01*
X172891733Y-92061256D01*
X173080103Y-92222911D01*
X173279678Y-92370462D01*
X173490459Y-92503909D01*
X173612074Y-92572006D01*
X173838043Y-92681959D01*
X174073092Y-92775682D01*
X174317221Y-92853177D01*
X174455884Y-92888710D01*
X174709985Y-92937493D01*
X174969882Y-92966763D01*
X175235574Y-92976519D01*
X175383897Y-92973508D01*
X175646370Y-92952911D01*
X175903047Y-92912800D01*
X176153928Y-92853177D01*
X176290324Y-92812128D01*
X176528926Y-92725617D01*
X176758641Y-92622878D01*
X176979468Y-92503909D01*
X177097982Y-92431513D01*
X177302742Y-92290230D01*
X177496489Y-92134844D01*
X177679224Y-91965354D01*
X177775126Y-91865546D01*
X177936781Y-91677176D01*
X178084332Y-91477601D01*
X178217780Y-91266819D01*
X178285555Y-91145235D01*
X178395228Y-90919470D01*
X178489058Y-90684818D01*
X178567047Y-90441279D01*
X178602580Y-90302264D01*
X178651363Y-90047680D01*
X178680633Y-89787494D01*
X178690389Y-89521704D01*
X178687378Y-89373382D01*
X178666781Y-89110909D01*
X178626670Y-88854232D01*
X178567047Y-88603351D01*
X178525676Y-88466603D01*
X178438886Y-88227518D01*
X178336254Y-87997513D01*
X178217780Y-87776589D01*
X178145383Y-87658105D01*
X178004100Y-87453549D01*
X177848714Y-87260199D01*
X177679224Y-87078055D01*
X177579064Y-86981801D01*
X177390211Y-86819663D01*
X177190346Y-86671822D01*
X176979468Y-86538278D01*
X176857884Y-86470533D01*
X176632119Y-86361064D01*
X176397467Y-86267630D01*
X176153928Y-86190232D01*
X176015265Y-86154347D01*
X175761164Y-86105081D01*
X175501267Y-86075521D01*
X175235574Y-86065668D01*
X175087252Y-86068709D01*
X174824779Y-86089510D01*
X174568102Y-86130018D01*
X174317221Y-86190232D01*
X174180473Y-86231251D01*
X173941388Y-86317558D01*
X173711383Y-86419900D01*
X173490459Y-86538278D01*
X173371975Y-86610704D01*
X173167419Y-86752191D01*
X172974069Y-86907974D01*
X172791925Y-87078055D01*
X172695671Y-87177863D01*
X172533533Y-87366233D01*
X172385692Y-87565808D01*
X172252148Y-87776589D01*
X172184403Y-87898204D01*
X172074934Y-88124173D01*
X171981500Y-88359222D01*
X171904102Y-88603351D01*
X171868217Y-88742014D01*
X171818951Y-88996115D01*
X171789391Y-89256012D01*
X171779538Y-89521704D01*
X171284946Y-89521704D01*
X171293800Y-89251358D01*
X171320362Y-88986202D01*
X171364631Y-88726236D01*
X171426607Y-88471460D01*
X171504154Y-88222943D01*
X171596356Y-87982974D01*
X171703212Y-87751554D01*
X171824723Y-87528683D01*
X171959973Y-87314360D01*
X172108045Y-87109806D01*
X172268940Y-86915023D01*
X172442657Y-86730009D01*
X172627671Y-86555757D01*
X172822455Y-86394480D01*
X173027008Y-86246179D01*
X173241332Y-86110853D01*
X173464661Y-85989342D01*
X173696234Y-85882486D01*
X173936050Y-85790284D01*
X174184109Y-85712737D01*
X174438961Y-85650760D01*
X174699156Y-85606491D01*
X174964694Y-85579930D01*
X175235574Y-85571076D01*
X175505997Y-85579930D01*
G37*
D12*
X177800000Y-96520000D03*
D13*
X163649000Y-106830000D03*
X162660485Y-109216485D03*
X162660485Y-104443515D03*
X160274000Y-110205000D03*
D14*
X160274000Y-106830000D03*
D13*
X160274000Y-103455000D03*
X157887515Y-109216485D03*
X157887515Y-104443515D03*
X156899000Y-106830000D03*
D15*
X124460000Y-86360000D03*
D16*
X124460000Y-88900000D03*
X124460000Y-91440000D03*
X124460000Y-93980000D03*
X124460000Y-96520000D03*
X124460000Y-99060000D03*
X124460000Y-101600000D03*
X124460000Y-104140000D03*
X127000000Y-86360000D03*
X127000000Y-88900000D03*
X127000000Y-91440000D03*
X127000000Y-93980000D03*
X127000000Y-96520000D03*
X127000000Y-99060000D03*
X127000000Y-101600000D03*
X127000000Y-104140000D03*
X144780000Y-86360000D03*
X144780000Y-88900000D03*
X144780000Y-91440000D03*
X144780000Y-93980000D03*
X144780000Y-96520000D03*
X144780000Y-99060000D03*
X144780000Y-101600000D03*
X144780000Y-104140000D03*
X147320000Y-86360000D03*
X147320000Y-88900000D03*
X147320000Y-91440000D03*
X147320000Y-93980000D03*
X147320000Y-96520000D03*
X147320000Y-99060000D03*
X147320000Y-101600000D03*
X147320000Y-104140000D03*
D17*
X163068000Y-89916000D03*
X160528000Y-89916000D03*
D18*
X157988000Y-89916000D03*
D19*
X164338000Y-97536000D03*
D20*
X164338000Y-95536000D03*
D19*
X156718000Y-97536000D03*
D20*
X156718000Y-95536000D03*
D21*
X176220000Y-106680000D03*
D22*
X172720000Y-106680000D03*
D23*
X116100000Y-93850000D03*
D24*
X114300000Y-95250000D03*
D25*
X116840000Y-96520000D03*
X114300000Y-97790000D03*
X116840000Y-99060000D03*
X114300000Y-100330000D03*
X116840000Y-101600000D03*
X114300000Y-102870000D03*
X116840000Y-104140000D03*
X114300000Y-105410000D03*
X116840000Y-106680000D03*
%LPD*%
M02*
