%TF.GenerationSoftware,KiCad,Pcbnew,8.0.2*%
%TF.CreationDate,2024-05-11T15:05:26+02:00*%
%TF.ProjectId,WiFi-2-OIP-UI,57694669-2d32-42d4-9f49-502d55492e6b,V1.0*%
%TF.SameCoordinates,Original*%
%TF.FileFunction,Drillmap*%
%TF.FilePolarity,Positive*%
%FSLAX45Y45*%
G04 Gerber Fmt 4.5, Leading zero omitted, Abs format (unit mm)*
G04 Created by KiCad (PCBNEW 8.0.2) date 2024-05-11 15:05:26*
%MOMM*%
%LPD*%
G01*
G04 APERTURE LIST*
%ADD10C,0.050000*%
%ADD11C,0.200000*%
%ADD12C,0.100000*%
%ADD13C,0.110000*%
%ADD14C,0.120000*%
%ADD15C,0.450000*%
G04 APERTURE END LIST*
D10*
X17780000Y-10096500D02*
X17780000Y-10160000D01*
X18034000Y-10033000D02*
X17843500Y-10033000D01*
X17780000Y-10096500D02*
G75*
G02*
X17843500Y-10033000I63500J0D01*
G01*
X15113000Y-8572500D02*
X15113000Y-8636000D01*
X17018000Y-8572500D02*
X17018000Y-8636000D01*
X18034000Y-10414000D02*
X18034000Y-11239500D01*
X17907000Y-10287000D02*
G75*
G02*
X17780000Y-10160000I0J127000D01*
G01*
X17907000Y-10287000D02*
G75*
G02*
X18034000Y-10414000I0J-127000D01*
G01*
X17589500Y-8445500D02*
X17145000Y-8445500D01*
X15240000Y-8763000D02*
X16891000Y-8763000D01*
X17018000Y-8636000D02*
G75*
G02*
X16891000Y-8763000I-127000J0D01*
G01*
X17018000Y-8572500D02*
G75*
G02*
X17145000Y-8445500I127000J0D01*
G01*
X14986000Y-8445500D02*
G75*
G02*
X15113000Y-8572500I0J-127000D01*
G01*
X11303000Y-11049000D02*
X12090400Y-11049000D01*
X17589500Y-8445500D02*
G75*
G02*
X18034000Y-8890000I0J-444500D01*
G01*
X12192000Y-8572500D02*
G75*
G02*
X12319000Y-8445500I127000J0D01*
G01*
X12192000Y-9017000D02*
G75*
G02*
X12065000Y-9144000I-127000J0D01*
G01*
X11176000Y-9271000D02*
G75*
G02*
X11303000Y-9144000I127000J0D01*
G01*
X11303000Y-11049000D02*
G75*
G02*
X11176000Y-10922000I0J127000D01*
G01*
X12192000Y-9017000D02*
X12192000Y-8572500D01*
X11303000Y-9144000D02*
X12065000Y-9144000D01*
X11176000Y-9271000D02*
X11176000Y-10922000D01*
X14986000Y-8445500D02*
X12319000Y-8445500D01*
X18034000Y-10033000D02*
X18034000Y-8890000D01*
X12268200Y-11239500D02*
X18034000Y-11239500D01*
X15240000Y-8763000D02*
G75*
G02*
X15113000Y-8636000I0J127000D01*
G01*
X12179300Y-11137900D02*
X12179300Y-11150600D01*
X12268200Y-11239500D02*
G75*
G02*
X12179300Y-11150600I0J88900D01*
G01*
X12090400Y-11049000D02*
G75*
G02*
X12179300Y-11137900I0J-88900D01*
G01*
D11*
D12*
X15659900Y-10653000D02*
X15719900Y-10713000D01*
X15719900Y-10653000D02*
X15659900Y-10713000D01*
X15758751Y-10414352D02*
X15818751Y-10474352D01*
X15818751Y-10414352D02*
X15758751Y-10474352D01*
X15758751Y-10891649D02*
X15818751Y-10951649D01*
X15818751Y-10891649D02*
X15758751Y-10951649D01*
X15997400Y-10315500D02*
X16057400Y-10375500D01*
X16057400Y-10315500D02*
X15997400Y-10375500D01*
X15997400Y-10990500D02*
X16057400Y-11050500D01*
X16057400Y-10990500D02*
X15997400Y-11050500D01*
X16236048Y-10414352D02*
X16296048Y-10474352D01*
X16296048Y-10414352D02*
X16236048Y-10474352D01*
X16236048Y-10891649D02*
X16296048Y-10951649D01*
X16296048Y-10891649D02*
X16236048Y-10951649D01*
X16334900Y-10653000D02*
X16394900Y-10713000D01*
X16394900Y-10653000D02*
X16334900Y-10713000D01*
X11470000Y-9525000D02*
G75*
G02*
X11390000Y-9525000I-40000J0D01*
G01*
X11390000Y-9525000D02*
G75*
G02*
X11470000Y-9525000I40000J0D01*
G01*
X11470000Y-9779000D02*
G75*
G02*
X11390000Y-9779000I-40000J0D01*
G01*
X11390000Y-9779000D02*
G75*
G02*
X11470000Y-9779000I40000J0D01*
G01*
X11470000Y-10033000D02*
G75*
G02*
X11390000Y-10033000I-40000J0D01*
G01*
X11390000Y-10033000D02*
G75*
G02*
X11470000Y-10033000I40000J0D01*
G01*
X11470000Y-10287000D02*
G75*
G02*
X11390000Y-10287000I-40000J0D01*
G01*
X11390000Y-10287000D02*
G75*
G02*
X11470000Y-10287000I40000J0D01*
G01*
X11470000Y-10541000D02*
G75*
G02*
X11390000Y-10541000I-40000J0D01*
G01*
X11390000Y-10541000D02*
G75*
G02*
X11470000Y-10541000I40000J0D01*
G01*
X11724000Y-9652000D02*
G75*
G02*
X11644000Y-9652000I-40000J0D01*
G01*
X11644000Y-9652000D02*
G75*
G02*
X11724000Y-9652000I40000J0D01*
G01*
X11724000Y-9906000D02*
G75*
G02*
X11644000Y-9906000I-40000J0D01*
G01*
X11644000Y-9906000D02*
G75*
G02*
X11724000Y-9906000I40000J0D01*
G01*
X11724000Y-10160000D02*
G75*
G02*
X11644000Y-10160000I-40000J0D01*
G01*
X11644000Y-10160000D02*
G75*
G02*
X11724000Y-10160000I40000J0D01*
G01*
X11724000Y-10414000D02*
G75*
G02*
X11644000Y-10414000I-40000J0D01*
G01*
X11644000Y-10414000D02*
G75*
G02*
X11724000Y-10414000I40000J0D01*
G01*
X11724000Y-10668000D02*
G75*
G02*
X11644000Y-10668000I-40000J0D01*
G01*
X11644000Y-10668000D02*
G75*
G02*
X11724000Y-10668000I40000J0D01*
G01*
X15711800Y-9553600D02*
G75*
G02*
X15631800Y-9553600I-40000J0D01*
G01*
X15631800Y-9553600D02*
G75*
G02*
X15711800Y-9553600I40000J0D01*
G01*
X15711800Y-9753600D02*
G75*
G02*
X15631800Y-9753600I-40000J0D01*
G01*
X15631800Y-9753600D02*
G75*
G02*
X15711800Y-9753600I40000J0D01*
G01*
X16473800Y-9553600D02*
G75*
G02*
X16393800Y-9553600I-40000J0D01*
G01*
X16393800Y-9553600D02*
G75*
G02*
X16473800Y-9553600I40000J0D01*
G01*
X16473800Y-9753600D02*
G75*
G02*
X16393800Y-9753600I-40000J0D01*
G01*
X16393800Y-9753600D02*
G75*
G02*
X16473800Y-9753600I40000J0D01*
G01*
X12446000Y-8586000D02*
X12446000Y-8686000D01*
X12396000Y-8636000D02*
X12496000Y-8636000D01*
X12446000Y-8840000D02*
X12446000Y-8940000D01*
X12396000Y-8890000D02*
X12496000Y-8890000D01*
X12446000Y-9094000D02*
X12446000Y-9194000D01*
X12396000Y-9144000D02*
X12496000Y-9144000D01*
X12446000Y-9348000D02*
X12446000Y-9448000D01*
X12396000Y-9398000D02*
X12496000Y-9398000D01*
X12446000Y-9602000D02*
X12446000Y-9702000D01*
X12396000Y-9652000D02*
X12496000Y-9652000D01*
X12446000Y-9856000D02*
X12446000Y-9956000D01*
X12396000Y-9906000D02*
X12496000Y-9906000D01*
X12446000Y-10110000D02*
X12446000Y-10210000D01*
X12396000Y-10160000D02*
X12496000Y-10160000D01*
X12446000Y-10364000D02*
X12446000Y-10464000D01*
X12396000Y-10414000D02*
X12496000Y-10414000D01*
X12700000Y-8586000D02*
X12700000Y-8686000D01*
X12650000Y-8636000D02*
X12750000Y-8636000D01*
X12700000Y-8840000D02*
X12700000Y-8940000D01*
X12650000Y-8890000D02*
X12750000Y-8890000D01*
X12700000Y-9094000D02*
X12700000Y-9194000D01*
X12650000Y-9144000D02*
X12750000Y-9144000D01*
X12700000Y-9348000D02*
X12700000Y-9448000D01*
X12650000Y-9398000D02*
X12750000Y-9398000D01*
X12700000Y-9602000D02*
X12700000Y-9702000D01*
X12650000Y-9652000D02*
X12750000Y-9652000D01*
X12700000Y-9856000D02*
X12700000Y-9956000D01*
X12650000Y-9906000D02*
X12750000Y-9906000D01*
X12700000Y-10110000D02*
X12700000Y-10210000D01*
X12650000Y-10160000D02*
X12750000Y-10160000D01*
X12700000Y-10364000D02*
X12700000Y-10464000D01*
X12650000Y-10414000D02*
X12750000Y-10414000D01*
X14478000Y-8586000D02*
X14478000Y-8686000D01*
X14428000Y-8636000D02*
X14528000Y-8636000D01*
X14478000Y-8840000D02*
X14478000Y-8940000D01*
X14428000Y-8890000D02*
X14528000Y-8890000D01*
X14478000Y-9094000D02*
X14478000Y-9194000D01*
X14428000Y-9144000D02*
X14528000Y-9144000D01*
X14478000Y-9348000D02*
X14478000Y-9448000D01*
X14428000Y-9398000D02*
X14528000Y-9398000D01*
X14478000Y-9602000D02*
X14478000Y-9702000D01*
X14428000Y-9652000D02*
X14528000Y-9652000D01*
X14478000Y-9856000D02*
X14478000Y-9956000D01*
X14428000Y-9906000D02*
X14528000Y-9906000D01*
X14478000Y-10110000D02*
X14478000Y-10210000D01*
X14428000Y-10160000D02*
X14528000Y-10160000D01*
X14478000Y-10364000D02*
X14478000Y-10464000D01*
X14428000Y-10414000D02*
X14528000Y-10414000D01*
X14732000Y-8586000D02*
X14732000Y-8686000D01*
X14682000Y-8636000D02*
X14782000Y-8636000D01*
X14732000Y-8840000D02*
X14732000Y-8940000D01*
X14682000Y-8890000D02*
X14782000Y-8890000D01*
X14732000Y-9094000D02*
X14732000Y-9194000D01*
X14682000Y-9144000D02*
X14782000Y-9144000D01*
X14732000Y-9348000D02*
X14732000Y-9448000D01*
X14682000Y-9398000D02*
X14782000Y-9398000D01*
X14732000Y-9602000D02*
X14732000Y-9702000D01*
X14682000Y-9652000D02*
X14782000Y-9652000D01*
X14732000Y-9856000D02*
X14732000Y-9956000D01*
X14682000Y-9906000D02*
X14782000Y-9906000D01*
X14732000Y-10110000D02*
X14732000Y-10210000D01*
X14682000Y-10160000D02*
X14782000Y-10160000D01*
X14732000Y-10364000D02*
X14732000Y-10464000D01*
X14682000Y-10414000D02*
X14782000Y-10414000D01*
D13*
X15837691Y-9030491D02*
X15837691Y-8952709D01*
X15759909Y-8952709D01*
X15759909Y-9030491D01*
X15837691Y-9030491D01*
X16091691Y-9030491D02*
X16091691Y-8952709D01*
X16013909Y-8952709D01*
X16013909Y-9030491D01*
X16091691Y-9030491D01*
X16345691Y-9030491D02*
X16345691Y-8952709D01*
X16267909Y-8952709D01*
X16267909Y-9030491D01*
X16345691Y-9030491D01*
D14*
X17272000Y-10728000D02*
X17332000Y-10668000D01*
X17272000Y-10608000D01*
X17212000Y-10668000D01*
X17272000Y-10728000D01*
X17622000Y-10728000D02*
X17682000Y-10668000D01*
X17622000Y-10608000D01*
X17562000Y-10668000D01*
X17622000Y-10728000D01*
X17780000Y-9712000D02*
X17840000Y-9652000D01*
X17780000Y-9592000D01*
X17720000Y-9652000D01*
X17780000Y-9712000D01*
D15*
X15802400Y-10458000D02*
X16252400Y-10908000D01*
X16252400Y-10458000D02*
X15802400Y-10908000D01*
X16252400Y-10683000D02*
G75*
G02*
X15802400Y-10683000I-225000J0D01*
G01*
X15802400Y-10683000D02*
G75*
G02*
X16252400Y-10683000I225000J0D01*
G01*
D11*
X11434277Y-11553484D02*
X11434277Y-11353484D01*
X11434277Y-11353484D02*
X11481896Y-11353484D01*
X11481896Y-11353484D02*
X11510467Y-11363008D01*
X11510467Y-11363008D02*
X11529515Y-11382055D01*
X11529515Y-11382055D02*
X11539039Y-11401103D01*
X11539039Y-11401103D02*
X11548562Y-11439198D01*
X11548562Y-11439198D02*
X11548562Y-11467769D01*
X11548562Y-11467769D02*
X11539039Y-11505865D01*
X11539039Y-11505865D02*
X11529515Y-11524912D01*
X11529515Y-11524912D02*
X11510467Y-11543960D01*
X11510467Y-11543960D02*
X11481896Y-11553484D01*
X11481896Y-11553484D02*
X11434277Y-11553484D01*
X11634277Y-11553484D02*
X11634277Y-11420150D01*
X11634277Y-11458246D02*
X11643801Y-11439198D01*
X11643801Y-11439198D02*
X11653324Y-11429674D01*
X11653324Y-11429674D02*
X11672372Y-11420150D01*
X11672372Y-11420150D02*
X11691420Y-11420150D01*
X11758086Y-11553484D02*
X11758086Y-11420150D01*
X11758086Y-11353484D02*
X11748562Y-11363008D01*
X11748562Y-11363008D02*
X11758086Y-11372531D01*
X11758086Y-11372531D02*
X11767610Y-11363008D01*
X11767610Y-11363008D02*
X11758086Y-11353484D01*
X11758086Y-11353484D02*
X11758086Y-11372531D01*
X11881896Y-11553484D02*
X11862848Y-11543960D01*
X11862848Y-11543960D02*
X11853324Y-11524912D01*
X11853324Y-11524912D02*
X11853324Y-11353484D01*
X11986658Y-11553484D02*
X11967610Y-11543960D01*
X11967610Y-11543960D02*
X11958086Y-11524912D01*
X11958086Y-11524912D02*
X11958086Y-11353484D01*
X12215229Y-11553484D02*
X12215229Y-11353484D01*
X12215229Y-11353484D02*
X12281896Y-11496341D01*
X12281896Y-11496341D02*
X12348562Y-11353484D01*
X12348562Y-11353484D02*
X12348562Y-11553484D01*
X12529515Y-11553484D02*
X12529515Y-11448722D01*
X12529515Y-11448722D02*
X12519991Y-11429674D01*
X12519991Y-11429674D02*
X12500943Y-11420150D01*
X12500943Y-11420150D02*
X12462848Y-11420150D01*
X12462848Y-11420150D02*
X12443801Y-11429674D01*
X12529515Y-11543960D02*
X12510467Y-11553484D01*
X12510467Y-11553484D02*
X12462848Y-11553484D01*
X12462848Y-11553484D02*
X12443801Y-11543960D01*
X12443801Y-11543960D02*
X12434277Y-11524912D01*
X12434277Y-11524912D02*
X12434277Y-11505865D01*
X12434277Y-11505865D02*
X12443801Y-11486817D01*
X12443801Y-11486817D02*
X12462848Y-11477293D01*
X12462848Y-11477293D02*
X12510467Y-11477293D01*
X12510467Y-11477293D02*
X12529515Y-11467769D01*
X12624753Y-11420150D02*
X12624753Y-11620150D01*
X12624753Y-11429674D02*
X12643801Y-11420150D01*
X12643801Y-11420150D02*
X12681896Y-11420150D01*
X12681896Y-11420150D02*
X12700943Y-11429674D01*
X12700943Y-11429674D02*
X12710467Y-11439198D01*
X12710467Y-11439198D02*
X12719991Y-11458246D01*
X12719991Y-11458246D02*
X12719991Y-11515388D01*
X12719991Y-11515388D02*
X12710467Y-11534436D01*
X12710467Y-11534436D02*
X12700943Y-11543960D01*
X12700943Y-11543960D02*
X12681896Y-11553484D01*
X12681896Y-11553484D02*
X12643801Y-11553484D01*
X12643801Y-11553484D02*
X12624753Y-11543960D01*
X12805705Y-11534436D02*
X12815229Y-11543960D01*
X12815229Y-11543960D02*
X12805705Y-11553484D01*
X12805705Y-11553484D02*
X12796182Y-11543960D01*
X12796182Y-11543960D02*
X12805705Y-11534436D01*
X12805705Y-11534436D02*
X12805705Y-11553484D01*
X12805705Y-11429674D02*
X12815229Y-11439198D01*
X12815229Y-11439198D02*
X12805705Y-11448722D01*
X12805705Y-11448722D02*
X12796182Y-11439198D01*
X12796182Y-11439198D02*
X12805705Y-11429674D01*
X12805705Y-11429674D02*
X12805705Y-11448722D01*
D12*
X11113500Y-11852000D02*
X11173500Y-11912000D01*
X11173500Y-11852000D02*
X11113500Y-11912000D01*
D11*
X11472372Y-11773484D02*
X11491420Y-11773484D01*
X11491420Y-11773484D02*
X11510467Y-11783008D01*
X11510467Y-11783008D02*
X11519991Y-11792531D01*
X11519991Y-11792531D02*
X11529515Y-11811579D01*
X11529515Y-11811579D02*
X11539039Y-11849674D01*
X11539039Y-11849674D02*
X11539039Y-11897293D01*
X11539039Y-11897293D02*
X11529515Y-11935388D01*
X11529515Y-11935388D02*
X11519991Y-11954436D01*
X11519991Y-11954436D02*
X11510467Y-11963960D01*
X11510467Y-11963960D02*
X11491420Y-11973484D01*
X11491420Y-11973484D02*
X11472372Y-11973484D01*
X11472372Y-11973484D02*
X11453324Y-11963960D01*
X11453324Y-11963960D02*
X11443801Y-11954436D01*
X11443801Y-11954436D02*
X11434277Y-11935388D01*
X11434277Y-11935388D02*
X11424753Y-11897293D01*
X11424753Y-11897293D02*
X11424753Y-11849674D01*
X11424753Y-11849674D02*
X11434277Y-11811579D01*
X11434277Y-11811579D02*
X11443801Y-11792531D01*
X11443801Y-11792531D02*
X11453324Y-11783008D01*
X11453324Y-11783008D02*
X11472372Y-11773484D01*
X11624753Y-11954436D02*
X11634277Y-11963960D01*
X11634277Y-11963960D02*
X11624753Y-11973484D01*
X11624753Y-11973484D02*
X11615229Y-11963960D01*
X11615229Y-11963960D02*
X11624753Y-11954436D01*
X11624753Y-11954436D02*
X11624753Y-11973484D01*
X11805705Y-11773484D02*
X11767610Y-11773484D01*
X11767610Y-11773484D02*
X11748562Y-11783008D01*
X11748562Y-11783008D02*
X11739039Y-11792531D01*
X11739039Y-11792531D02*
X11719991Y-11821103D01*
X11719991Y-11821103D02*
X11710467Y-11859198D01*
X11710467Y-11859198D02*
X11710467Y-11935388D01*
X11710467Y-11935388D02*
X11719991Y-11954436D01*
X11719991Y-11954436D02*
X11729515Y-11963960D01*
X11729515Y-11963960D02*
X11748562Y-11973484D01*
X11748562Y-11973484D02*
X11786658Y-11973484D01*
X11786658Y-11973484D02*
X11805705Y-11963960D01*
X11805705Y-11963960D02*
X11815229Y-11954436D01*
X11815229Y-11954436D02*
X11824753Y-11935388D01*
X11824753Y-11935388D02*
X11824753Y-11887769D01*
X11824753Y-11887769D02*
X11815229Y-11868722D01*
X11815229Y-11868722D02*
X11805705Y-11859198D01*
X11805705Y-11859198D02*
X11786658Y-11849674D01*
X11786658Y-11849674D02*
X11748562Y-11849674D01*
X11748562Y-11849674D02*
X11729515Y-11859198D01*
X11729515Y-11859198D02*
X11719991Y-11868722D01*
X11719991Y-11868722D02*
X11710467Y-11887769D01*
X11948562Y-11773484D02*
X11967610Y-11773484D01*
X11967610Y-11773484D02*
X11986658Y-11783008D01*
X11986658Y-11783008D02*
X11996182Y-11792531D01*
X11996182Y-11792531D02*
X12005705Y-11811579D01*
X12005705Y-11811579D02*
X12015229Y-11849674D01*
X12015229Y-11849674D02*
X12015229Y-11897293D01*
X12015229Y-11897293D02*
X12005705Y-11935388D01*
X12005705Y-11935388D02*
X11996182Y-11954436D01*
X11996182Y-11954436D02*
X11986658Y-11963960D01*
X11986658Y-11963960D02*
X11967610Y-11973484D01*
X11967610Y-11973484D02*
X11948562Y-11973484D01*
X11948562Y-11973484D02*
X11929515Y-11963960D01*
X11929515Y-11963960D02*
X11919991Y-11954436D01*
X11919991Y-11954436D02*
X11910467Y-11935388D01*
X11910467Y-11935388D02*
X11900943Y-11897293D01*
X11900943Y-11897293D02*
X11900943Y-11849674D01*
X11900943Y-11849674D02*
X11910467Y-11811579D01*
X11910467Y-11811579D02*
X11919991Y-11792531D01*
X11919991Y-11792531D02*
X11929515Y-11783008D01*
X11929515Y-11783008D02*
X11948562Y-11773484D01*
X12139039Y-11773484D02*
X12158086Y-11773484D01*
X12158086Y-11773484D02*
X12177134Y-11783008D01*
X12177134Y-11783008D02*
X12186658Y-11792531D01*
X12186658Y-11792531D02*
X12196182Y-11811579D01*
X12196182Y-11811579D02*
X12205705Y-11849674D01*
X12205705Y-11849674D02*
X12205705Y-11897293D01*
X12205705Y-11897293D02*
X12196182Y-11935388D01*
X12196182Y-11935388D02*
X12186658Y-11954436D01*
X12186658Y-11954436D02*
X12177134Y-11963960D01*
X12177134Y-11963960D02*
X12158086Y-11973484D01*
X12158086Y-11973484D02*
X12139039Y-11973484D01*
X12139039Y-11973484D02*
X12119991Y-11963960D01*
X12119991Y-11963960D02*
X12110467Y-11954436D01*
X12110467Y-11954436D02*
X12100943Y-11935388D01*
X12100943Y-11935388D02*
X12091420Y-11897293D01*
X12091420Y-11897293D02*
X12091420Y-11849674D01*
X12091420Y-11849674D02*
X12100943Y-11811579D01*
X12100943Y-11811579D02*
X12110467Y-11792531D01*
X12110467Y-11792531D02*
X12119991Y-11783008D01*
X12119991Y-11783008D02*
X12139039Y-11773484D01*
X12291420Y-11973484D02*
X12291420Y-11840150D01*
X12291420Y-11859198D02*
X12300943Y-11849674D01*
X12300943Y-11849674D02*
X12319991Y-11840150D01*
X12319991Y-11840150D02*
X12348563Y-11840150D01*
X12348563Y-11840150D02*
X12367610Y-11849674D01*
X12367610Y-11849674D02*
X12377134Y-11868722D01*
X12377134Y-11868722D02*
X12377134Y-11973484D01*
X12377134Y-11868722D02*
X12386658Y-11849674D01*
X12386658Y-11849674D02*
X12405705Y-11840150D01*
X12405705Y-11840150D02*
X12434277Y-11840150D01*
X12434277Y-11840150D02*
X12453324Y-11849674D01*
X12453324Y-11849674D02*
X12462848Y-11868722D01*
X12462848Y-11868722D02*
X12462848Y-11973484D01*
X12558086Y-11973484D02*
X12558086Y-11840150D01*
X12558086Y-11859198D02*
X12567610Y-11849674D01*
X12567610Y-11849674D02*
X12586658Y-11840150D01*
X12586658Y-11840150D02*
X12615229Y-11840150D01*
X12615229Y-11840150D02*
X12634277Y-11849674D01*
X12634277Y-11849674D02*
X12643801Y-11868722D01*
X12643801Y-11868722D02*
X12643801Y-11973484D01*
X12643801Y-11868722D02*
X12653324Y-11849674D01*
X12653324Y-11849674D02*
X12672372Y-11840150D01*
X12672372Y-11840150D02*
X12700943Y-11840150D01*
X12700943Y-11840150D02*
X12719991Y-11849674D01*
X12719991Y-11849674D02*
X12729515Y-11868722D01*
X12729515Y-11868722D02*
X12729515Y-11973484D01*
X13119991Y-11763960D02*
X12948563Y-12021103D01*
X13377134Y-11773484D02*
X13396182Y-11773484D01*
X13396182Y-11773484D02*
X13415229Y-11783008D01*
X13415229Y-11783008D02*
X13424753Y-11792531D01*
X13424753Y-11792531D02*
X13434277Y-11811579D01*
X13434277Y-11811579D02*
X13443801Y-11849674D01*
X13443801Y-11849674D02*
X13443801Y-11897293D01*
X13443801Y-11897293D02*
X13434277Y-11935388D01*
X13434277Y-11935388D02*
X13424753Y-11954436D01*
X13424753Y-11954436D02*
X13415229Y-11963960D01*
X13415229Y-11963960D02*
X13396182Y-11973484D01*
X13396182Y-11973484D02*
X13377134Y-11973484D01*
X13377134Y-11973484D02*
X13358086Y-11963960D01*
X13358086Y-11963960D02*
X13348563Y-11954436D01*
X13348563Y-11954436D02*
X13339039Y-11935388D01*
X13339039Y-11935388D02*
X13329515Y-11897293D01*
X13329515Y-11897293D02*
X13329515Y-11849674D01*
X13329515Y-11849674D02*
X13339039Y-11811579D01*
X13339039Y-11811579D02*
X13348563Y-11792531D01*
X13348563Y-11792531D02*
X13358086Y-11783008D01*
X13358086Y-11783008D02*
X13377134Y-11773484D01*
X13529515Y-11954436D02*
X13539039Y-11963960D01*
X13539039Y-11963960D02*
X13529515Y-11973484D01*
X13529515Y-11973484D02*
X13519991Y-11963960D01*
X13519991Y-11963960D02*
X13529515Y-11954436D01*
X13529515Y-11954436D02*
X13529515Y-11973484D01*
X13662848Y-11773484D02*
X13681896Y-11773484D01*
X13681896Y-11773484D02*
X13700944Y-11783008D01*
X13700944Y-11783008D02*
X13710467Y-11792531D01*
X13710467Y-11792531D02*
X13719991Y-11811579D01*
X13719991Y-11811579D02*
X13729515Y-11849674D01*
X13729515Y-11849674D02*
X13729515Y-11897293D01*
X13729515Y-11897293D02*
X13719991Y-11935388D01*
X13719991Y-11935388D02*
X13710467Y-11954436D01*
X13710467Y-11954436D02*
X13700944Y-11963960D01*
X13700944Y-11963960D02*
X13681896Y-11973484D01*
X13681896Y-11973484D02*
X13662848Y-11973484D01*
X13662848Y-11973484D02*
X13643801Y-11963960D01*
X13643801Y-11963960D02*
X13634277Y-11954436D01*
X13634277Y-11954436D02*
X13624753Y-11935388D01*
X13624753Y-11935388D02*
X13615229Y-11897293D01*
X13615229Y-11897293D02*
X13615229Y-11849674D01*
X13615229Y-11849674D02*
X13624753Y-11811579D01*
X13624753Y-11811579D02*
X13634277Y-11792531D01*
X13634277Y-11792531D02*
X13643801Y-11783008D01*
X13643801Y-11783008D02*
X13662848Y-11773484D01*
X13805706Y-11792531D02*
X13815229Y-11783008D01*
X13815229Y-11783008D02*
X13834277Y-11773484D01*
X13834277Y-11773484D02*
X13881896Y-11773484D01*
X13881896Y-11773484D02*
X13900944Y-11783008D01*
X13900944Y-11783008D02*
X13910467Y-11792531D01*
X13910467Y-11792531D02*
X13919991Y-11811579D01*
X13919991Y-11811579D02*
X13919991Y-11830627D01*
X13919991Y-11830627D02*
X13910467Y-11859198D01*
X13910467Y-11859198D02*
X13796182Y-11973484D01*
X13796182Y-11973484D02*
X13919991Y-11973484D01*
X13986658Y-11773484D02*
X14110467Y-11773484D01*
X14110467Y-11773484D02*
X14043801Y-11849674D01*
X14043801Y-11849674D02*
X14072372Y-11849674D01*
X14072372Y-11849674D02*
X14091420Y-11859198D01*
X14091420Y-11859198D02*
X14100944Y-11868722D01*
X14100944Y-11868722D02*
X14110467Y-11887769D01*
X14110467Y-11887769D02*
X14110467Y-11935388D01*
X14110467Y-11935388D02*
X14100944Y-11954436D01*
X14100944Y-11954436D02*
X14091420Y-11963960D01*
X14091420Y-11963960D02*
X14072372Y-11973484D01*
X14072372Y-11973484D02*
X14015229Y-11973484D01*
X14015229Y-11973484D02*
X13996182Y-11963960D01*
X13996182Y-11963960D02*
X13986658Y-11954436D01*
X14281896Y-11773484D02*
X14243801Y-11773484D01*
X14243801Y-11773484D02*
X14224753Y-11783008D01*
X14224753Y-11783008D02*
X14215229Y-11792531D01*
X14215229Y-11792531D02*
X14196182Y-11821103D01*
X14196182Y-11821103D02*
X14186658Y-11859198D01*
X14186658Y-11859198D02*
X14186658Y-11935388D01*
X14186658Y-11935388D02*
X14196182Y-11954436D01*
X14196182Y-11954436D02*
X14205706Y-11963960D01*
X14205706Y-11963960D02*
X14224753Y-11973484D01*
X14224753Y-11973484D02*
X14262848Y-11973484D01*
X14262848Y-11973484D02*
X14281896Y-11963960D01*
X14281896Y-11963960D02*
X14291420Y-11954436D01*
X14291420Y-11954436D02*
X14300944Y-11935388D01*
X14300944Y-11935388D02*
X14300944Y-11887769D01*
X14300944Y-11887769D02*
X14291420Y-11868722D01*
X14291420Y-11868722D02*
X14281896Y-11859198D01*
X14281896Y-11859198D02*
X14262848Y-11849674D01*
X14262848Y-11849674D02*
X14224753Y-11849674D01*
X14224753Y-11849674D02*
X14205706Y-11859198D01*
X14205706Y-11859198D02*
X14196182Y-11868722D01*
X14196182Y-11868722D02*
X14186658Y-11887769D01*
X14377134Y-11773484D02*
X14377134Y-11811579D01*
X14453325Y-11773484D02*
X14453325Y-11811579D01*
X14748563Y-12049674D02*
X14739039Y-12040150D01*
X14739039Y-12040150D02*
X14719991Y-12011579D01*
X14719991Y-12011579D02*
X14710468Y-11992531D01*
X14710468Y-11992531D02*
X14700944Y-11963960D01*
X14700944Y-11963960D02*
X14691420Y-11916341D01*
X14691420Y-11916341D02*
X14691420Y-11878246D01*
X14691420Y-11878246D02*
X14700944Y-11830627D01*
X14700944Y-11830627D02*
X14710468Y-11802055D01*
X14710468Y-11802055D02*
X14719991Y-11783008D01*
X14719991Y-11783008D02*
X14739039Y-11754436D01*
X14739039Y-11754436D02*
X14748563Y-11744912D01*
X14853325Y-11859198D02*
X14834277Y-11849674D01*
X14834277Y-11849674D02*
X14824753Y-11840150D01*
X14824753Y-11840150D02*
X14815229Y-11821103D01*
X14815229Y-11821103D02*
X14815229Y-11811579D01*
X14815229Y-11811579D02*
X14824753Y-11792531D01*
X14824753Y-11792531D02*
X14834277Y-11783008D01*
X14834277Y-11783008D02*
X14853325Y-11773484D01*
X14853325Y-11773484D02*
X14891420Y-11773484D01*
X14891420Y-11773484D02*
X14910468Y-11783008D01*
X14910468Y-11783008D02*
X14919991Y-11792531D01*
X14919991Y-11792531D02*
X14929515Y-11811579D01*
X14929515Y-11811579D02*
X14929515Y-11821103D01*
X14929515Y-11821103D02*
X14919991Y-11840150D01*
X14919991Y-11840150D02*
X14910468Y-11849674D01*
X14910468Y-11849674D02*
X14891420Y-11859198D01*
X14891420Y-11859198D02*
X14853325Y-11859198D01*
X14853325Y-11859198D02*
X14834277Y-11868722D01*
X14834277Y-11868722D02*
X14824753Y-11878246D01*
X14824753Y-11878246D02*
X14815229Y-11897293D01*
X14815229Y-11897293D02*
X14815229Y-11935388D01*
X14815229Y-11935388D02*
X14824753Y-11954436D01*
X14824753Y-11954436D02*
X14834277Y-11963960D01*
X14834277Y-11963960D02*
X14853325Y-11973484D01*
X14853325Y-11973484D02*
X14891420Y-11973484D01*
X14891420Y-11973484D02*
X14910468Y-11963960D01*
X14910468Y-11963960D02*
X14919991Y-11954436D01*
X14919991Y-11954436D02*
X14929515Y-11935388D01*
X14929515Y-11935388D02*
X14929515Y-11897293D01*
X14929515Y-11897293D02*
X14919991Y-11878246D01*
X14919991Y-11878246D02*
X14910468Y-11868722D01*
X14910468Y-11868722D02*
X14891420Y-11859198D01*
X15167610Y-11973484D02*
X15167610Y-11773484D01*
X15253325Y-11973484D02*
X15253325Y-11868722D01*
X15253325Y-11868722D02*
X15243801Y-11849674D01*
X15243801Y-11849674D02*
X15224753Y-11840150D01*
X15224753Y-11840150D02*
X15196182Y-11840150D01*
X15196182Y-11840150D02*
X15177134Y-11849674D01*
X15177134Y-11849674D02*
X15167610Y-11859198D01*
X15377134Y-11973484D02*
X15358087Y-11963960D01*
X15358087Y-11963960D02*
X15348563Y-11954436D01*
X15348563Y-11954436D02*
X15339039Y-11935388D01*
X15339039Y-11935388D02*
X15339039Y-11878246D01*
X15339039Y-11878246D02*
X15348563Y-11859198D01*
X15348563Y-11859198D02*
X15358087Y-11849674D01*
X15358087Y-11849674D02*
X15377134Y-11840150D01*
X15377134Y-11840150D02*
X15405706Y-11840150D01*
X15405706Y-11840150D02*
X15424753Y-11849674D01*
X15424753Y-11849674D02*
X15434277Y-11859198D01*
X15434277Y-11859198D02*
X15443801Y-11878246D01*
X15443801Y-11878246D02*
X15443801Y-11935388D01*
X15443801Y-11935388D02*
X15434277Y-11954436D01*
X15434277Y-11954436D02*
X15424753Y-11963960D01*
X15424753Y-11963960D02*
X15405706Y-11973484D01*
X15405706Y-11973484D02*
X15377134Y-11973484D01*
X15558087Y-11973484D02*
X15539039Y-11963960D01*
X15539039Y-11963960D02*
X15529515Y-11944912D01*
X15529515Y-11944912D02*
X15529515Y-11773484D01*
X15710468Y-11963960D02*
X15691420Y-11973484D01*
X15691420Y-11973484D02*
X15653325Y-11973484D01*
X15653325Y-11973484D02*
X15634277Y-11963960D01*
X15634277Y-11963960D02*
X15624753Y-11944912D01*
X15624753Y-11944912D02*
X15624753Y-11868722D01*
X15624753Y-11868722D02*
X15634277Y-11849674D01*
X15634277Y-11849674D02*
X15653325Y-11840150D01*
X15653325Y-11840150D02*
X15691420Y-11840150D01*
X15691420Y-11840150D02*
X15710468Y-11849674D01*
X15710468Y-11849674D02*
X15719991Y-11868722D01*
X15719991Y-11868722D02*
X15719991Y-11887769D01*
X15719991Y-11887769D02*
X15624753Y-11906817D01*
X15796182Y-11963960D02*
X15815230Y-11973484D01*
X15815230Y-11973484D02*
X15853325Y-11973484D01*
X15853325Y-11973484D02*
X15872372Y-11963960D01*
X15872372Y-11963960D02*
X15881896Y-11944912D01*
X15881896Y-11944912D02*
X15881896Y-11935388D01*
X15881896Y-11935388D02*
X15872372Y-11916341D01*
X15872372Y-11916341D02*
X15853325Y-11906817D01*
X15853325Y-11906817D02*
X15824753Y-11906817D01*
X15824753Y-11906817D02*
X15805706Y-11897293D01*
X15805706Y-11897293D02*
X15796182Y-11878246D01*
X15796182Y-11878246D02*
X15796182Y-11868722D01*
X15796182Y-11868722D02*
X15805706Y-11849674D01*
X15805706Y-11849674D02*
X15824753Y-11840150D01*
X15824753Y-11840150D02*
X15853325Y-11840150D01*
X15853325Y-11840150D02*
X15872372Y-11849674D01*
X15948563Y-12049674D02*
X15958087Y-12040150D01*
X15958087Y-12040150D02*
X15977134Y-12011579D01*
X15977134Y-12011579D02*
X15986658Y-11992531D01*
X15986658Y-11992531D02*
X15996182Y-11963960D01*
X15996182Y-11963960D02*
X16005706Y-11916341D01*
X16005706Y-11916341D02*
X16005706Y-11878246D01*
X16005706Y-11878246D02*
X15996182Y-11830627D01*
X15996182Y-11830627D02*
X15986658Y-11802055D01*
X15986658Y-11802055D02*
X15977134Y-11783008D01*
X15977134Y-11783008D02*
X15958087Y-11754436D01*
X15958087Y-11754436D02*
X15948563Y-11744912D01*
D12*
X11173500Y-12146000D02*
G75*
G02*
X11093500Y-12146000I-40000J0D01*
G01*
X11093500Y-12146000D02*
G75*
G02*
X11173500Y-12146000I40000J0D01*
G01*
D11*
X11472372Y-12037484D02*
X11491420Y-12037484D01*
X11491420Y-12037484D02*
X11510467Y-12047008D01*
X11510467Y-12047008D02*
X11519991Y-12056531D01*
X11519991Y-12056531D02*
X11529515Y-12075579D01*
X11529515Y-12075579D02*
X11539039Y-12113674D01*
X11539039Y-12113674D02*
X11539039Y-12161293D01*
X11539039Y-12161293D02*
X11529515Y-12199388D01*
X11529515Y-12199388D02*
X11519991Y-12218436D01*
X11519991Y-12218436D02*
X11510467Y-12227960D01*
X11510467Y-12227960D02*
X11491420Y-12237484D01*
X11491420Y-12237484D02*
X11472372Y-12237484D01*
X11472372Y-12237484D02*
X11453324Y-12227960D01*
X11453324Y-12227960D02*
X11443801Y-12218436D01*
X11443801Y-12218436D02*
X11434277Y-12199388D01*
X11434277Y-12199388D02*
X11424753Y-12161293D01*
X11424753Y-12161293D02*
X11424753Y-12113674D01*
X11424753Y-12113674D02*
X11434277Y-12075579D01*
X11434277Y-12075579D02*
X11443801Y-12056531D01*
X11443801Y-12056531D02*
X11453324Y-12047008D01*
X11453324Y-12047008D02*
X11472372Y-12037484D01*
X11624753Y-12218436D02*
X11634277Y-12227960D01*
X11634277Y-12227960D02*
X11624753Y-12237484D01*
X11624753Y-12237484D02*
X11615229Y-12227960D01*
X11615229Y-12227960D02*
X11624753Y-12218436D01*
X11624753Y-12218436D02*
X11624753Y-12237484D01*
X11748562Y-12123198D02*
X11729515Y-12113674D01*
X11729515Y-12113674D02*
X11719991Y-12104150D01*
X11719991Y-12104150D02*
X11710467Y-12085103D01*
X11710467Y-12085103D02*
X11710467Y-12075579D01*
X11710467Y-12075579D02*
X11719991Y-12056531D01*
X11719991Y-12056531D02*
X11729515Y-12047008D01*
X11729515Y-12047008D02*
X11748562Y-12037484D01*
X11748562Y-12037484D02*
X11786658Y-12037484D01*
X11786658Y-12037484D02*
X11805705Y-12047008D01*
X11805705Y-12047008D02*
X11815229Y-12056531D01*
X11815229Y-12056531D02*
X11824753Y-12075579D01*
X11824753Y-12075579D02*
X11824753Y-12085103D01*
X11824753Y-12085103D02*
X11815229Y-12104150D01*
X11815229Y-12104150D02*
X11805705Y-12113674D01*
X11805705Y-12113674D02*
X11786658Y-12123198D01*
X11786658Y-12123198D02*
X11748562Y-12123198D01*
X11748562Y-12123198D02*
X11729515Y-12132722D01*
X11729515Y-12132722D02*
X11719991Y-12142246D01*
X11719991Y-12142246D02*
X11710467Y-12161293D01*
X11710467Y-12161293D02*
X11710467Y-12199388D01*
X11710467Y-12199388D02*
X11719991Y-12218436D01*
X11719991Y-12218436D02*
X11729515Y-12227960D01*
X11729515Y-12227960D02*
X11748562Y-12237484D01*
X11748562Y-12237484D02*
X11786658Y-12237484D01*
X11786658Y-12237484D02*
X11805705Y-12227960D01*
X11805705Y-12227960D02*
X11815229Y-12218436D01*
X11815229Y-12218436D02*
X11824753Y-12199388D01*
X11824753Y-12199388D02*
X11824753Y-12161293D01*
X11824753Y-12161293D02*
X11815229Y-12142246D01*
X11815229Y-12142246D02*
X11805705Y-12132722D01*
X11805705Y-12132722D02*
X11786658Y-12123198D01*
X11948562Y-12037484D02*
X11967610Y-12037484D01*
X11967610Y-12037484D02*
X11986658Y-12047008D01*
X11986658Y-12047008D02*
X11996182Y-12056531D01*
X11996182Y-12056531D02*
X12005705Y-12075579D01*
X12005705Y-12075579D02*
X12015229Y-12113674D01*
X12015229Y-12113674D02*
X12015229Y-12161293D01*
X12015229Y-12161293D02*
X12005705Y-12199388D01*
X12005705Y-12199388D02*
X11996182Y-12218436D01*
X11996182Y-12218436D02*
X11986658Y-12227960D01*
X11986658Y-12227960D02*
X11967610Y-12237484D01*
X11967610Y-12237484D02*
X11948562Y-12237484D01*
X11948562Y-12237484D02*
X11929515Y-12227960D01*
X11929515Y-12227960D02*
X11919991Y-12218436D01*
X11919991Y-12218436D02*
X11910467Y-12199388D01*
X11910467Y-12199388D02*
X11900943Y-12161293D01*
X11900943Y-12161293D02*
X11900943Y-12113674D01*
X11900943Y-12113674D02*
X11910467Y-12075579D01*
X11910467Y-12075579D02*
X11919991Y-12056531D01*
X11919991Y-12056531D02*
X11929515Y-12047008D01*
X11929515Y-12047008D02*
X11948562Y-12037484D01*
X12139039Y-12037484D02*
X12158086Y-12037484D01*
X12158086Y-12037484D02*
X12177134Y-12047008D01*
X12177134Y-12047008D02*
X12186658Y-12056531D01*
X12186658Y-12056531D02*
X12196182Y-12075579D01*
X12196182Y-12075579D02*
X12205705Y-12113674D01*
X12205705Y-12113674D02*
X12205705Y-12161293D01*
X12205705Y-12161293D02*
X12196182Y-12199388D01*
X12196182Y-12199388D02*
X12186658Y-12218436D01*
X12186658Y-12218436D02*
X12177134Y-12227960D01*
X12177134Y-12227960D02*
X12158086Y-12237484D01*
X12158086Y-12237484D02*
X12139039Y-12237484D01*
X12139039Y-12237484D02*
X12119991Y-12227960D01*
X12119991Y-12227960D02*
X12110467Y-12218436D01*
X12110467Y-12218436D02*
X12100943Y-12199388D01*
X12100943Y-12199388D02*
X12091420Y-12161293D01*
X12091420Y-12161293D02*
X12091420Y-12113674D01*
X12091420Y-12113674D02*
X12100943Y-12075579D01*
X12100943Y-12075579D02*
X12110467Y-12056531D01*
X12110467Y-12056531D02*
X12119991Y-12047008D01*
X12119991Y-12047008D02*
X12139039Y-12037484D01*
X12291420Y-12237484D02*
X12291420Y-12104150D01*
X12291420Y-12123198D02*
X12300943Y-12113674D01*
X12300943Y-12113674D02*
X12319991Y-12104150D01*
X12319991Y-12104150D02*
X12348563Y-12104150D01*
X12348563Y-12104150D02*
X12367610Y-12113674D01*
X12367610Y-12113674D02*
X12377134Y-12132722D01*
X12377134Y-12132722D02*
X12377134Y-12237484D01*
X12377134Y-12132722D02*
X12386658Y-12113674D01*
X12386658Y-12113674D02*
X12405705Y-12104150D01*
X12405705Y-12104150D02*
X12434277Y-12104150D01*
X12434277Y-12104150D02*
X12453324Y-12113674D01*
X12453324Y-12113674D02*
X12462848Y-12132722D01*
X12462848Y-12132722D02*
X12462848Y-12237484D01*
X12558086Y-12237484D02*
X12558086Y-12104150D01*
X12558086Y-12123198D02*
X12567610Y-12113674D01*
X12567610Y-12113674D02*
X12586658Y-12104150D01*
X12586658Y-12104150D02*
X12615229Y-12104150D01*
X12615229Y-12104150D02*
X12634277Y-12113674D01*
X12634277Y-12113674D02*
X12643801Y-12132722D01*
X12643801Y-12132722D02*
X12643801Y-12237484D01*
X12643801Y-12132722D02*
X12653324Y-12113674D01*
X12653324Y-12113674D02*
X12672372Y-12104150D01*
X12672372Y-12104150D02*
X12700943Y-12104150D01*
X12700943Y-12104150D02*
X12719991Y-12113674D01*
X12719991Y-12113674D02*
X12729515Y-12132722D01*
X12729515Y-12132722D02*
X12729515Y-12237484D01*
X13119991Y-12027960D02*
X12948563Y-12285103D01*
X13377134Y-12037484D02*
X13396182Y-12037484D01*
X13396182Y-12037484D02*
X13415229Y-12047008D01*
X13415229Y-12047008D02*
X13424753Y-12056531D01*
X13424753Y-12056531D02*
X13434277Y-12075579D01*
X13434277Y-12075579D02*
X13443801Y-12113674D01*
X13443801Y-12113674D02*
X13443801Y-12161293D01*
X13443801Y-12161293D02*
X13434277Y-12199388D01*
X13434277Y-12199388D02*
X13424753Y-12218436D01*
X13424753Y-12218436D02*
X13415229Y-12227960D01*
X13415229Y-12227960D02*
X13396182Y-12237484D01*
X13396182Y-12237484D02*
X13377134Y-12237484D01*
X13377134Y-12237484D02*
X13358086Y-12227960D01*
X13358086Y-12227960D02*
X13348563Y-12218436D01*
X13348563Y-12218436D02*
X13339039Y-12199388D01*
X13339039Y-12199388D02*
X13329515Y-12161293D01*
X13329515Y-12161293D02*
X13329515Y-12113674D01*
X13329515Y-12113674D02*
X13339039Y-12075579D01*
X13339039Y-12075579D02*
X13348563Y-12056531D01*
X13348563Y-12056531D02*
X13358086Y-12047008D01*
X13358086Y-12047008D02*
X13377134Y-12037484D01*
X13529515Y-12218436D02*
X13539039Y-12227960D01*
X13539039Y-12227960D02*
X13529515Y-12237484D01*
X13529515Y-12237484D02*
X13519991Y-12227960D01*
X13519991Y-12227960D02*
X13529515Y-12218436D01*
X13529515Y-12218436D02*
X13529515Y-12237484D01*
X13662848Y-12037484D02*
X13681896Y-12037484D01*
X13681896Y-12037484D02*
X13700944Y-12047008D01*
X13700944Y-12047008D02*
X13710467Y-12056531D01*
X13710467Y-12056531D02*
X13719991Y-12075579D01*
X13719991Y-12075579D02*
X13729515Y-12113674D01*
X13729515Y-12113674D02*
X13729515Y-12161293D01*
X13729515Y-12161293D02*
X13719991Y-12199388D01*
X13719991Y-12199388D02*
X13710467Y-12218436D01*
X13710467Y-12218436D02*
X13700944Y-12227960D01*
X13700944Y-12227960D02*
X13681896Y-12237484D01*
X13681896Y-12237484D02*
X13662848Y-12237484D01*
X13662848Y-12237484D02*
X13643801Y-12227960D01*
X13643801Y-12227960D02*
X13634277Y-12218436D01*
X13634277Y-12218436D02*
X13624753Y-12199388D01*
X13624753Y-12199388D02*
X13615229Y-12161293D01*
X13615229Y-12161293D02*
X13615229Y-12113674D01*
X13615229Y-12113674D02*
X13624753Y-12075579D01*
X13624753Y-12075579D02*
X13634277Y-12056531D01*
X13634277Y-12056531D02*
X13643801Y-12047008D01*
X13643801Y-12047008D02*
X13662848Y-12037484D01*
X13796182Y-12037484D02*
X13919991Y-12037484D01*
X13919991Y-12037484D02*
X13853325Y-12113674D01*
X13853325Y-12113674D02*
X13881896Y-12113674D01*
X13881896Y-12113674D02*
X13900944Y-12123198D01*
X13900944Y-12123198D02*
X13910467Y-12132722D01*
X13910467Y-12132722D02*
X13919991Y-12151769D01*
X13919991Y-12151769D02*
X13919991Y-12199388D01*
X13919991Y-12199388D02*
X13910467Y-12218436D01*
X13910467Y-12218436D02*
X13900944Y-12227960D01*
X13900944Y-12227960D02*
X13881896Y-12237484D01*
X13881896Y-12237484D02*
X13824753Y-12237484D01*
X13824753Y-12237484D02*
X13805706Y-12227960D01*
X13805706Y-12227960D02*
X13796182Y-12218436D01*
X14110467Y-12237484D02*
X13996182Y-12237484D01*
X14053325Y-12237484D02*
X14053325Y-12037484D01*
X14053325Y-12037484D02*
X14034277Y-12066055D01*
X14034277Y-12066055D02*
X14015229Y-12085103D01*
X14015229Y-12085103D02*
X13996182Y-12094627D01*
X14291420Y-12037484D02*
X14196182Y-12037484D01*
X14196182Y-12037484D02*
X14186658Y-12132722D01*
X14186658Y-12132722D02*
X14196182Y-12123198D01*
X14196182Y-12123198D02*
X14215229Y-12113674D01*
X14215229Y-12113674D02*
X14262848Y-12113674D01*
X14262848Y-12113674D02*
X14281896Y-12123198D01*
X14281896Y-12123198D02*
X14291420Y-12132722D01*
X14291420Y-12132722D02*
X14300944Y-12151769D01*
X14300944Y-12151769D02*
X14300944Y-12199388D01*
X14300944Y-12199388D02*
X14291420Y-12218436D01*
X14291420Y-12218436D02*
X14281896Y-12227960D01*
X14281896Y-12227960D02*
X14262848Y-12237484D01*
X14262848Y-12237484D02*
X14215229Y-12237484D01*
X14215229Y-12237484D02*
X14196182Y-12227960D01*
X14196182Y-12227960D02*
X14186658Y-12218436D01*
X14377134Y-12037484D02*
X14377134Y-12075579D01*
X14453325Y-12037484D02*
X14453325Y-12075579D01*
X14748563Y-12313674D02*
X14739039Y-12304150D01*
X14739039Y-12304150D02*
X14719991Y-12275579D01*
X14719991Y-12275579D02*
X14710468Y-12256531D01*
X14710468Y-12256531D02*
X14700944Y-12227960D01*
X14700944Y-12227960D02*
X14691420Y-12180341D01*
X14691420Y-12180341D02*
X14691420Y-12142246D01*
X14691420Y-12142246D02*
X14700944Y-12094627D01*
X14700944Y-12094627D02*
X14710468Y-12066055D01*
X14710468Y-12066055D02*
X14719991Y-12047008D01*
X14719991Y-12047008D02*
X14739039Y-12018436D01*
X14739039Y-12018436D02*
X14748563Y-12008912D01*
X14929515Y-12237484D02*
X14815229Y-12237484D01*
X14872372Y-12237484D02*
X14872372Y-12037484D01*
X14872372Y-12037484D02*
X14853325Y-12066055D01*
X14853325Y-12066055D02*
X14834277Y-12085103D01*
X14834277Y-12085103D02*
X14815229Y-12094627D01*
X15100944Y-12104150D02*
X15100944Y-12237484D01*
X15053325Y-12027960D02*
X15005706Y-12170817D01*
X15005706Y-12170817D02*
X15129515Y-12170817D01*
X15358087Y-12237484D02*
X15358087Y-12037484D01*
X15443801Y-12237484D02*
X15443801Y-12132722D01*
X15443801Y-12132722D02*
X15434277Y-12113674D01*
X15434277Y-12113674D02*
X15415230Y-12104150D01*
X15415230Y-12104150D02*
X15386658Y-12104150D01*
X15386658Y-12104150D02*
X15367610Y-12113674D01*
X15367610Y-12113674D02*
X15358087Y-12123198D01*
X15567610Y-12237484D02*
X15548563Y-12227960D01*
X15548563Y-12227960D02*
X15539039Y-12218436D01*
X15539039Y-12218436D02*
X15529515Y-12199388D01*
X15529515Y-12199388D02*
X15529515Y-12142246D01*
X15529515Y-12142246D02*
X15539039Y-12123198D01*
X15539039Y-12123198D02*
X15548563Y-12113674D01*
X15548563Y-12113674D02*
X15567610Y-12104150D01*
X15567610Y-12104150D02*
X15596182Y-12104150D01*
X15596182Y-12104150D02*
X15615230Y-12113674D01*
X15615230Y-12113674D02*
X15624753Y-12123198D01*
X15624753Y-12123198D02*
X15634277Y-12142246D01*
X15634277Y-12142246D02*
X15634277Y-12199388D01*
X15634277Y-12199388D02*
X15624753Y-12218436D01*
X15624753Y-12218436D02*
X15615230Y-12227960D01*
X15615230Y-12227960D02*
X15596182Y-12237484D01*
X15596182Y-12237484D02*
X15567610Y-12237484D01*
X15748563Y-12237484D02*
X15729515Y-12227960D01*
X15729515Y-12227960D02*
X15719991Y-12208912D01*
X15719991Y-12208912D02*
X15719991Y-12037484D01*
X15900944Y-12227960D02*
X15881896Y-12237484D01*
X15881896Y-12237484D02*
X15843801Y-12237484D01*
X15843801Y-12237484D02*
X15824753Y-12227960D01*
X15824753Y-12227960D02*
X15815230Y-12208912D01*
X15815230Y-12208912D02*
X15815230Y-12132722D01*
X15815230Y-12132722D02*
X15824753Y-12113674D01*
X15824753Y-12113674D02*
X15843801Y-12104150D01*
X15843801Y-12104150D02*
X15881896Y-12104150D01*
X15881896Y-12104150D02*
X15900944Y-12113674D01*
X15900944Y-12113674D02*
X15910468Y-12132722D01*
X15910468Y-12132722D02*
X15910468Y-12151769D01*
X15910468Y-12151769D02*
X15815230Y-12170817D01*
X15986658Y-12227960D02*
X16005706Y-12237484D01*
X16005706Y-12237484D02*
X16043801Y-12237484D01*
X16043801Y-12237484D02*
X16062849Y-12227960D01*
X16062849Y-12227960D02*
X16072372Y-12208912D01*
X16072372Y-12208912D02*
X16072372Y-12199388D01*
X16072372Y-12199388D02*
X16062849Y-12180341D01*
X16062849Y-12180341D02*
X16043801Y-12170817D01*
X16043801Y-12170817D02*
X16015230Y-12170817D01*
X16015230Y-12170817D02*
X15996182Y-12161293D01*
X15996182Y-12161293D02*
X15986658Y-12142246D01*
X15986658Y-12142246D02*
X15986658Y-12132722D01*
X15986658Y-12132722D02*
X15996182Y-12113674D01*
X15996182Y-12113674D02*
X16015230Y-12104150D01*
X16015230Y-12104150D02*
X16043801Y-12104150D01*
X16043801Y-12104150D02*
X16062849Y-12113674D01*
X16139039Y-12313674D02*
X16148563Y-12304150D01*
X16148563Y-12304150D02*
X16167611Y-12275579D01*
X16167611Y-12275579D02*
X16177134Y-12256531D01*
X16177134Y-12256531D02*
X16186658Y-12227960D01*
X16186658Y-12227960D02*
X16196182Y-12180341D01*
X16196182Y-12180341D02*
X16196182Y-12142246D01*
X16196182Y-12142246D02*
X16186658Y-12094627D01*
X16186658Y-12094627D02*
X16177134Y-12066055D01*
X16177134Y-12066055D02*
X16167611Y-12047008D01*
X16167611Y-12047008D02*
X16148563Y-12018436D01*
X16148563Y-12018436D02*
X16139039Y-12008912D01*
D12*
X11123500Y-12360000D02*
X11123500Y-12460000D01*
X11073500Y-12410000D02*
X11173500Y-12410000D01*
D11*
X11539039Y-12501484D02*
X11424753Y-12501484D01*
X11481896Y-12501484D02*
X11481896Y-12301484D01*
X11481896Y-12301484D02*
X11462848Y-12330055D01*
X11462848Y-12330055D02*
X11443801Y-12349103D01*
X11443801Y-12349103D02*
X11424753Y-12358627D01*
X11624753Y-12482436D02*
X11634277Y-12491960D01*
X11634277Y-12491960D02*
X11624753Y-12501484D01*
X11624753Y-12501484D02*
X11615229Y-12491960D01*
X11615229Y-12491960D02*
X11624753Y-12482436D01*
X11624753Y-12482436D02*
X11624753Y-12501484D01*
X11758086Y-12301484D02*
X11777134Y-12301484D01*
X11777134Y-12301484D02*
X11796182Y-12311008D01*
X11796182Y-12311008D02*
X11805705Y-12320531D01*
X11805705Y-12320531D02*
X11815229Y-12339579D01*
X11815229Y-12339579D02*
X11824753Y-12377674D01*
X11824753Y-12377674D02*
X11824753Y-12425293D01*
X11824753Y-12425293D02*
X11815229Y-12463388D01*
X11815229Y-12463388D02*
X11805705Y-12482436D01*
X11805705Y-12482436D02*
X11796182Y-12491960D01*
X11796182Y-12491960D02*
X11777134Y-12501484D01*
X11777134Y-12501484D02*
X11758086Y-12501484D01*
X11758086Y-12501484D02*
X11739039Y-12491960D01*
X11739039Y-12491960D02*
X11729515Y-12482436D01*
X11729515Y-12482436D02*
X11719991Y-12463388D01*
X11719991Y-12463388D02*
X11710467Y-12425293D01*
X11710467Y-12425293D02*
X11710467Y-12377674D01*
X11710467Y-12377674D02*
X11719991Y-12339579D01*
X11719991Y-12339579D02*
X11729515Y-12320531D01*
X11729515Y-12320531D02*
X11739039Y-12311008D01*
X11739039Y-12311008D02*
X11758086Y-12301484D01*
X11948562Y-12301484D02*
X11967610Y-12301484D01*
X11967610Y-12301484D02*
X11986658Y-12311008D01*
X11986658Y-12311008D02*
X11996182Y-12320531D01*
X11996182Y-12320531D02*
X12005705Y-12339579D01*
X12005705Y-12339579D02*
X12015229Y-12377674D01*
X12015229Y-12377674D02*
X12015229Y-12425293D01*
X12015229Y-12425293D02*
X12005705Y-12463388D01*
X12005705Y-12463388D02*
X11996182Y-12482436D01*
X11996182Y-12482436D02*
X11986658Y-12491960D01*
X11986658Y-12491960D02*
X11967610Y-12501484D01*
X11967610Y-12501484D02*
X11948562Y-12501484D01*
X11948562Y-12501484D02*
X11929515Y-12491960D01*
X11929515Y-12491960D02*
X11919991Y-12482436D01*
X11919991Y-12482436D02*
X11910467Y-12463388D01*
X11910467Y-12463388D02*
X11900943Y-12425293D01*
X11900943Y-12425293D02*
X11900943Y-12377674D01*
X11900943Y-12377674D02*
X11910467Y-12339579D01*
X11910467Y-12339579D02*
X11919991Y-12320531D01*
X11919991Y-12320531D02*
X11929515Y-12311008D01*
X11929515Y-12311008D02*
X11948562Y-12301484D01*
X12139039Y-12301484D02*
X12158086Y-12301484D01*
X12158086Y-12301484D02*
X12177134Y-12311008D01*
X12177134Y-12311008D02*
X12186658Y-12320531D01*
X12186658Y-12320531D02*
X12196182Y-12339579D01*
X12196182Y-12339579D02*
X12205705Y-12377674D01*
X12205705Y-12377674D02*
X12205705Y-12425293D01*
X12205705Y-12425293D02*
X12196182Y-12463388D01*
X12196182Y-12463388D02*
X12186658Y-12482436D01*
X12186658Y-12482436D02*
X12177134Y-12491960D01*
X12177134Y-12491960D02*
X12158086Y-12501484D01*
X12158086Y-12501484D02*
X12139039Y-12501484D01*
X12139039Y-12501484D02*
X12119991Y-12491960D01*
X12119991Y-12491960D02*
X12110467Y-12482436D01*
X12110467Y-12482436D02*
X12100943Y-12463388D01*
X12100943Y-12463388D02*
X12091420Y-12425293D01*
X12091420Y-12425293D02*
X12091420Y-12377674D01*
X12091420Y-12377674D02*
X12100943Y-12339579D01*
X12100943Y-12339579D02*
X12110467Y-12320531D01*
X12110467Y-12320531D02*
X12119991Y-12311008D01*
X12119991Y-12311008D02*
X12139039Y-12301484D01*
X12291420Y-12501484D02*
X12291420Y-12368150D01*
X12291420Y-12387198D02*
X12300943Y-12377674D01*
X12300943Y-12377674D02*
X12319991Y-12368150D01*
X12319991Y-12368150D02*
X12348563Y-12368150D01*
X12348563Y-12368150D02*
X12367610Y-12377674D01*
X12367610Y-12377674D02*
X12377134Y-12396722D01*
X12377134Y-12396722D02*
X12377134Y-12501484D01*
X12377134Y-12396722D02*
X12386658Y-12377674D01*
X12386658Y-12377674D02*
X12405705Y-12368150D01*
X12405705Y-12368150D02*
X12434277Y-12368150D01*
X12434277Y-12368150D02*
X12453324Y-12377674D01*
X12453324Y-12377674D02*
X12462848Y-12396722D01*
X12462848Y-12396722D02*
X12462848Y-12501484D01*
X12558086Y-12501484D02*
X12558086Y-12368150D01*
X12558086Y-12387198D02*
X12567610Y-12377674D01*
X12567610Y-12377674D02*
X12586658Y-12368150D01*
X12586658Y-12368150D02*
X12615229Y-12368150D01*
X12615229Y-12368150D02*
X12634277Y-12377674D01*
X12634277Y-12377674D02*
X12643801Y-12396722D01*
X12643801Y-12396722D02*
X12643801Y-12501484D01*
X12643801Y-12396722D02*
X12653324Y-12377674D01*
X12653324Y-12377674D02*
X12672372Y-12368150D01*
X12672372Y-12368150D02*
X12700943Y-12368150D01*
X12700943Y-12368150D02*
X12719991Y-12377674D01*
X12719991Y-12377674D02*
X12729515Y-12396722D01*
X12729515Y-12396722D02*
X12729515Y-12501484D01*
X13119991Y-12291960D02*
X12948563Y-12549103D01*
X13377134Y-12301484D02*
X13396182Y-12301484D01*
X13396182Y-12301484D02*
X13415229Y-12311008D01*
X13415229Y-12311008D02*
X13424753Y-12320531D01*
X13424753Y-12320531D02*
X13434277Y-12339579D01*
X13434277Y-12339579D02*
X13443801Y-12377674D01*
X13443801Y-12377674D02*
X13443801Y-12425293D01*
X13443801Y-12425293D02*
X13434277Y-12463388D01*
X13434277Y-12463388D02*
X13424753Y-12482436D01*
X13424753Y-12482436D02*
X13415229Y-12491960D01*
X13415229Y-12491960D02*
X13396182Y-12501484D01*
X13396182Y-12501484D02*
X13377134Y-12501484D01*
X13377134Y-12501484D02*
X13358086Y-12491960D01*
X13358086Y-12491960D02*
X13348563Y-12482436D01*
X13348563Y-12482436D02*
X13339039Y-12463388D01*
X13339039Y-12463388D02*
X13329515Y-12425293D01*
X13329515Y-12425293D02*
X13329515Y-12377674D01*
X13329515Y-12377674D02*
X13339039Y-12339579D01*
X13339039Y-12339579D02*
X13348563Y-12320531D01*
X13348563Y-12320531D02*
X13358086Y-12311008D01*
X13358086Y-12311008D02*
X13377134Y-12301484D01*
X13529515Y-12482436D02*
X13539039Y-12491960D01*
X13539039Y-12491960D02*
X13529515Y-12501484D01*
X13529515Y-12501484D02*
X13519991Y-12491960D01*
X13519991Y-12491960D02*
X13529515Y-12482436D01*
X13529515Y-12482436D02*
X13529515Y-12501484D01*
X13662848Y-12301484D02*
X13681896Y-12301484D01*
X13681896Y-12301484D02*
X13700944Y-12311008D01*
X13700944Y-12311008D02*
X13710467Y-12320531D01*
X13710467Y-12320531D02*
X13719991Y-12339579D01*
X13719991Y-12339579D02*
X13729515Y-12377674D01*
X13729515Y-12377674D02*
X13729515Y-12425293D01*
X13729515Y-12425293D02*
X13719991Y-12463388D01*
X13719991Y-12463388D02*
X13710467Y-12482436D01*
X13710467Y-12482436D02*
X13700944Y-12491960D01*
X13700944Y-12491960D02*
X13681896Y-12501484D01*
X13681896Y-12501484D02*
X13662848Y-12501484D01*
X13662848Y-12501484D02*
X13643801Y-12491960D01*
X13643801Y-12491960D02*
X13634277Y-12482436D01*
X13634277Y-12482436D02*
X13624753Y-12463388D01*
X13624753Y-12463388D02*
X13615229Y-12425293D01*
X13615229Y-12425293D02*
X13615229Y-12377674D01*
X13615229Y-12377674D02*
X13624753Y-12339579D01*
X13624753Y-12339579D02*
X13634277Y-12320531D01*
X13634277Y-12320531D02*
X13643801Y-12311008D01*
X13643801Y-12311008D02*
X13662848Y-12301484D01*
X13796182Y-12301484D02*
X13919991Y-12301484D01*
X13919991Y-12301484D02*
X13853325Y-12377674D01*
X13853325Y-12377674D02*
X13881896Y-12377674D01*
X13881896Y-12377674D02*
X13900944Y-12387198D01*
X13900944Y-12387198D02*
X13910467Y-12396722D01*
X13910467Y-12396722D02*
X13919991Y-12415769D01*
X13919991Y-12415769D02*
X13919991Y-12463388D01*
X13919991Y-12463388D02*
X13910467Y-12482436D01*
X13910467Y-12482436D02*
X13900944Y-12491960D01*
X13900944Y-12491960D02*
X13881896Y-12501484D01*
X13881896Y-12501484D02*
X13824753Y-12501484D01*
X13824753Y-12501484D02*
X13805706Y-12491960D01*
X13805706Y-12491960D02*
X13796182Y-12482436D01*
X14015229Y-12501484D02*
X14053325Y-12501484D01*
X14053325Y-12501484D02*
X14072372Y-12491960D01*
X14072372Y-12491960D02*
X14081896Y-12482436D01*
X14081896Y-12482436D02*
X14100944Y-12453865D01*
X14100944Y-12453865D02*
X14110467Y-12415769D01*
X14110467Y-12415769D02*
X14110467Y-12339579D01*
X14110467Y-12339579D02*
X14100944Y-12320531D01*
X14100944Y-12320531D02*
X14091420Y-12311008D01*
X14091420Y-12311008D02*
X14072372Y-12301484D01*
X14072372Y-12301484D02*
X14034277Y-12301484D01*
X14034277Y-12301484D02*
X14015229Y-12311008D01*
X14015229Y-12311008D02*
X14005706Y-12320531D01*
X14005706Y-12320531D02*
X13996182Y-12339579D01*
X13996182Y-12339579D02*
X13996182Y-12387198D01*
X13996182Y-12387198D02*
X14005706Y-12406246D01*
X14005706Y-12406246D02*
X14015229Y-12415769D01*
X14015229Y-12415769D02*
X14034277Y-12425293D01*
X14034277Y-12425293D02*
X14072372Y-12425293D01*
X14072372Y-12425293D02*
X14091420Y-12415769D01*
X14091420Y-12415769D02*
X14100944Y-12406246D01*
X14100944Y-12406246D02*
X14110467Y-12387198D01*
X14281896Y-12368150D02*
X14281896Y-12501484D01*
X14234277Y-12291960D02*
X14186658Y-12434817D01*
X14186658Y-12434817D02*
X14310467Y-12434817D01*
X14377134Y-12301484D02*
X14377134Y-12339579D01*
X14453325Y-12301484D02*
X14453325Y-12339579D01*
X14748563Y-12577674D02*
X14739039Y-12568150D01*
X14739039Y-12568150D02*
X14719991Y-12539579D01*
X14719991Y-12539579D02*
X14710468Y-12520531D01*
X14710468Y-12520531D02*
X14700944Y-12491960D01*
X14700944Y-12491960D02*
X14691420Y-12444341D01*
X14691420Y-12444341D02*
X14691420Y-12406246D01*
X14691420Y-12406246D02*
X14700944Y-12358627D01*
X14700944Y-12358627D02*
X14710468Y-12330055D01*
X14710468Y-12330055D02*
X14719991Y-12311008D01*
X14719991Y-12311008D02*
X14739039Y-12282436D01*
X14739039Y-12282436D02*
X14748563Y-12272912D01*
X14805706Y-12301484D02*
X14929515Y-12301484D01*
X14929515Y-12301484D02*
X14862848Y-12377674D01*
X14862848Y-12377674D02*
X14891420Y-12377674D01*
X14891420Y-12377674D02*
X14910468Y-12387198D01*
X14910468Y-12387198D02*
X14919991Y-12396722D01*
X14919991Y-12396722D02*
X14929515Y-12415769D01*
X14929515Y-12415769D02*
X14929515Y-12463388D01*
X14929515Y-12463388D02*
X14919991Y-12482436D01*
X14919991Y-12482436D02*
X14910468Y-12491960D01*
X14910468Y-12491960D02*
X14891420Y-12501484D01*
X14891420Y-12501484D02*
X14834277Y-12501484D01*
X14834277Y-12501484D02*
X14815229Y-12491960D01*
X14815229Y-12491960D02*
X14805706Y-12482436D01*
X15005706Y-12320531D02*
X15015229Y-12311008D01*
X15015229Y-12311008D02*
X15034277Y-12301484D01*
X15034277Y-12301484D02*
X15081896Y-12301484D01*
X15081896Y-12301484D02*
X15100944Y-12311008D01*
X15100944Y-12311008D02*
X15110468Y-12320531D01*
X15110468Y-12320531D02*
X15119991Y-12339579D01*
X15119991Y-12339579D02*
X15119991Y-12358627D01*
X15119991Y-12358627D02*
X15110468Y-12387198D01*
X15110468Y-12387198D02*
X14996182Y-12501484D01*
X14996182Y-12501484D02*
X15119991Y-12501484D01*
X15358087Y-12501484D02*
X15358087Y-12301484D01*
X15443801Y-12501484D02*
X15443801Y-12396722D01*
X15443801Y-12396722D02*
X15434277Y-12377674D01*
X15434277Y-12377674D02*
X15415230Y-12368150D01*
X15415230Y-12368150D02*
X15386658Y-12368150D01*
X15386658Y-12368150D02*
X15367610Y-12377674D01*
X15367610Y-12377674D02*
X15358087Y-12387198D01*
X15567610Y-12501484D02*
X15548563Y-12491960D01*
X15548563Y-12491960D02*
X15539039Y-12482436D01*
X15539039Y-12482436D02*
X15529515Y-12463388D01*
X15529515Y-12463388D02*
X15529515Y-12406246D01*
X15529515Y-12406246D02*
X15539039Y-12387198D01*
X15539039Y-12387198D02*
X15548563Y-12377674D01*
X15548563Y-12377674D02*
X15567610Y-12368150D01*
X15567610Y-12368150D02*
X15596182Y-12368150D01*
X15596182Y-12368150D02*
X15615230Y-12377674D01*
X15615230Y-12377674D02*
X15624753Y-12387198D01*
X15624753Y-12387198D02*
X15634277Y-12406246D01*
X15634277Y-12406246D02*
X15634277Y-12463388D01*
X15634277Y-12463388D02*
X15624753Y-12482436D01*
X15624753Y-12482436D02*
X15615230Y-12491960D01*
X15615230Y-12491960D02*
X15596182Y-12501484D01*
X15596182Y-12501484D02*
X15567610Y-12501484D01*
X15748563Y-12501484D02*
X15729515Y-12491960D01*
X15729515Y-12491960D02*
X15719991Y-12472912D01*
X15719991Y-12472912D02*
X15719991Y-12301484D01*
X15900944Y-12491960D02*
X15881896Y-12501484D01*
X15881896Y-12501484D02*
X15843801Y-12501484D01*
X15843801Y-12501484D02*
X15824753Y-12491960D01*
X15824753Y-12491960D02*
X15815230Y-12472912D01*
X15815230Y-12472912D02*
X15815230Y-12396722D01*
X15815230Y-12396722D02*
X15824753Y-12377674D01*
X15824753Y-12377674D02*
X15843801Y-12368150D01*
X15843801Y-12368150D02*
X15881896Y-12368150D01*
X15881896Y-12368150D02*
X15900944Y-12377674D01*
X15900944Y-12377674D02*
X15910468Y-12396722D01*
X15910468Y-12396722D02*
X15910468Y-12415769D01*
X15910468Y-12415769D02*
X15815230Y-12434817D01*
X15986658Y-12491960D02*
X16005706Y-12501484D01*
X16005706Y-12501484D02*
X16043801Y-12501484D01*
X16043801Y-12501484D02*
X16062849Y-12491960D01*
X16062849Y-12491960D02*
X16072372Y-12472912D01*
X16072372Y-12472912D02*
X16072372Y-12463388D01*
X16072372Y-12463388D02*
X16062849Y-12444341D01*
X16062849Y-12444341D02*
X16043801Y-12434817D01*
X16043801Y-12434817D02*
X16015230Y-12434817D01*
X16015230Y-12434817D02*
X15996182Y-12425293D01*
X15996182Y-12425293D02*
X15986658Y-12406246D01*
X15986658Y-12406246D02*
X15986658Y-12396722D01*
X15986658Y-12396722D02*
X15996182Y-12377674D01*
X15996182Y-12377674D02*
X16015230Y-12368150D01*
X16015230Y-12368150D02*
X16043801Y-12368150D01*
X16043801Y-12368150D02*
X16062849Y-12377674D01*
X16139039Y-12577674D02*
X16148563Y-12568150D01*
X16148563Y-12568150D02*
X16167611Y-12539579D01*
X16167611Y-12539579D02*
X16177134Y-12520531D01*
X16177134Y-12520531D02*
X16186658Y-12491960D01*
X16186658Y-12491960D02*
X16196182Y-12444341D01*
X16196182Y-12444341D02*
X16196182Y-12406246D01*
X16196182Y-12406246D02*
X16186658Y-12358627D01*
X16186658Y-12358627D02*
X16177134Y-12330055D01*
X16177134Y-12330055D02*
X16167611Y-12311008D01*
X16167611Y-12311008D02*
X16148563Y-12282436D01*
X16148563Y-12282436D02*
X16139039Y-12272912D01*
D13*
X11157391Y-12712891D02*
X11157391Y-12635109D01*
X11079609Y-12635109D01*
X11079609Y-12712891D01*
X11157391Y-12712891D01*
D11*
X11539039Y-12765484D02*
X11424753Y-12765484D01*
X11481896Y-12765484D02*
X11481896Y-12565484D01*
X11481896Y-12565484D02*
X11462848Y-12594055D01*
X11462848Y-12594055D02*
X11443801Y-12613103D01*
X11443801Y-12613103D02*
X11424753Y-12622627D01*
X11624753Y-12746436D02*
X11634277Y-12755960D01*
X11634277Y-12755960D02*
X11624753Y-12765484D01*
X11624753Y-12765484D02*
X11615229Y-12755960D01*
X11615229Y-12755960D02*
X11624753Y-12746436D01*
X11624753Y-12746436D02*
X11624753Y-12765484D01*
X11824753Y-12765484D02*
X11710467Y-12765484D01*
X11767610Y-12765484D02*
X11767610Y-12565484D01*
X11767610Y-12565484D02*
X11748562Y-12594055D01*
X11748562Y-12594055D02*
X11729515Y-12613103D01*
X11729515Y-12613103D02*
X11710467Y-12622627D01*
X11948562Y-12565484D02*
X11967610Y-12565484D01*
X11967610Y-12565484D02*
X11986658Y-12575008D01*
X11986658Y-12575008D02*
X11996182Y-12584531D01*
X11996182Y-12584531D02*
X12005705Y-12603579D01*
X12005705Y-12603579D02*
X12015229Y-12641674D01*
X12015229Y-12641674D02*
X12015229Y-12689293D01*
X12015229Y-12689293D02*
X12005705Y-12727388D01*
X12005705Y-12727388D02*
X11996182Y-12746436D01*
X11996182Y-12746436D02*
X11986658Y-12755960D01*
X11986658Y-12755960D02*
X11967610Y-12765484D01*
X11967610Y-12765484D02*
X11948562Y-12765484D01*
X11948562Y-12765484D02*
X11929515Y-12755960D01*
X11929515Y-12755960D02*
X11919991Y-12746436D01*
X11919991Y-12746436D02*
X11910467Y-12727388D01*
X11910467Y-12727388D02*
X11900943Y-12689293D01*
X11900943Y-12689293D02*
X11900943Y-12641674D01*
X11900943Y-12641674D02*
X11910467Y-12603579D01*
X11910467Y-12603579D02*
X11919991Y-12584531D01*
X11919991Y-12584531D02*
X11929515Y-12575008D01*
X11929515Y-12575008D02*
X11948562Y-12565484D01*
X12139039Y-12565484D02*
X12158086Y-12565484D01*
X12158086Y-12565484D02*
X12177134Y-12575008D01*
X12177134Y-12575008D02*
X12186658Y-12584531D01*
X12186658Y-12584531D02*
X12196182Y-12603579D01*
X12196182Y-12603579D02*
X12205705Y-12641674D01*
X12205705Y-12641674D02*
X12205705Y-12689293D01*
X12205705Y-12689293D02*
X12196182Y-12727388D01*
X12196182Y-12727388D02*
X12186658Y-12746436D01*
X12186658Y-12746436D02*
X12177134Y-12755960D01*
X12177134Y-12755960D02*
X12158086Y-12765484D01*
X12158086Y-12765484D02*
X12139039Y-12765484D01*
X12139039Y-12765484D02*
X12119991Y-12755960D01*
X12119991Y-12755960D02*
X12110467Y-12746436D01*
X12110467Y-12746436D02*
X12100943Y-12727388D01*
X12100943Y-12727388D02*
X12091420Y-12689293D01*
X12091420Y-12689293D02*
X12091420Y-12641674D01*
X12091420Y-12641674D02*
X12100943Y-12603579D01*
X12100943Y-12603579D02*
X12110467Y-12584531D01*
X12110467Y-12584531D02*
X12119991Y-12575008D01*
X12119991Y-12575008D02*
X12139039Y-12565484D01*
X12291420Y-12765484D02*
X12291420Y-12632150D01*
X12291420Y-12651198D02*
X12300943Y-12641674D01*
X12300943Y-12641674D02*
X12319991Y-12632150D01*
X12319991Y-12632150D02*
X12348563Y-12632150D01*
X12348563Y-12632150D02*
X12367610Y-12641674D01*
X12367610Y-12641674D02*
X12377134Y-12660722D01*
X12377134Y-12660722D02*
X12377134Y-12765484D01*
X12377134Y-12660722D02*
X12386658Y-12641674D01*
X12386658Y-12641674D02*
X12405705Y-12632150D01*
X12405705Y-12632150D02*
X12434277Y-12632150D01*
X12434277Y-12632150D02*
X12453324Y-12641674D01*
X12453324Y-12641674D02*
X12462848Y-12660722D01*
X12462848Y-12660722D02*
X12462848Y-12765484D01*
X12558086Y-12765484D02*
X12558086Y-12632150D01*
X12558086Y-12651198D02*
X12567610Y-12641674D01*
X12567610Y-12641674D02*
X12586658Y-12632150D01*
X12586658Y-12632150D02*
X12615229Y-12632150D01*
X12615229Y-12632150D02*
X12634277Y-12641674D01*
X12634277Y-12641674D02*
X12643801Y-12660722D01*
X12643801Y-12660722D02*
X12643801Y-12765484D01*
X12643801Y-12660722D02*
X12653324Y-12641674D01*
X12653324Y-12641674D02*
X12672372Y-12632150D01*
X12672372Y-12632150D02*
X12700943Y-12632150D01*
X12700943Y-12632150D02*
X12719991Y-12641674D01*
X12719991Y-12641674D02*
X12729515Y-12660722D01*
X12729515Y-12660722D02*
X12729515Y-12765484D01*
X13119991Y-12555960D02*
X12948563Y-12813103D01*
X13377134Y-12565484D02*
X13396182Y-12565484D01*
X13396182Y-12565484D02*
X13415229Y-12575008D01*
X13415229Y-12575008D02*
X13424753Y-12584531D01*
X13424753Y-12584531D02*
X13434277Y-12603579D01*
X13434277Y-12603579D02*
X13443801Y-12641674D01*
X13443801Y-12641674D02*
X13443801Y-12689293D01*
X13443801Y-12689293D02*
X13434277Y-12727388D01*
X13434277Y-12727388D02*
X13424753Y-12746436D01*
X13424753Y-12746436D02*
X13415229Y-12755960D01*
X13415229Y-12755960D02*
X13396182Y-12765484D01*
X13396182Y-12765484D02*
X13377134Y-12765484D01*
X13377134Y-12765484D02*
X13358086Y-12755960D01*
X13358086Y-12755960D02*
X13348563Y-12746436D01*
X13348563Y-12746436D02*
X13339039Y-12727388D01*
X13339039Y-12727388D02*
X13329515Y-12689293D01*
X13329515Y-12689293D02*
X13329515Y-12641674D01*
X13329515Y-12641674D02*
X13339039Y-12603579D01*
X13339039Y-12603579D02*
X13348563Y-12584531D01*
X13348563Y-12584531D02*
X13358086Y-12575008D01*
X13358086Y-12575008D02*
X13377134Y-12565484D01*
X13529515Y-12746436D02*
X13539039Y-12755960D01*
X13539039Y-12755960D02*
X13529515Y-12765484D01*
X13529515Y-12765484D02*
X13519991Y-12755960D01*
X13519991Y-12755960D02*
X13529515Y-12746436D01*
X13529515Y-12746436D02*
X13529515Y-12765484D01*
X13662848Y-12565484D02*
X13681896Y-12565484D01*
X13681896Y-12565484D02*
X13700944Y-12575008D01*
X13700944Y-12575008D02*
X13710467Y-12584531D01*
X13710467Y-12584531D02*
X13719991Y-12603579D01*
X13719991Y-12603579D02*
X13729515Y-12641674D01*
X13729515Y-12641674D02*
X13729515Y-12689293D01*
X13729515Y-12689293D02*
X13719991Y-12727388D01*
X13719991Y-12727388D02*
X13710467Y-12746436D01*
X13710467Y-12746436D02*
X13700944Y-12755960D01*
X13700944Y-12755960D02*
X13681896Y-12765484D01*
X13681896Y-12765484D02*
X13662848Y-12765484D01*
X13662848Y-12765484D02*
X13643801Y-12755960D01*
X13643801Y-12755960D02*
X13634277Y-12746436D01*
X13634277Y-12746436D02*
X13624753Y-12727388D01*
X13624753Y-12727388D02*
X13615229Y-12689293D01*
X13615229Y-12689293D02*
X13615229Y-12641674D01*
X13615229Y-12641674D02*
X13624753Y-12603579D01*
X13624753Y-12603579D02*
X13634277Y-12584531D01*
X13634277Y-12584531D02*
X13643801Y-12575008D01*
X13643801Y-12575008D02*
X13662848Y-12565484D01*
X13900944Y-12632150D02*
X13900944Y-12765484D01*
X13853325Y-12555960D02*
X13805706Y-12698817D01*
X13805706Y-12698817D02*
X13929515Y-12698817D01*
X13986658Y-12565484D02*
X14110467Y-12565484D01*
X14110467Y-12565484D02*
X14043801Y-12641674D01*
X14043801Y-12641674D02*
X14072372Y-12641674D01*
X14072372Y-12641674D02*
X14091420Y-12651198D01*
X14091420Y-12651198D02*
X14100944Y-12660722D01*
X14100944Y-12660722D02*
X14110467Y-12679769D01*
X14110467Y-12679769D02*
X14110467Y-12727388D01*
X14110467Y-12727388D02*
X14100944Y-12746436D01*
X14100944Y-12746436D02*
X14091420Y-12755960D01*
X14091420Y-12755960D02*
X14072372Y-12765484D01*
X14072372Y-12765484D02*
X14015229Y-12765484D01*
X14015229Y-12765484D02*
X13996182Y-12755960D01*
X13996182Y-12755960D02*
X13986658Y-12746436D01*
X14177134Y-12565484D02*
X14300944Y-12565484D01*
X14300944Y-12565484D02*
X14234277Y-12641674D01*
X14234277Y-12641674D02*
X14262848Y-12641674D01*
X14262848Y-12641674D02*
X14281896Y-12651198D01*
X14281896Y-12651198D02*
X14291420Y-12660722D01*
X14291420Y-12660722D02*
X14300944Y-12679769D01*
X14300944Y-12679769D02*
X14300944Y-12727388D01*
X14300944Y-12727388D02*
X14291420Y-12746436D01*
X14291420Y-12746436D02*
X14281896Y-12755960D01*
X14281896Y-12755960D02*
X14262848Y-12765484D01*
X14262848Y-12765484D02*
X14205706Y-12765484D01*
X14205706Y-12765484D02*
X14186658Y-12755960D01*
X14186658Y-12755960D02*
X14177134Y-12746436D01*
X14377134Y-12565484D02*
X14377134Y-12603579D01*
X14453325Y-12565484D02*
X14453325Y-12603579D01*
X14748563Y-12841674D02*
X14739039Y-12832150D01*
X14739039Y-12832150D02*
X14719991Y-12803579D01*
X14719991Y-12803579D02*
X14710468Y-12784531D01*
X14710468Y-12784531D02*
X14700944Y-12755960D01*
X14700944Y-12755960D02*
X14691420Y-12708341D01*
X14691420Y-12708341D02*
X14691420Y-12670246D01*
X14691420Y-12670246D02*
X14700944Y-12622627D01*
X14700944Y-12622627D02*
X14710468Y-12594055D01*
X14710468Y-12594055D02*
X14719991Y-12575008D01*
X14719991Y-12575008D02*
X14739039Y-12546436D01*
X14739039Y-12546436D02*
X14748563Y-12536912D01*
X14805706Y-12565484D02*
X14929515Y-12565484D01*
X14929515Y-12565484D02*
X14862848Y-12641674D01*
X14862848Y-12641674D02*
X14891420Y-12641674D01*
X14891420Y-12641674D02*
X14910468Y-12651198D01*
X14910468Y-12651198D02*
X14919991Y-12660722D01*
X14919991Y-12660722D02*
X14929515Y-12679769D01*
X14929515Y-12679769D02*
X14929515Y-12727388D01*
X14929515Y-12727388D02*
X14919991Y-12746436D01*
X14919991Y-12746436D02*
X14910468Y-12755960D01*
X14910468Y-12755960D02*
X14891420Y-12765484D01*
X14891420Y-12765484D02*
X14834277Y-12765484D01*
X14834277Y-12765484D02*
X14815229Y-12755960D01*
X14815229Y-12755960D02*
X14805706Y-12746436D01*
X15167610Y-12765484D02*
X15167610Y-12565484D01*
X15253325Y-12765484D02*
X15253325Y-12660722D01*
X15253325Y-12660722D02*
X15243801Y-12641674D01*
X15243801Y-12641674D02*
X15224753Y-12632150D01*
X15224753Y-12632150D02*
X15196182Y-12632150D01*
X15196182Y-12632150D02*
X15177134Y-12641674D01*
X15177134Y-12641674D02*
X15167610Y-12651198D01*
X15377134Y-12765484D02*
X15358087Y-12755960D01*
X15358087Y-12755960D02*
X15348563Y-12746436D01*
X15348563Y-12746436D02*
X15339039Y-12727388D01*
X15339039Y-12727388D02*
X15339039Y-12670246D01*
X15339039Y-12670246D02*
X15348563Y-12651198D01*
X15348563Y-12651198D02*
X15358087Y-12641674D01*
X15358087Y-12641674D02*
X15377134Y-12632150D01*
X15377134Y-12632150D02*
X15405706Y-12632150D01*
X15405706Y-12632150D02*
X15424753Y-12641674D01*
X15424753Y-12641674D02*
X15434277Y-12651198D01*
X15434277Y-12651198D02*
X15443801Y-12670246D01*
X15443801Y-12670246D02*
X15443801Y-12727388D01*
X15443801Y-12727388D02*
X15434277Y-12746436D01*
X15434277Y-12746436D02*
X15424753Y-12755960D01*
X15424753Y-12755960D02*
X15405706Y-12765484D01*
X15405706Y-12765484D02*
X15377134Y-12765484D01*
X15558087Y-12765484D02*
X15539039Y-12755960D01*
X15539039Y-12755960D02*
X15529515Y-12736912D01*
X15529515Y-12736912D02*
X15529515Y-12565484D01*
X15710468Y-12755960D02*
X15691420Y-12765484D01*
X15691420Y-12765484D02*
X15653325Y-12765484D01*
X15653325Y-12765484D02*
X15634277Y-12755960D01*
X15634277Y-12755960D02*
X15624753Y-12736912D01*
X15624753Y-12736912D02*
X15624753Y-12660722D01*
X15624753Y-12660722D02*
X15634277Y-12641674D01*
X15634277Y-12641674D02*
X15653325Y-12632150D01*
X15653325Y-12632150D02*
X15691420Y-12632150D01*
X15691420Y-12632150D02*
X15710468Y-12641674D01*
X15710468Y-12641674D02*
X15719991Y-12660722D01*
X15719991Y-12660722D02*
X15719991Y-12679769D01*
X15719991Y-12679769D02*
X15624753Y-12698817D01*
X15796182Y-12755960D02*
X15815230Y-12765484D01*
X15815230Y-12765484D02*
X15853325Y-12765484D01*
X15853325Y-12765484D02*
X15872372Y-12755960D01*
X15872372Y-12755960D02*
X15881896Y-12736912D01*
X15881896Y-12736912D02*
X15881896Y-12727388D01*
X15881896Y-12727388D02*
X15872372Y-12708341D01*
X15872372Y-12708341D02*
X15853325Y-12698817D01*
X15853325Y-12698817D02*
X15824753Y-12698817D01*
X15824753Y-12698817D02*
X15805706Y-12689293D01*
X15805706Y-12689293D02*
X15796182Y-12670246D01*
X15796182Y-12670246D02*
X15796182Y-12660722D01*
X15796182Y-12660722D02*
X15805706Y-12641674D01*
X15805706Y-12641674D02*
X15824753Y-12632150D01*
X15824753Y-12632150D02*
X15853325Y-12632150D01*
X15853325Y-12632150D02*
X15872372Y-12641674D01*
X15948563Y-12841674D02*
X15958087Y-12832150D01*
X15958087Y-12832150D02*
X15977134Y-12803579D01*
X15977134Y-12803579D02*
X15986658Y-12784531D01*
X15986658Y-12784531D02*
X15996182Y-12755960D01*
X15996182Y-12755960D02*
X16005706Y-12708341D01*
X16005706Y-12708341D02*
X16005706Y-12670246D01*
X16005706Y-12670246D02*
X15996182Y-12622627D01*
X15996182Y-12622627D02*
X15986658Y-12594055D01*
X15986658Y-12594055D02*
X15977134Y-12575008D01*
X15977134Y-12575008D02*
X15958087Y-12546436D01*
X15958087Y-12546436D02*
X15948563Y-12536912D01*
D14*
X11113500Y-12998000D02*
X11173500Y-12938000D01*
X11113500Y-12878000D01*
X11053500Y-12938000D01*
X11113500Y-12998000D01*
D11*
X11539039Y-13029484D02*
X11424753Y-13029484D01*
X11481896Y-13029484D02*
X11481896Y-12829484D01*
X11481896Y-12829484D02*
X11462848Y-12858055D01*
X11462848Y-12858055D02*
X11443801Y-12877103D01*
X11443801Y-12877103D02*
X11424753Y-12886627D01*
X11624753Y-13010436D02*
X11634277Y-13019960D01*
X11634277Y-13019960D02*
X11624753Y-13029484D01*
X11624753Y-13029484D02*
X11615229Y-13019960D01*
X11615229Y-13019960D02*
X11624753Y-13010436D01*
X11624753Y-13010436D02*
X11624753Y-13029484D01*
X11710467Y-12848531D02*
X11719991Y-12839008D01*
X11719991Y-12839008D02*
X11739039Y-12829484D01*
X11739039Y-12829484D02*
X11786658Y-12829484D01*
X11786658Y-12829484D02*
X11805705Y-12839008D01*
X11805705Y-12839008D02*
X11815229Y-12848531D01*
X11815229Y-12848531D02*
X11824753Y-12867579D01*
X11824753Y-12867579D02*
X11824753Y-12886627D01*
X11824753Y-12886627D02*
X11815229Y-12915198D01*
X11815229Y-12915198D02*
X11700943Y-13029484D01*
X11700943Y-13029484D02*
X11824753Y-13029484D01*
X11948562Y-12829484D02*
X11967610Y-12829484D01*
X11967610Y-12829484D02*
X11986658Y-12839008D01*
X11986658Y-12839008D02*
X11996182Y-12848531D01*
X11996182Y-12848531D02*
X12005705Y-12867579D01*
X12005705Y-12867579D02*
X12015229Y-12905674D01*
X12015229Y-12905674D02*
X12015229Y-12953293D01*
X12015229Y-12953293D02*
X12005705Y-12991388D01*
X12005705Y-12991388D02*
X11996182Y-13010436D01*
X11996182Y-13010436D02*
X11986658Y-13019960D01*
X11986658Y-13019960D02*
X11967610Y-13029484D01*
X11967610Y-13029484D02*
X11948562Y-13029484D01*
X11948562Y-13029484D02*
X11929515Y-13019960D01*
X11929515Y-13019960D02*
X11919991Y-13010436D01*
X11919991Y-13010436D02*
X11910467Y-12991388D01*
X11910467Y-12991388D02*
X11900943Y-12953293D01*
X11900943Y-12953293D02*
X11900943Y-12905674D01*
X11900943Y-12905674D02*
X11910467Y-12867579D01*
X11910467Y-12867579D02*
X11919991Y-12848531D01*
X11919991Y-12848531D02*
X11929515Y-12839008D01*
X11929515Y-12839008D02*
X11948562Y-12829484D01*
X12139039Y-12829484D02*
X12158086Y-12829484D01*
X12158086Y-12829484D02*
X12177134Y-12839008D01*
X12177134Y-12839008D02*
X12186658Y-12848531D01*
X12186658Y-12848531D02*
X12196182Y-12867579D01*
X12196182Y-12867579D02*
X12205705Y-12905674D01*
X12205705Y-12905674D02*
X12205705Y-12953293D01*
X12205705Y-12953293D02*
X12196182Y-12991388D01*
X12196182Y-12991388D02*
X12186658Y-13010436D01*
X12186658Y-13010436D02*
X12177134Y-13019960D01*
X12177134Y-13019960D02*
X12158086Y-13029484D01*
X12158086Y-13029484D02*
X12139039Y-13029484D01*
X12139039Y-13029484D02*
X12119991Y-13019960D01*
X12119991Y-13019960D02*
X12110467Y-13010436D01*
X12110467Y-13010436D02*
X12100943Y-12991388D01*
X12100943Y-12991388D02*
X12091420Y-12953293D01*
X12091420Y-12953293D02*
X12091420Y-12905674D01*
X12091420Y-12905674D02*
X12100943Y-12867579D01*
X12100943Y-12867579D02*
X12110467Y-12848531D01*
X12110467Y-12848531D02*
X12119991Y-12839008D01*
X12119991Y-12839008D02*
X12139039Y-12829484D01*
X12291420Y-13029484D02*
X12291420Y-12896150D01*
X12291420Y-12915198D02*
X12300943Y-12905674D01*
X12300943Y-12905674D02*
X12319991Y-12896150D01*
X12319991Y-12896150D02*
X12348563Y-12896150D01*
X12348563Y-12896150D02*
X12367610Y-12905674D01*
X12367610Y-12905674D02*
X12377134Y-12924722D01*
X12377134Y-12924722D02*
X12377134Y-13029484D01*
X12377134Y-12924722D02*
X12386658Y-12905674D01*
X12386658Y-12905674D02*
X12405705Y-12896150D01*
X12405705Y-12896150D02*
X12434277Y-12896150D01*
X12434277Y-12896150D02*
X12453324Y-12905674D01*
X12453324Y-12905674D02*
X12462848Y-12924722D01*
X12462848Y-12924722D02*
X12462848Y-13029484D01*
X12558086Y-13029484D02*
X12558086Y-12896150D01*
X12558086Y-12915198D02*
X12567610Y-12905674D01*
X12567610Y-12905674D02*
X12586658Y-12896150D01*
X12586658Y-12896150D02*
X12615229Y-12896150D01*
X12615229Y-12896150D02*
X12634277Y-12905674D01*
X12634277Y-12905674D02*
X12643801Y-12924722D01*
X12643801Y-12924722D02*
X12643801Y-13029484D01*
X12643801Y-12924722D02*
X12653324Y-12905674D01*
X12653324Y-12905674D02*
X12672372Y-12896150D01*
X12672372Y-12896150D02*
X12700943Y-12896150D01*
X12700943Y-12896150D02*
X12719991Y-12905674D01*
X12719991Y-12905674D02*
X12729515Y-12924722D01*
X12729515Y-12924722D02*
X12729515Y-13029484D01*
X13119991Y-12819960D02*
X12948563Y-13077103D01*
X13377134Y-12829484D02*
X13396182Y-12829484D01*
X13396182Y-12829484D02*
X13415229Y-12839008D01*
X13415229Y-12839008D02*
X13424753Y-12848531D01*
X13424753Y-12848531D02*
X13434277Y-12867579D01*
X13434277Y-12867579D02*
X13443801Y-12905674D01*
X13443801Y-12905674D02*
X13443801Y-12953293D01*
X13443801Y-12953293D02*
X13434277Y-12991388D01*
X13434277Y-12991388D02*
X13424753Y-13010436D01*
X13424753Y-13010436D02*
X13415229Y-13019960D01*
X13415229Y-13019960D02*
X13396182Y-13029484D01*
X13396182Y-13029484D02*
X13377134Y-13029484D01*
X13377134Y-13029484D02*
X13358086Y-13019960D01*
X13358086Y-13019960D02*
X13348563Y-13010436D01*
X13348563Y-13010436D02*
X13339039Y-12991388D01*
X13339039Y-12991388D02*
X13329515Y-12953293D01*
X13329515Y-12953293D02*
X13329515Y-12905674D01*
X13329515Y-12905674D02*
X13339039Y-12867579D01*
X13339039Y-12867579D02*
X13348563Y-12848531D01*
X13348563Y-12848531D02*
X13358086Y-12839008D01*
X13358086Y-12839008D02*
X13377134Y-12829484D01*
X13529515Y-13010436D02*
X13539039Y-13019960D01*
X13539039Y-13019960D02*
X13529515Y-13029484D01*
X13529515Y-13029484D02*
X13519991Y-13019960D01*
X13519991Y-13019960D02*
X13529515Y-13010436D01*
X13529515Y-13010436D02*
X13529515Y-13029484D01*
X13662848Y-12829484D02*
X13681896Y-12829484D01*
X13681896Y-12829484D02*
X13700944Y-12839008D01*
X13700944Y-12839008D02*
X13710467Y-12848531D01*
X13710467Y-12848531D02*
X13719991Y-12867579D01*
X13719991Y-12867579D02*
X13729515Y-12905674D01*
X13729515Y-12905674D02*
X13729515Y-12953293D01*
X13729515Y-12953293D02*
X13719991Y-12991388D01*
X13719991Y-12991388D02*
X13710467Y-13010436D01*
X13710467Y-13010436D02*
X13700944Y-13019960D01*
X13700944Y-13019960D02*
X13681896Y-13029484D01*
X13681896Y-13029484D02*
X13662848Y-13029484D01*
X13662848Y-13029484D02*
X13643801Y-13019960D01*
X13643801Y-13019960D02*
X13634277Y-13010436D01*
X13634277Y-13010436D02*
X13624753Y-12991388D01*
X13624753Y-12991388D02*
X13615229Y-12953293D01*
X13615229Y-12953293D02*
X13615229Y-12905674D01*
X13615229Y-12905674D02*
X13624753Y-12867579D01*
X13624753Y-12867579D02*
X13634277Y-12848531D01*
X13634277Y-12848531D02*
X13643801Y-12839008D01*
X13643801Y-12839008D02*
X13662848Y-12829484D01*
X13900944Y-12896150D02*
X13900944Y-13029484D01*
X13853325Y-12819960D02*
X13805706Y-12962817D01*
X13805706Y-12962817D02*
X13929515Y-12962817D01*
X13986658Y-12829484D02*
X14119991Y-12829484D01*
X14119991Y-12829484D02*
X14034277Y-13029484D01*
X14186658Y-12848531D02*
X14196182Y-12839008D01*
X14196182Y-12839008D02*
X14215229Y-12829484D01*
X14215229Y-12829484D02*
X14262848Y-12829484D01*
X14262848Y-12829484D02*
X14281896Y-12839008D01*
X14281896Y-12839008D02*
X14291420Y-12848531D01*
X14291420Y-12848531D02*
X14300944Y-12867579D01*
X14300944Y-12867579D02*
X14300944Y-12886627D01*
X14300944Y-12886627D02*
X14291420Y-12915198D01*
X14291420Y-12915198D02*
X14177134Y-13029484D01*
X14177134Y-13029484D02*
X14300944Y-13029484D01*
X14377134Y-12829484D02*
X14377134Y-12867579D01*
X14453325Y-12829484D02*
X14453325Y-12867579D01*
X14748563Y-13105674D02*
X14739039Y-13096150D01*
X14739039Y-13096150D02*
X14719991Y-13067579D01*
X14719991Y-13067579D02*
X14710468Y-13048531D01*
X14710468Y-13048531D02*
X14700944Y-13019960D01*
X14700944Y-13019960D02*
X14691420Y-12972341D01*
X14691420Y-12972341D02*
X14691420Y-12934246D01*
X14691420Y-12934246D02*
X14700944Y-12886627D01*
X14700944Y-12886627D02*
X14710468Y-12858055D01*
X14710468Y-12858055D02*
X14719991Y-12839008D01*
X14719991Y-12839008D02*
X14739039Y-12810436D01*
X14739039Y-12810436D02*
X14748563Y-12800912D01*
X14805706Y-12829484D02*
X14929515Y-12829484D01*
X14929515Y-12829484D02*
X14862848Y-12905674D01*
X14862848Y-12905674D02*
X14891420Y-12905674D01*
X14891420Y-12905674D02*
X14910468Y-12915198D01*
X14910468Y-12915198D02*
X14919991Y-12924722D01*
X14919991Y-12924722D02*
X14929515Y-12943769D01*
X14929515Y-12943769D02*
X14929515Y-12991388D01*
X14929515Y-12991388D02*
X14919991Y-13010436D01*
X14919991Y-13010436D02*
X14910468Y-13019960D01*
X14910468Y-13019960D02*
X14891420Y-13029484D01*
X14891420Y-13029484D02*
X14834277Y-13029484D01*
X14834277Y-13029484D02*
X14815229Y-13019960D01*
X14815229Y-13019960D02*
X14805706Y-13010436D01*
X15167610Y-13029484D02*
X15167610Y-12829484D01*
X15253325Y-13029484D02*
X15253325Y-12924722D01*
X15253325Y-12924722D02*
X15243801Y-12905674D01*
X15243801Y-12905674D02*
X15224753Y-12896150D01*
X15224753Y-12896150D02*
X15196182Y-12896150D01*
X15196182Y-12896150D02*
X15177134Y-12905674D01*
X15177134Y-12905674D02*
X15167610Y-12915198D01*
X15377134Y-13029484D02*
X15358087Y-13019960D01*
X15358087Y-13019960D02*
X15348563Y-13010436D01*
X15348563Y-13010436D02*
X15339039Y-12991388D01*
X15339039Y-12991388D02*
X15339039Y-12934246D01*
X15339039Y-12934246D02*
X15348563Y-12915198D01*
X15348563Y-12915198D02*
X15358087Y-12905674D01*
X15358087Y-12905674D02*
X15377134Y-12896150D01*
X15377134Y-12896150D02*
X15405706Y-12896150D01*
X15405706Y-12896150D02*
X15424753Y-12905674D01*
X15424753Y-12905674D02*
X15434277Y-12915198D01*
X15434277Y-12915198D02*
X15443801Y-12934246D01*
X15443801Y-12934246D02*
X15443801Y-12991388D01*
X15443801Y-12991388D02*
X15434277Y-13010436D01*
X15434277Y-13010436D02*
X15424753Y-13019960D01*
X15424753Y-13019960D02*
X15405706Y-13029484D01*
X15405706Y-13029484D02*
X15377134Y-13029484D01*
X15558087Y-13029484D02*
X15539039Y-13019960D01*
X15539039Y-13019960D02*
X15529515Y-13000912D01*
X15529515Y-13000912D02*
X15529515Y-12829484D01*
X15710468Y-13019960D02*
X15691420Y-13029484D01*
X15691420Y-13029484D02*
X15653325Y-13029484D01*
X15653325Y-13029484D02*
X15634277Y-13019960D01*
X15634277Y-13019960D02*
X15624753Y-13000912D01*
X15624753Y-13000912D02*
X15624753Y-12924722D01*
X15624753Y-12924722D02*
X15634277Y-12905674D01*
X15634277Y-12905674D02*
X15653325Y-12896150D01*
X15653325Y-12896150D02*
X15691420Y-12896150D01*
X15691420Y-12896150D02*
X15710468Y-12905674D01*
X15710468Y-12905674D02*
X15719991Y-12924722D01*
X15719991Y-12924722D02*
X15719991Y-12943769D01*
X15719991Y-12943769D02*
X15624753Y-12962817D01*
X15796182Y-13019960D02*
X15815230Y-13029484D01*
X15815230Y-13029484D02*
X15853325Y-13029484D01*
X15853325Y-13029484D02*
X15872372Y-13019960D01*
X15872372Y-13019960D02*
X15881896Y-13000912D01*
X15881896Y-13000912D02*
X15881896Y-12991388D01*
X15881896Y-12991388D02*
X15872372Y-12972341D01*
X15872372Y-12972341D02*
X15853325Y-12962817D01*
X15853325Y-12962817D02*
X15824753Y-12962817D01*
X15824753Y-12962817D02*
X15805706Y-12953293D01*
X15805706Y-12953293D02*
X15796182Y-12934246D01*
X15796182Y-12934246D02*
X15796182Y-12924722D01*
X15796182Y-12924722D02*
X15805706Y-12905674D01*
X15805706Y-12905674D02*
X15824753Y-12896150D01*
X15824753Y-12896150D02*
X15853325Y-12896150D01*
X15853325Y-12896150D02*
X15872372Y-12905674D01*
X15948563Y-13105674D02*
X15958087Y-13096150D01*
X15958087Y-13096150D02*
X15977134Y-13067579D01*
X15977134Y-13067579D02*
X15986658Y-13048531D01*
X15986658Y-13048531D02*
X15996182Y-13019960D01*
X15996182Y-13019960D02*
X16005706Y-12972341D01*
X16005706Y-12972341D02*
X16005706Y-12934246D01*
X16005706Y-12934246D02*
X15996182Y-12886627D01*
X15996182Y-12886627D02*
X15986658Y-12858055D01*
X15986658Y-12858055D02*
X15977134Y-12839008D01*
X15977134Y-12839008D02*
X15958087Y-12810436D01*
X15958087Y-12810436D02*
X15948563Y-12800912D01*
X10973500Y-13102000D02*
X11173500Y-13302000D01*
X11173500Y-13102000D02*
X10973500Y-13302000D01*
X11173500Y-13202000D02*
G75*
G02*
X10973500Y-13202000I-100000J0D01*
G01*
X10973500Y-13202000D02*
G75*
G02*
X11173500Y-13202000I100000J0D01*
G01*
X11519991Y-13160150D02*
X11519991Y-13293484D01*
X11472372Y-13083960D02*
X11424753Y-13226817D01*
X11424753Y-13226817D02*
X11548562Y-13226817D01*
X11624753Y-13274436D02*
X11634277Y-13283960D01*
X11634277Y-13283960D02*
X11624753Y-13293484D01*
X11624753Y-13293484D02*
X11615229Y-13283960D01*
X11615229Y-13283960D02*
X11624753Y-13274436D01*
X11624753Y-13274436D02*
X11624753Y-13293484D01*
X11815229Y-13093484D02*
X11719991Y-13093484D01*
X11719991Y-13093484D02*
X11710467Y-13188722D01*
X11710467Y-13188722D02*
X11719991Y-13179198D01*
X11719991Y-13179198D02*
X11739039Y-13169674D01*
X11739039Y-13169674D02*
X11786658Y-13169674D01*
X11786658Y-13169674D02*
X11805705Y-13179198D01*
X11805705Y-13179198D02*
X11815229Y-13188722D01*
X11815229Y-13188722D02*
X11824753Y-13207769D01*
X11824753Y-13207769D02*
X11824753Y-13255388D01*
X11824753Y-13255388D02*
X11815229Y-13274436D01*
X11815229Y-13274436D02*
X11805705Y-13283960D01*
X11805705Y-13283960D02*
X11786658Y-13293484D01*
X11786658Y-13293484D02*
X11739039Y-13293484D01*
X11739039Y-13293484D02*
X11719991Y-13283960D01*
X11719991Y-13283960D02*
X11710467Y-13274436D01*
X11948562Y-13093484D02*
X11967610Y-13093484D01*
X11967610Y-13093484D02*
X11986658Y-13103008D01*
X11986658Y-13103008D02*
X11996182Y-13112531D01*
X11996182Y-13112531D02*
X12005705Y-13131579D01*
X12005705Y-13131579D02*
X12015229Y-13169674D01*
X12015229Y-13169674D02*
X12015229Y-13217293D01*
X12015229Y-13217293D02*
X12005705Y-13255388D01*
X12005705Y-13255388D02*
X11996182Y-13274436D01*
X11996182Y-13274436D02*
X11986658Y-13283960D01*
X11986658Y-13283960D02*
X11967610Y-13293484D01*
X11967610Y-13293484D02*
X11948562Y-13293484D01*
X11948562Y-13293484D02*
X11929515Y-13283960D01*
X11929515Y-13283960D02*
X11919991Y-13274436D01*
X11919991Y-13274436D02*
X11910467Y-13255388D01*
X11910467Y-13255388D02*
X11900943Y-13217293D01*
X11900943Y-13217293D02*
X11900943Y-13169674D01*
X11900943Y-13169674D02*
X11910467Y-13131579D01*
X11910467Y-13131579D02*
X11919991Y-13112531D01*
X11919991Y-13112531D02*
X11929515Y-13103008D01*
X11929515Y-13103008D02*
X11948562Y-13093484D01*
X12139039Y-13093484D02*
X12158086Y-13093484D01*
X12158086Y-13093484D02*
X12177134Y-13103008D01*
X12177134Y-13103008D02*
X12186658Y-13112531D01*
X12186658Y-13112531D02*
X12196182Y-13131579D01*
X12196182Y-13131579D02*
X12205705Y-13169674D01*
X12205705Y-13169674D02*
X12205705Y-13217293D01*
X12205705Y-13217293D02*
X12196182Y-13255388D01*
X12196182Y-13255388D02*
X12186658Y-13274436D01*
X12186658Y-13274436D02*
X12177134Y-13283960D01*
X12177134Y-13283960D02*
X12158086Y-13293484D01*
X12158086Y-13293484D02*
X12139039Y-13293484D01*
X12139039Y-13293484D02*
X12119991Y-13283960D01*
X12119991Y-13283960D02*
X12110467Y-13274436D01*
X12110467Y-13274436D02*
X12100943Y-13255388D01*
X12100943Y-13255388D02*
X12091420Y-13217293D01*
X12091420Y-13217293D02*
X12091420Y-13169674D01*
X12091420Y-13169674D02*
X12100943Y-13131579D01*
X12100943Y-13131579D02*
X12110467Y-13112531D01*
X12110467Y-13112531D02*
X12119991Y-13103008D01*
X12119991Y-13103008D02*
X12139039Y-13093484D01*
X12291420Y-13293484D02*
X12291420Y-13160150D01*
X12291420Y-13179198D02*
X12300943Y-13169674D01*
X12300943Y-13169674D02*
X12319991Y-13160150D01*
X12319991Y-13160150D02*
X12348563Y-13160150D01*
X12348563Y-13160150D02*
X12367610Y-13169674D01*
X12367610Y-13169674D02*
X12377134Y-13188722D01*
X12377134Y-13188722D02*
X12377134Y-13293484D01*
X12377134Y-13188722D02*
X12386658Y-13169674D01*
X12386658Y-13169674D02*
X12405705Y-13160150D01*
X12405705Y-13160150D02*
X12434277Y-13160150D01*
X12434277Y-13160150D02*
X12453324Y-13169674D01*
X12453324Y-13169674D02*
X12462848Y-13188722D01*
X12462848Y-13188722D02*
X12462848Y-13293484D01*
X12558086Y-13293484D02*
X12558086Y-13160150D01*
X12558086Y-13179198D02*
X12567610Y-13169674D01*
X12567610Y-13169674D02*
X12586658Y-13160150D01*
X12586658Y-13160150D02*
X12615229Y-13160150D01*
X12615229Y-13160150D02*
X12634277Y-13169674D01*
X12634277Y-13169674D02*
X12643801Y-13188722D01*
X12643801Y-13188722D02*
X12643801Y-13293484D01*
X12643801Y-13188722D02*
X12653324Y-13169674D01*
X12653324Y-13169674D02*
X12672372Y-13160150D01*
X12672372Y-13160150D02*
X12700943Y-13160150D01*
X12700943Y-13160150D02*
X12719991Y-13169674D01*
X12719991Y-13169674D02*
X12729515Y-13188722D01*
X12729515Y-13188722D02*
X12729515Y-13293484D01*
X13119991Y-13083960D02*
X12948563Y-13341103D01*
X13377134Y-13093484D02*
X13396182Y-13093484D01*
X13396182Y-13093484D02*
X13415229Y-13103008D01*
X13415229Y-13103008D02*
X13424753Y-13112531D01*
X13424753Y-13112531D02*
X13434277Y-13131579D01*
X13434277Y-13131579D02*
X13443801Y-13169674D01*
X13443801Y-13169674D02*
X13443801Y-13217293D01*
X13443801Y-13217293D02*
X13434277Y-13255388D01*
X13434277Y-13255388D02*
X13424753Y-13274436D01*
X13424753Y-13274436D02*
X13415229Y-13283960D01*
X13415229Y-13283960D02*
X13396182Y-13293484D01*
X13396182Y-13293484D02*
X13377134Y-13293484D01*
X13377134Y-13293484D02*
X13358086Y-13283960D01*
X13358086Y-13283960D02*
X13348563Y-13274436D01*
X13348563Y-13274436D02*
X13339039Y-13255388D01*
X13339039Y-13255388D02*
X13329515Y-13217293D01*
X13329515Y-13217293D02*
X13329515Y-13169674D01*
X13329515Y-13169674D02*
X13339039Y-13131579D01*
X13339039Y-13131579D02*
X13348563Y-13112531D01*
X13348563Y-13112531D02*
X13358086Y-13103008D01*
X13358086Y-13103008D02*
X13377134Y-13093484D01*
X13529515Y-13274436D02*
X13539039Y-13283960D01*
X13539039Y-13283960D02*
X13529515Y-13293484D01*
X13529515Y-13293484D02*
X13519991Y-13283960D01*
X13519991Y-13283960D02*
X13529515Y-13274436D01*
X13529515Y-13274436D02*
X13529515Y-13293484D01*
X13729515Y-13293484D02*
X13615229Y-13293484D01*
X13672372Y-13293484D02*
X13672372Y-13093484D01*
X13672372Y-13093484D02*
X13653325Y-13122055D01*
X13653325Y-13122055D02*
X13634277Y-13141103D01*
X13634277Y-13141103D02*
X13615229Y-13150627D01*
X13796182Y-13093484D02*
X13929515Y-13093484D01*
X13929515Y-13093484D02*
X13843801Y-13293484D01*
X13986658Y-13093484D02*
X14119991Y-13093484D01*
X14119991Y-13093484D02*
X14034277Y-13293484D01*
X14186658Y-13112531D02*
X14196182Y-13103008D01*
X14196182Y-13103008D02*
X14215229Y-13093484D01*
X14215229Y-13093484D02*
X14262848Y-13093484D01*
X14262848Y-13093484D02*
X14281896Y-13103008D01*
X14281896Y-13103008D02*
X14291420Y-13112531D01*
X14291420Y-13112531D02*
X14300944Y-13131579D01*
X14300944Y-13131579D02*
X14300944Y-13150627D01*
X14300944Y-13150627D02*
X14291420Y-13179198D01*
X14291420Y-13179198D02*
X14177134Y-13293484D01*
X14177134Y-13293484D02*
X14300944Y-13293484D01*
X14377134Y-13093484D02*
X14377134Y-13131579D01*
X14453325Y-13093484D02*
X14453325Y-13131579D01*
X14748563Y-13369674D02*
X14739039Y-13360150D01*
X14739039Y-13360150D02*
X14719991Y-13331579D01*
X14719991Y-13331579D02*
X14710468Y-13312531D01*
X14710468Y-13312531D02*
X14700944Y-13283960D01*
X14700944Y-13283960D02*
X14691420Y-13236341D01*
X14691420Y-13236341D02*
X14691420Y-13198246D01*
X14691420Y-13198246D02*
X14700944Y-13150627D01*
X14700944Y-13150627D02*
X14710468Y-13122055D01*
X14710468Y-13122055D02*
X14719991Y-13103008D01*
X14719991Y-13103008D02*
X14739039Y-13074436D01*
X14739039Y-13074436D02*
X14748563Y-13064912D01*
X14929515Y-13293484D02*
X14815229Y-13293484D01*
X14872372Y-13293484D02*
X14872372Y-13093484D01*
X14872372Y-13093484D02*
X14853325Y-13122055D01*
X14853325Y-13122055D02*
X14834277Y-13141103D01*
X14834277Y-13141103D02*
X14815229Y-13150627D01*
X15167610Y-13293484D02*
X15167610Y-13093484D01*
X15253325Y-13293484D02*
X15253325Y-13188722D01*
X15253325Y-13188722D02*
X15243801Y-13169674D01*
X15243801Y-13169674D02*
X15224753Y-13160150D01*
X15224753Y-13160150D02*
X15196182Y-13160150D01*
X15196182Y-13160150D02*
X15177134Y-13169674D01*
X15177134Y-13169674D02*
X15167610Y-13179198D01*
X15377134Y-13293484D02*
X15358087Y-13283960D01*
X15358087Y-13283960D02*
X15348563Y-13274436D01*
X15348563Y-13274436D02*
X15339039Y-13255388D01*
X15339039Y-13255388D02*
X15339039Y-13198246D01*
X15339039Y-13198246D02*
X15348563Y-13179198D01*
X15348563Y-13179198D02*
X15358087Y-13169674D01*
X15358087Y-13169674D02*
X15377134Y-13160150D01*
X15377134Y-13160150D02*
X15405706Y-13160150D01*
X15405706Y-13160150D02*
X15424753Y-13169674D01*
X15424753Y-13169674D02*
X15434277Y-13179198D01*
X15434277Y-13179198D02*
X15443801Y-13198246D01*
X15443801Y-13198246D02*
X15443801Y-13255388D01*
X15443801Y-13255388D02*
X15434277Y-13274436D01*
X15434277Y-13274436D02*
X15424753Y-13283960D01*
X15424753Y-13283960D02*
X15405706Y-13293484D01*
X15405706Y-13293484D02*
X15377134Y-13293484D01*
X15558087Y-13293484D02*
X15539039Y-13283960D01*
X15539039Y-13283960D02*
X15529515Y-13264912D01*
X15529515Y-13264912D02*
X15529515Y-13093484D01*
X15710468Y-13283960D02*
X15691420Y-13293484D01*
X15691420Y-13293484D02*
X15653325Y-13293484D01*
X15653325Y-13293484D02*
X15634277Y-13283960D01*
X15634277Y-13283960D02*
X15624753Y-13264912D01*
X15624753Y-13264912D02*
X15624753Y-13188722D01*
X15624753Y-13188722D02*
X15634277Y-13169674D01*
X15634277Y-13169674D02*
X15653325Y-13160150D01*
X15653325Y-13160150D02*
X15691420Y-13160150D01*
X15691420Y-13160150D02*
X15710468Y-13169674D01*
X15710468Y-13169674D02*
X15719991Y-13188722D01*
X15719991Y-13188722D02*
X15719991Y-13207769D01*
X15719991Y-13207769D02*
X15624753Y-13226817D01*
X15786658Y-13369674D02*
X15796182Y-13360150D01*
X15796182Y-13360150D02*
X15815230Y-13331579D01*
X15815230Y-13331579D02*
X15824753Y-13312531D01*
X15824753Y-13312531D02*
X15834277Y-13283960D01*
X15834277Y-13283960D02*
X15843801Y-13236341D01*
X15843801Y-13236341D02*
X15843801Y-13198246D01*
X15843801Y-13198246D02*
X15834277Y-13150627D01*
X15834277Y-13150627D02*
X15824753Y-13122055D01*
X15824753Y-13122055D02*
X15815230Y-13103008D01*
X15815230Y-13103008D02*
X15796182Y-13074436D01*
X15796182Y-13074436D02*
X15786658Y-13064912D01*
M02*
