G04 #@! TF.GenerationSoftware,KiCad,Pcbnew,8.0.2*
G04 #@! TF.CreationDate,2024-05-11T15:04:56+02:00*
G04 #@! TF.ProjectId,WiFi-2-OIP-UI,57694669-2d32-42d4-9f49-502d55492e6b,V1.0*
G04 #@! TF.SameCoordinates,Original*
G04 #@! TF.FileFunction,Soldermask,Bot*
G04 #@! TF.FilePolarity,Negative*
%FSLAX46Y46*%
G04 Gerber Fmt 4.6, Leading zero omitted, Abs format (unit mm)*
G04 Created by KiCad (PCBNEW 8.0.2) date 2024-05-11 15:04:56*
%MOMM*%
%LPD*%
G01*
G04 APERTURE LIST*
G04 Aperture macros list*
%AMRoundRect*
0 Rectangle with rounded corners*
0 $1 Rounding radius*
0 $2 $3 $4 $5 $6 $7 $8 $9 X,Y pos of 4 corners*
0 Add a 4 corners polygon primitive as box body*
4,1,4,$2,$3,$4,$5,$6,$7,$8,$9,$2,$3,0*
0 Add four circle primitives for the rounded corners*
1,1,$1+$1,$2,$3*
1,1,$1+$1,$4,$5*
1,1,$1+$1,$6,$7*
1,1,$1+$1,$8,$9*
0 Add four rect primitives between the rounded corners*
20,1,$1+$1,$2,$3,$4,$5,0*
20,1,$1+$1,$4,$5,$6,$7,0*
20,1,$1+$1,$6,$7,$8,$9,0*
20,1,$1+$1,$8,$9,$2,$3,0*%
G04 Aperture macros list end*
%ADD10C,0.100000*%
%ADD11R,2.500000X2.500000*%
%ADD12C,0.900000*%
%ADD13C,9.000000*%
%ADD14R,2.100000X1.700000*%
%ADD15O,2.100000X1.700000*%
%ADD16O,1.905000X2.000000*%
%ADD17R,1.905000X2.000000*%
%ADD18C,1.600000*%
%ADD19R,1.600000X1.600000*%
%ADD20O,1.800000X3.600000*%
%ADD21RoundRect,0.250000X-0.650000X-1.550000X0.650000X-1.550000X0.650000X1.550000X-0.650000X1.550000X0*%
%ADD22C,1.500000*%
%ADD23R,1.300000X1.300000*%
%ADD24C,1.300000*%
G04 APERTURE END LIST*
D10*
G36*
X177210125Y-90288502D02*
G01*
X177191807Y-90538326D01*
X177142958Y-90778371D01*
X177053962Y-91031125D01*
X176945413Y-91246698D01*
X176800939Y-91463442D01*
X176630201Y-91658829D01*
X176453459Y-91815130D01*
X176238656Y-91961992D01*
X176002497Y-92082591D01*
X175980009Y-92092208D01*
X175726350Y-92177845D01*
X175485733Y-92223641D01*
X175235574Y-92238906D01*
X175210054Y-92238753D01*
X174960230Y-92220435D01*
X174720185Y-92171587D01*
X174467431Y-92082591D01*
X174251977Y-91974041D01*
X174035640Y-91829567D01*
X174031728Y-91826136D01*
X174504067Y-91826136D01*
X174623341Y-91877626D01*
X174860662Y-91949478D01*
X174988711Y-91973118D01*
X175235574Y-91991000D01*
X175364582Y-91986093D01*
X175609266Y-91949478D01*
X175735296Y-91916170D01*
X175967082Y-91826136D01*
X175854310Y-91716055D01*
X175637354Y-91580672D01*
X175479728Y-91526114D01*
X175235574Y-91496408D01*
X175078896Y-91508257D01*
X174833795Y-91580672D01*
X174688060Y-91661833D01*
X174504067Y-91826136D01*
X174031728Y-91826136D01*
X173840948Y-91658829D01*
X173684003Y-91482087D01*
X173536708Y-91267285D01*
X173415965Y-91031125D01*
X173406348Y-91008636D01*
X173320710Y-90754806D01*
X173274915Y-90513783D01*
X173274739Y-90510888D01*
X173524653Y-90510888D01*
X173579608Y-90760626D01*
X173676084Y-91001816D01*
X176797507Y-91001816D01*
X176804306Y-90987584D01*
X176893951Y-90750134D01*
X176945274Y-90510888D01*
X173524653Y-90510888D01*
X173274739Y-90510888D01*
X173259650Y-90262981D01*
X177210278Y-90262981D01*
X177210125Y-90288502D01*
G37*
G36*
X174021687Y-87822995D02*
G01*
X174140145Y-87903595D01*
X174220745Y-88022053D01*
X174248833Y-88164935D01*
X174248833Y-89150455D01*
X174220745Y-89293337D01*
X174140145Y-89411795D01*
X174021687Y-89492395D01*
X173878805Y-89521704D01*
X173734702Y-89492395D01*
X173616244Y-89413016D01*
X173536865Y-89297001D01*
X173507556Y-89150455D01*
X173507556Y-88164935D01*
X173536865Y-88020832D01*
X173616244Y-87902374D01*
X173734702Y-87822995D01*
X173878805Y-87793686D01*
X174021687Y-87822995D01*
G37*
G36*
X176737668Y-87822995D02*
G01*
X176854904Y-87902374D01*
X176933062Y-88020832D01*
X176962371Y-88164935D01*
X176962371Y-89150455D01*
X176933062Y-89297001D01*
X176854904Y-89413016D01*
X176737668Y-89492395D01*
X176592343Y-89521704D01*
X176448240Y-89492395D01*
X176331004Y-89411795D01*
X176254067Y-89293337D01*
X176224758Y-89150455D01*
X176224758Y-88164935D01*
X176254067Y-88022053D01*
X176331004Y-87903595D01*
X176448240Y-87822995D01*
X176592343Y-87793686D01*
X176737668Y-87822995D01*
G37*
G36*
X175505997Y-85579930D02*
G01*
X175771382Y-85606491D01*
X176031730Y-85650760D01*
X176287040Y-85712737D01*
X176535099Y-85790284D01*
X176774915Y-85882486D01*
X177006488Y-85989342D01*
X177229817Y-86110853D01*
X177443606Y-86246179D01*
X177647778Y-86394480D01*
X177842333Y-86555757D01*
X178027270Y-86730009D01*
X178200988Y-86915023D01*
X178361883Y-87109806D01*
X178509955Y-87314360D01*
X178645205Y-87528683D01*
X178766792Y-87751554D01*
X178873877Y-87982974D01*
X178966460Y-88222943D01*
X179044542Y-88471460D01*
X179105984Y-88726236D01*
X179149871Y-88986202D01*
X179176204Y-89251358D01*
X179184981Y-89521704D01*
X179176204Y-89792127D01*
X179149871Y-90057512D01*
X179105984Y-90317860D01*
X179044542Y-90573170D01*
X178966460Y-90821229D01*
X178873877Y-91061045D01*
X178766792Y-91292618D01*
X178645205Y-91515947D01*
X178509955Y-91729736D01*
X178361883Y-91933908D01*
X178200988Y-92128462D01*
X178027270Y-92313400D01*
X177842333Y-92487652D01*
X177647778Y-92648929D01*
X177443606Y-92797230D01*
X177229817Y-92932556D01*
X177006488Y-93054066D01*
X176774915Y-93160923D01*
X176535099Y-93253124D01*
X176287040Y-93330672D01*
X176031730Y-93392114D01*
X175771382Y-93436001D01*
X175505997Y-93462334D01*
X175235574Y-93471111D01*
X174964694Y-93462334D01*
X174699156Y-93436001D01*
X174438961Y-93392114D01*
X174184109Y-93330672D01*
X173936050Y-93253124D01*
X173696234Y-93160923D01*
X173464661Y-93054066D01*
X173241332Y-92932556D01*
X173027008Y-92797230D01*
X172822455Y-92648929D01*
X172627671Y-92487652D01*
X172442657Y-92313400D01*
X172268940Y-92128462D01*
X172108045Y-91933908D01*
X171959973Y-91729736D01*
X171824723Y-91515947D01*
X171703212Y-91292618D01*
X171596356Y-91061045D01*
X171504154Y-90821229D01*
X171426607Y-90573170D01*
X171364631Y-90317860D01*
X171320362Y-90057512D01*
X171293800Y-89792127D01*
X171284946Y-89521704D01*
X171779538Y-89521704D01*
X171782579Y-89670057D01*
X171803380Y-89932734D01*
X171843888Y-90189807D01*
X171904102Y-90441279D01*
X171945121Y-90577675D01*
X172031428Y-90816277D01*
X172133770Y-91045992D01*
X172252148Y-91266819D01*
X172324574Y-91385303D01*
X172466061Y-91589859D01*
X172621844Y-91783209D01*
X172791925Y-91965354D01*
X172891733Y-92061256D01*
X173080103Y-92222911D01*
X173279678Y-92370462D01*
X173490459Y-92503909D01*
X173612074Y-92572006D01*
X173838043Y-92681959D01*
X174073092Y-92775682D01*
X174317221Y-92853177D01*
X174455884Y-92888710D01*
X174709985Y-92937493D01*
X174969882Y-92966763D01*
X175235574Y-92976519D01*
X175383897Y-92973508D01*
X175646370Y-92952911D01*
X175903047Y-92912800D01*
X176153928Y-92853177D01*
X176290324Y-92812128D01*
X176528926Y-92725617D01*
X176758641Y-92622878D01*
X176979468Y-92503909D01*
X177097982Y-92431513D01*
X177302742Y-92290230D01*
X177496489Y-92134844D01*
X177679224Y-91965354D01*
X177775126Y-91865546D01*
X177936781Y-91677176D01*
X178084332Y-91477601D01*
X178217780Y-91266819D01*
X178285555Y-91145235D01*
X178395228Y-90919470D01*
X178489058Y-90684818D01*
X178567047Y-90441279D01*
X178602580Y-90302264D01*
X178651363Y-90047680D01*
X178680633Y-89787494D01*
X178690389Y-89521704D01*
X178687378Y-89373382D01*
X178666781Y-89110909D01*
X178626670Y-88854232D01*
X178567047Y-88603351D01*
X178525676Y-88466603D01*
X178438886Y-88227518D01*
X178336254Y-87997513D01*
X178217780Y-87776589D01*
X178145383Y-87658105D01*
X178004100Y-87453549D01*
X177848714Y-87260199D01*
X177679224Y-87078055D01*
X177579064Y-86981801D01*
X177390211Y-86819663D01*
X177190346Y-86671822D01*
X176979468Y-86538278D01*
X176857884Y-86470533D01*
X176632119Y-86361064D01*
X176397467Y-86267630D01*
X176153928Y-86190232D01*
X176015265Y-86154347D01*
X175761164Y-86105081D01*
X175501267Y-86075521D01*
X175235574Y-86065668D01*
X175087252Y-86068709D01*
X174824779Y-86089510D01*
X174568102Y-86130018D01*
X174317221Y-86190232D01*
X174180473Y-86231251D01*
X173941388Y-86317558D01*
X173711383Y-86419900D01*
X173490459Y-86538278D01*
X173371975Y-86610704D01*
X173167419Y-86752191D01*
X172974069Y-86907974D01*
X172791925Y-87078055D01*
X172695671Y-87177863D01*
X172533533Y-87366233D01*
X172385692Y-87565808D01*
X172252148Y-87776589D01*
X172184403Y-87898204D01*
X172074934Y-88124173D01*
X171981500Y-88359222D01*
X171904102Y-88603351D01*
X171868217Y-88742014D01*
X171818951Y-88996115D01*
X171789391Y-89256012D01*
X171779538Y-89521704D01*
X171284946Y-89521704D01*
X171293800Y-89251358D01*
X171320362Y-88986202D01*
X171364631Y-88726236D01*
X171426607Y-88471460D01*
X171504154Y-88222943D01*
X171596356Y-87982974D01*
X171703212Y-87751554D01*
X171824723Y-87528683D01*
X171959973Y-87314360D01*
X172108045Y-87109806D01*
X172268940Y-86915023D01*
X172442657Y-86730009D01*
X172627671Y-86555757D01*
X172822455Y-86394480D01*
X173027008Y-86246179D01*
X173241332Y-86110853D01*
X173464661Y-85989342D01*
X173696234Y-85882486D01*
X173936050Y-85790284D01*
X174184109Y-85712737D01*
X174438961Y-85650760D01*
X174699156Y-85606491D01*
X174964694Y-85579930D01*
X175235574Y-85571076D01*
X175505997Y-85579930D01*
G37*
D11*
X177800000Y-96520000D03*
D12*
X163649000Y-106830000D03*
X162660485Y-109216485D03*
X162660485Y-104443515D03*
X160274000Y-110205000D03*
D13*
X160274000Y-106830000D03*
D12*
X160274000Y-103455000D03*
X157887515Y-109216485D03*
X157887515Y-104443515D03*
X156899000Y-106830000D03*
D14*
X124460000Y-86360000D03*
D15*
X124460000Y-88900000D03*
X124460000Y-91440000D03*
X124460000Y-93980000D03*
X124460000Y-96520000D03*
X124460000Y-99060000D03*
X124460000Y-101600000D03*
X124460000Y-104140000D03*
X127000000Y-86360000D03*
X127000000Y-88900000D03*
X127000000Y-91440000D03*
X127000000Y-93980000D03*
X127000000Y-96520000D03*
X127000000Y-99060000D03*
X127000000Y-101600000D03*
X127000000Y-104140000D03*
X144780000Y-86360000D03*
X144780000Y-88900000D03*
X144780000Y-91440000D03*
X144780000Y-93980000D03*
X144780000Y-96520000D03*
X144780000Y-99060000D03*
X144780000Y-101600000D03*
X144780000Y-104140000D03*
X147320000Y-86360000D03*
X147320000Y-88900000D03*
X147320000Y-91440000D03*
X147320000Y-93980000D03*
X147320000Y-96520000D03*
X147320000Y-99060000D03*
X147320000Y-101600000D03*
X147320000Y-104140000D03*
D16*
X163068000Y-89916000D03*
X160528000Y-89916000D03*
D17*
X157988000Y-89916000D03*
D18*
X164338000Y-97536000D03*
D19*
X164338000Y-95536000D03*
D18*
X156718000Y-97536000D03*
D19*
X156718000Y-95536000D03*
D20*
X176220000Y-106680000D03*
D21*
X172720000Y-106680000D03*
D22*
X116100000Y-93850000D03*
D23*
X114300000Y-95250000D03*
D24*
X116840000Y-96520000D03*
X114300000Y-97790000D03*
X116840000Y-99060000D03*
X114300000Y-100330000D03*
X116840000Y-101600000D03*
X114300000Y-102870000D03*
X116840000Y-104140000D03*
X114300000Y-105410000D03*
X116840000Y-106680000D03*
M02*
