G04 #@! TF.GenerationSoftware,KiCad,Pcbnew,8.0.2*
G04 #@! TF.CreationDate,2024-05-11T15:04:56+02:00*
G04 #@! TF.ProjectId,WiFi-2-OIP-UI,57694669-2d32-42d4-9f49-502d55492e6b,V1.0*
G04 #@! TF.SameCoordinates,Original*
G04 #@! TF.FileFunction,Soldermask,Top*
G04 #@! TF.FilePolarity,Negative*
%FSLAX46Y46*%
G04 Gerber Fmt 4.6, Leading zero omitted, Abs format (unit mm)*
G04 Created by KiCad (PCBNEW 8.0.2) date 2024-05-11 15:04:56*
%MOMM*%
%LPD*%
G01*
G04 APERTURE LIST*
G04 Aperture macros list*
%AMRoundRect*
0 Rectangle with rounded corners*
0 $1 Rounding radius*
0 $2 $3 $4 $5 $6 $7 $8 $9 X,Y pos of 4 corners*
0 Add a 4 corners polygon primitive as box body*
4,1,4,$2,$3,$4,$5,$6,$7,$8,$9,$2,$3,0*
0 Add four circle primitives for the rounded corners*
1,1,$1+$1,$2,$3*
1,1,$1+$1,$4,$5*
1,1,$1+$1,$6,$7*
1,1,$1+$1,$8,$9*
0 Add four rect primitives between the rounded corners*
20,1,$1+$1,$2,$3,$4,$5,0*
20,1,$1+$1,$4,$5,$6,$7,0*
20,1,$1+$1,$6,$7,$8,$9,0*
20,1,$1+$1,$8,$9,$2,$3,0*%
G04 Aperture macros list end*
%ADD10R,2.500000X2.500000*%
%ADD11C,0.900000*%
%ADD12C,9.000000*%
%ADD13R,2.100000X1.700000*%
%ADD14O,2.100000X1.700000*%
%ADD15O,1.905000X2.000000*%
%ADD16R,1.905000X2.000000*%
%ADD17C,1.600000*%
%ADD18R,1.600000X1.600000*%
%ADD19O,1.800000X3.600000*%
%ADD20RoundRect,0.250000X-0.650000X-1.550000X0.650000X-1.550000X0.650000X1.550000X-0.650000X1.550000X0*%
%ADD21RoundRect,0.250001X0.624999X-0.462499X0.624999X0.462499X-0.624999X0.462499X-0.624999X-0.462499X0*%
%ADD22RoundRect,0.250000X-1.000000X-0.650000X1.000000X-0.650000X1.000000X0.650000X-1.000000X0.650000X0*%
%ADD23C,1.500000*%
%ADD24R,1.300000X1.300000*%
%ADD25C,1.300000*%
G04 APERTURE END LIST*
D10*
X177800000Y-96520000D03*
D11*
X163649000Y-106830000D03*
X162660485Y-109216485D03*
X162660485Y-104443515D03*
X160274000Y-110205000D03*
D12*
X160274000Y-106830000D03*
D11*
X160274000Y-103455000D03*
X157887515Y-109216485D03*
X157887515Y-104443515D03*
X156899000Y-106830000D03*
D13*
X124460000Y-86360000D03*
D14*
X124460000Y-88900000D03*
X124460000Y-91440000D03*
X124460000Y-93980000D03*
X124460000Y-96520000D03*
X124460000Y-99060000D03*
X124460000Y-101600000D03*
X124460000Y-104140000D03*
X127000000Y-86360000D03*
X127000000Y-88900000D03*
X127000000Y-91440000D03*
X127000000Y-93980000D03*
X127000000Y-96520000D03*
X127000000Y-99060000D03*
X127000000Y-101600000D03*
X127000000Y-104140000D03*
X144780000Y-86360000D03*
X144780000Y-88900000D03*
X144780000Y-91440000D03*
X144780000Y-93980000D03*
X144780000Y-96520000D03*
X144780000Y-99060000D03*
X144780000Y-101600000D03*
X144780000Y-104140000D03*
X147320000Y-86360000D03*
X147320000Y-88900000D03*
X147320000Y-91440000D03*
X147320000Y-93980000D03*
X147320000Y-96520000D03*
X147320000Y-99060000D03*
X147320000Y-101600000D03*
X147320000Y-104140000D03*
D15*
X163068000Y-89916000D03*
X160528000Y-89916000D03*
D16*
X157988000Y-89916000D03*
D17*
X164338000Y-97536000D03*
D18*
X164338000Y-95536000D03*
D17*
X156718000Y-97536000D03*
D18*
X156718000Y-95536000D03*
D19*
X176220000Y-106680000D03*
D20*
X172720000Y-106680000D03*
D21*
X172720000Y-95032500D03*
X172720000Y-98007500D03*
D22*
X176752000Y-88900000D03*
X172752000Y-88900000D03*
D23*
X116100000Y-93850000D03*
D24*
X114300000Y-95250000D03*
D25*
X116840000Y-96520000D03*
X114300000Y-97790000D03*
X116840000Y-99060000D03*
X114300000Y-100330000D03*
X116840000Y-101600000D03*
X114300000Y-102870000D03*
X116840000Y-104140000D03*
X114300000Y-105410000D03*
X116840000Y-106680000D03*
M02*
