M48
; DRILL file {KiCad 8.0.2} date 2024-05-11T15:05:22+0200
; FORMAT={-:-/ absolute / metric / decimal}
; #@! TF.CreationDate,2024-05-11T15:05:22+02:00
; #@! TF.GenerationSoftware,Kicad,Pcbnew,8.0.2
; #@! TF.FileFunction,Plated,1,2,PTH
FMAT,2
METRIC
; #@! TA.AperFunction,Plated,PTH,ComponentDrill
T1C0.600
; #@! TA.AperFunction,Plated,PTH,ComponentDrill
T2C0.800
; #@! TA.AperFunction,Plated,PTH,ComponentDrill
T3C1.000
; #@! TA.AperFunction,Plated,PTH,ComponentDrill
T4C1.100
; #@! TA.AperFunction,Plated,PTH,ComponentDrill
T5C1.200
; #@! TA.AperFunction,Plated,PTH,ComponentDrill
T6C4.500
%
G90
G05
T1
X156.899Y-106.83
X157.888Y-104.444
X157.888Y-109.216
X160.274Y-103.455
X160.274Y-110.205
X162.66Y-104.444
X162.66Y-109.216
X163.649Y-106.83
T2
X114.3Y-95.25
X114.3Y-97.79
X114.3Y-100.33
X114.3Y-102.87
X114.3Y-105.41
X116.84Y-96.52
X116.84Y-99.06
X116.84Y-101.6
X116.84Y-104.14
X116.84Y-106.68
X156.718Y-95.536
X156.718Y-97.536
X164.338Y-95.536
X164.338Y-97.536
T3
X124.46Y-86.36
X124.46Y-88.9
X124.46Y-91.44
X124.46Y-93.98
X124.46Y-96.52
X124.46Y-99.06
X124.46Y-101.6
X124.46Y-104.14
X127.0Y-86.36
X127.0Y-88.9
X127.0Y-91.44
X127.0Y-93.98
X127.0Y-96.52
X127.0Y-99.06
X127.0Y-101.6
X127.0Y-104.14
X144.78Y-86.36
X144.78Y-88.9
X144.78Y-91.44
X144.78Y-93.98
X144.78Y-96.52
X144.78Y-99.06
X144.78Y-101.6
X144.78Y-104.14
X147.32Y-86.36
X147.32Y-88.9
X147.32Y-91.44
X147.32Y-93.98
X147.32Y-96.52
X147.32Y-99.06
X147.32Y-101.6
X147.32Y-104.14
T4
X157.988Y-89.916
X160.528Y-89.916
X163.068Y-89.916
T5
X172.72Y-106.68
X176.22Y-106.68
X177.8Y-96.52
T6
X160.274Y-106.83
M30
