G04 #@! TF.GenerationSoftware,KiCad,Pcbnew,8.0.2*
G04 #@! TF.CreationDate,2024-05-11T15:04:56+02:00*
G04 #@! TF.ProjectId,WiFi-2-OIP-UI,57694669-2d32-42d4-9f49-502d55492e6b,V1.0*
G04 #@! TF.SameCoordinates,Original*
G04 #@! TF.FileFunction,Profile,NP*
%FSLAX46Y46*%
G04 Gerber Fmt 4.6, Leading zero omitted, Abs format (unit mm)*
G04 Created by KiCad (PCBNEW 8.0.2) date 2024-05-11 15:04:56*
%MOMM*%
%LPD*%
G01*
G04 APERTURE LIST*
G04 #@! TA.AperFunction,Profile*
%ADD10C,0.050000*%
G04 #@! TD*
G04 APERTURE END LIST*
D10*
X177800000Y-100965000D02*
X177800000Y-101600000D01*
X180340000Y-100330000D02*
X178435000Y-100330000D01*
X177800000Y-100965000D02*
G75*
G02*
X178435000Y-100330000I635000J0D01*
G01*
X151130000Y-85725000D02*
X151130000Y-86360000D01*
X170180000Y-85725000D02*
X170180000Y-86360000D01*
X180340000Y-104140000D02*
X180340000Y-112395000D01*
X179070000Y-102870000D02*
G75*
G02*
X177800000Y-101600000I0J1270000D01*
G01*
X179070000Y-102870000D02*
G75*
G02*
X180340000Y-104140000I0J-1270000D01*
G01*
X175895000Y-84455000D02*
X171450000Y-84455000D01*
X152400000Y-87630000D02*
X168910000Y-87630000D01*
X170180000Y-86360000D02*
G75*
G02*
X168910000Y-87630000I-1270000J0D01*
G01*
X170180000Y-85725000D02*
G75*
G02*
X171450000Y-84455000I1270000J0D01*
G01*
X149860000Y-84455000D02*
G75*
G02*
X151130000Y-85725000I0J-1270000D01*
G01*
X113030000Y-110490000D02*
X120904000Y-110490000D01*
X175895000Y-84455000D02*
G75*
G02*
X180340000Y-88900000I0J-4445000D01*
G01*
X121920000Y-85725000D02*
G75*
G02*
X123190000Y-84455000I1270000J0D01*
G01*
X121920000Y-90170000D02*
G75*
G02*
X120650000Y-91440000I-1270000J0D01*
G01*
X111760000Y-92710000D02*
G75*
G02*
X113030000Y-91440000I1270000J0D01*
G01*
X113030000Y-110490000D02*
G75*
G02*
X111760000Y-109220000I0J1270000D01*
G01*
X121920000Y-90170000D02*
X121920000Y-85725000D01*
X113030000Y-91440000D02*
X120650000Y-91440000D01*
X111760000Y-92710000D02*
X111760000Y-109220000D01*
X149860000Y-84455000D02*
X123190000Y-84455000D01*
X180340000Y-100330000D02*
X180340000Y-88900000D01*
X122682000Y-112395000D02*
X180340000Y-112395000D01*
X152400000Y-87630000D02*
G75*
G02*
X151130000Y-86360000I0J1270000D01*
G01*
X121793000Y-111379000D02*
X121793000Y-111506000D01*
X122682000Y-112395000D02*
G75*
G02*
X121793000Y-111506000I0J889000D01*
G01*
X120904000Y-110490000D02*
G75*
G02*
X121793000Y-111379000I0J-889000D01*
G01*
M02*
